<svg width="513" height="76" viewBox="0 0 513 76" fill="none" xmlns="http://www.w3.org/2000/svg">
<mask id="path-1-outside-1_52_82" maskUnits="userSpaceOnUse" x="3.00002" y="21.2109" width="85" height="44" fill="black">
<rect fill="white" x="3.00002" y="21.2109" width="85" height="44"/>
<path d="M5.30042 62.0943V52.4449L29.6959 43.5429L5.30042 34.573V24.8556L40.9763 38.6502V48.3676L5.30042 62.0943ZM50.1607 62.0943V52.4449L74.5561 43.5429L50.1607 34.573V24.8556L85.8365 38.6502V48.3676L50.1607 62.0943Z"/>
</mask>
<path d="M5.30042 62.0943H3.37607V64.8966L5.99145 63.8903L5.30042 62.0943ZM5.30042 52.4449L4.64077 50.6371L3.37607 51.0986V52.4449H5.30042ZM29.6959 43.5429L30.3555 45.3507L35.2908 43.5498L30.36 41.7368L29.6959 43.5429ZM5.30042 34.573H3.37607V35.9157L4.63633 36.3791L5.30042 34.573ZM5.30042 24.8556L5.99443 23.0607L3.37607 22.0483V24.8556H5.30042ZM40.9763 38.6502H42.9006V37.3311L41.6703 36.8554L40.9763 38.6502ZM40.9763 48.3676L41.6673 50.1636L42.9006 49.6891V48.3676H40.9763ZM7.22477 62.0943V52.4449H3.37607V62.0943H7.22477ZM5.96008 54.2526L30.3555 45.3507L29.0362 41.7352L4.64077 50.6371L5.96008 54.2526ZM30.36 41.7368L5.96452 32.7669L4.63633 36.3791L29.0318 45.349L30.36 41.7368ZM7.22477 34.573V24.8556H3.37607V34.573H7.22477ZM4.60642 26.6504L40.2822 40.4451L41.6703 36.8554L5.99443 23.0607L4.60642 26.6504ZM39.0519 38.6502V48.3676H42.9006V38.6502H39.0519ZM40.2852 46.5716L4.60939 60.2983L5.99145 63.8903L41.6673 50.1636L40.2852 46.5716ZM50.1607 62.0943H48.2363V64.8966L50.8517 63.8903L50.1607 62.0943ZM50.1607 52.4449L49.501 50.6371L48.2363 51.0986V52.4449H50.1607ZM74.5561 43.5429L75.2158 45.3507L80.151 43.5498L75.2202 41.7368L74.5561 43.5429ZM50.1607 34.573H48.2363V35.9157L49.4966 36.3791L50.1607 34.573ZM50.1607 24.8556L50.8547 23.0607L48.2363 22.0483V24.8556H50.1607ZM85.8365 38.6502H87.7608V37.3311L86.5305 36.8554L85.8365 38.6502ZM85.8365 48.3676L86.5275 50.1636L87.7608 49.6891V48.3676H85.8365ZM52.085 62.0943V52.4449H48.2363V62.0943H52.085ZM50.8203 54.2526L75.2158 45.3507L73.8965 41.7352L49.501 50.6371L50.8203 54.2526ZM75.2202 41.7368L50.8247 32.7669L49.4966 36.3791L73.892 45.349L75.2202 41.7368ZM52.085 34.573V24.8556H48.2363V34.573H52.085ZM49.4666 26.6504L85.1425 40.4451L86.5305 36.8554L50.8547 23.0607L49.4666 26.6504ZM83.9121 38.6502V48.3676H87.7608V38.6502H83.9121ZM85.1455 46.5716L49.4696 60.2983L50.8517 63.8903L86.5275 50.1636L85.1455 46.5716Z" fill="#00ADEF" mask="url(#path-1-outside-1_52_82)"/>
<path d="M127.788 61.8424C126.571 61.8424 125.261 61.702 123.857 61.4212C122.499 61.1404 121.212 60.649 119.995 59.9469C118.779 59.1981 117.772 58.145 116.977 56.7878C116.228 55.3837 115.853 53.6052 115.853 51.4522C115.853 48.8781 116.415 46.7486 117.538 45.0637C118.662 43.3788 120.253 42.0683 122.312 41.1322C124.418 40.1494 126.922 39.4707 129.824 39.0963C132.726 38.7219 135.932 38.5347 139.442 38.5347V35.7967C139.442 34.7203 139.255 33.7842 138.88 32.9886C138.553 32.1929 137.944 31.5611 137.055 31.0931C136.213 30.625 135.019 30.391 133.475 30.391C131.93 30.391 130.666 30.5782 129.684 30.9526C128.748 31.3271 128.069 31.8185 127.648 32.4269C127.273 32.9886 127.086 33.6204 127.086 34.3224V35.1649H117.609C117.562 34.9309 117.538 34.7203 117.538 34.5331C117.538 34.299 117.538 34.0182 117.538 33.6906C117.538 31.5377 118.194 29.689 119.504 28.1445C120.815 26.5532 122.663 25.3363 125.05 24.4939C127.437 23.6514 130.222 23.2302 133.404 23.2302C136.821 23.2302 139.676 23.6748 141.969 24.5641C144.309 25.4533 146.088 26.7638 147.305 28.4955C148.569 30.2272 149.2 32.4035 149.2 35.0245V51.8033C149.2 52.6457 149.434 53.2776 149.902 53.6988C150.417 54.0732 150.979 54.2604 151.587 54.2604H153.904V60.649C153.436 60.883 152.711 61.117 151.728 61.351C150.745 61.6318 149.551 61.7722 148.147 61.7722C146.79 61.7722 145.573 61.5616 144.497 61.1404C143.467 60.766 142.601 60.2278 141.899 59.5257C141.197 58.7769 140.706 57.8876 140.425 56.858H139.933C139.138 57.8408 138.155 58.7067 136.985 59.4555C135.862 60.2044 134.528 60.7894 132.983 61.2106C131.486 61.6318 129.754 61.8424 127.788 61.8424ZM131.088 54.471C132.398 54.471 133.568 54.2838 134.598 53.9094C135.628 53.4882 136.493 52.9499 137.195 52.2947C137.898 51.5927 138.436 50.7502 138.81 49.7673C139.231 48.7845 139.442 47.7314 139.442 46.6082V44.5722C136.821 44.5722 134.481 44.7595 132.422 45.1339C130.362 45.4615 128.724 46.0465 127.507 46.889C126.337 47.7314 125.752 48.9015 125.752 50.3992C125.752 51.2416 125.963 51.9671 126.384 52.5755C126.805 53.1839 127.414 53.652 128.209 53.9796C129.005 54.3072 129.964 54.471 131.088 54.471ZM183.556 61.8424C181.216 61.8424 179.32 61.4212 177.869 60.5788C176.419 59.7363 175.365 58.6131 174.71 57.209C174.055 55.7581 173.727 54.1668 173.727 52.4351V31.5845H169.164V24.0726H174.078L175.904 13.542H183.486V24.0726H190.225V31.5845H183.486V50.8204C183.486 51.9437 183.743 52.8095 184.258 53.418C184.773 53.9796 185.615 54.2604 186.785 54.2604H190.225V60.7192C189.664 60.9064 189.008 61.0702 188.26 61.2106C187.511 61.3978 186.715 61.5382 185.873 61.6318C185.03 61.7722 184.258 61.8424 183.556 61.8424ZM208.464 61.8424C204.72 61.8424 201.748 60.8128 199.548 58.7535C197.348 56.6941 196.249 53.3712 196.249 48.7845V24.0726H206.007V47.1698C206.007 48.3867 206.147 49.4163 206.428 50.2588C206.709 51.0544 207.107 51.7097 207.622 52.2245C208.183 52.7393 208.862 53.1137 209.658 53.3478C210.453 53.5818 211.343 53.6988 212.325 53.6988C213.776 53.6988 215.087 53.3478 216.257 52.6457C217.427 51.9437 218.34 50.9842 218.995 49.7673C219.65 48.5037 219.978 47.0996 219.978 45.5551V24.0726H229.736V61H221.733L221.031 55.9453H220.539C219.65 57.1154 218.597 58.145 217.38 59.0343C216.21 59.9235 214.876 60.6022 213.378 61.0702C211.881 61.585 210.243 61.8424 208.464 61.8424Z" fill="#00ADEF"/>
<path d="M262.232 61.8424C261.015 61.8424 259.704 61.702 258.3 61.4212C256.943 61.1404 255.656 60.649 254.439 59.9469C253.222 59.1981 252.216 58.145 251.42 56.7878C250.671 55.3837 250.297 53.6052 250.297 51.4522C250.297 48.8781 250.859 46.7486 251.982 45.0637C253.105 43.3788 254.696 42.0683 256.756 41.1322C258.862 40.1494 261.366 39.4707 264.268 39.0963C267.169 38.7219 270.375 38.5347 273.886 38.5347V35.7967C273.886 34.7203 273.698 33.7842 273.324 32.9886C272.996 32.1929 272.388 31.5611 271.499 31.0931C270.656 30.625 269.463 30.391 267.918 30.391C266.374 30.391 265.11 30.5782 264.127 30.9526C263.191 31.3271 262.513 31.8185 262.091 32.4269C261.717 32.9886 261.53 33.6204 261.53 34.3224V35.1649H252.052C252.005 34.9309 251.982 34.7203 251.982 34.5331C251.982 34.299 251.982 34.0182 251.982 33.6906C251.982 31.5377 252.637 29.689 253.948 28.1445C255.258 26.5532 257.107 25.3363 259.494 24.4939C261.881 23.6514 264.665 23.2302 267.848 23.2302C271.265 23.2302 274.12 23.6748 276.413 24.5641C278.753 25.4533 280.532 26.7638 281.748 28.4955C283.012 30.2272 283.644 32.4035 283.644 35.0245V51.8033C283.644 52.6457 283.878 53.2776 284.346 53.6988C284.861 54.0732 285.422 54.2604 286.031 54.2604H288.348V60.649C287.88 60.883 287.154 61.117 286.171 61.351C285.188 61.6318 283.995 61.7722 282.591 61.7722C281.234 61.7722 280.017 61.5616 278.94 61.1404C277.911 60.766 277.045 60.2278 276.343 59.5257C275.641 58.7769 275.149 57.8876 274.868 56.858H274.377C273.581 57.8408 272.599 58.7067 271.428 59.4555C270.305 60.2044 268.971 60.7894 267.427 61.2106C265.929 61.6318 264.197 61.8424 262.232 61.8424ZM265.531 54.471C266.842 54.471 268.012 54.2838 269.041 53.9094C270.071 53.4882 270.937 52.9499 271.639 52.2947C272.341 51.5927 272.879 50.7502 273.254 49.7673C273.675 48.7845 273.886 47.7314 273.886 46.6082V44.5722C271.265 44.5722 268.924 44.7595 266.865 45.1339C264.806 45.4615 263.168 46.0465 261.951 46.889C260.781 47.7314 260.196 48.9015 260.196 50.3992C260.196 51.2416 260.406 51.9671 260.828 52.5755C261.249 53.1839 261.857 53.652 262.653 53.9796C263.449 54.3072 264.408 54.471 265.531 54.471ZM293.197 61V10.2424H302.956V61H293.197ZM328.131 61.8424C324.199 61.8424 320.9 61.1638 318.232 59.8065C315.564 58.4024 313.528 56.2729 312.124 53.418C310.767 50.5162 310.088 46.889 310.088 42.5363C310.088 38.0901 310.767 34.4629 312.124 31.6547C313.528 28.7997 315.564 26.6702 318.232 25.2661C320.947 23.862 324.246 23.16 328.131 23.16C330.658 23.16 332.928 23.4642 334.941 24.0726C337 24.6811 338.778 25.6171 340.276 26.8808C341.774 28.1445 342.897 29.7124 343.646 31.5845C344.442 33.4098 344.839 35.5861 344.839 38.1135H335.081C335.081 36.4286 334.824 35.0479 334.309 33.9714C333.794 32.895 332.998 32.0759 331.922 31.5143C330.892 30.9527 329.582 30.6718 327.99 30.6718C326.118 30.6718 324.597 31.0931 323.427 31.9355C322.257 32.778 321.391 34.0182 320.83 35.6563C320.268 37.2944 319.987 39.3303 319.987 41.7641V43.3788C319.987 45.7657 320.268 47.7782 320.83 49.4163C321.438 51.0544 322.351 52.2947 323.568 53.1371C324.784 53.9328 326.376 54.3306 328.341 54.3306C329.933 54.3306 331.243 54.0498 332.273 53.4882C333.349 52.9265 334.168 52.0841 334.73 50.9608C335.292 49.8375 335.572 48.4803 335.572 46.889H344.839C344.839 49.2759 344.442 51.4054 343.646 53.2776C342.897 55.1497 341.774 56.7176 340.276 57.9812C338.825 59.2449 337.07 60.2044 335.011 60.8596C332.952 61.5148 330.658 61.8424 328.131 61.8424ZM361.916 61.8424C360.699 61.8424 359.389 61.702 357.985 61.4212C356.627 61.1404 355.34 60.649 354.123 59.9469C352.906 59.1981 351.9 58.145 351.105 56.7878C350.356 55.3837 349.981 53.6052 349.981 51.4522C349.981 48.8781 350.543 46.7486 351.666 45.0637C352.789 43.3788 354.381 42.0683 356.44 41.1322C358.546 40.1494 361.05 39.4707 363.952 39.0963C366.854 38.7219 370.06 38.5347 373.57 38.5347V35.7967C373.57 34.7203 373.383 33.7842 373.008 32.9886C372.681 32.1929 372.072 31.5611 371.183 31.0931C370.341 30.625 369.147 30.391 367.603 30.391C366.058 30.391 364.794 30.5782 363.812 30.9526C362.875 31.3271 362.197 31.8185 361.776 32.4269C361.401 32.9886 361.214 33.6204 361.214 34.3224V35.1649H351.736C351.69 34.9309 351.666 34.7203 351.666 34.5331C351.666 34.299 351.666 34.0182 351.666 33.6906C351.666 31.5377 352.321 29.689 353.632 28.1445C354.942 26.5532 356.791 25.3363 359.178 24.4939C361.565 23.6514 364.35 23.2302 367.532 23.2302C370.949 23.2302 373.804 23.6748 376.097 24.5641C378.437 25.4533 380.216 26.7638 381.433 28.4955C382.696 30.2272 383.328 32.4035 383.328 35.0245V51.8033C383.328 52.6457 383.562 53.2776 384.03 53.6988C384.545 54.0732 385.107 54.2604 385.715 54.2604H388.032V60.649C387.564 60.883 386.838 61.117 385.856 61.351C384.873 61.6318 383.679 61.7722 382.275 61.7722C380.918 61.7722 379.701 61.5616 378.625 61.1404C377.595 60.766 376.729 60.2278 376.027 59.5257C375.325 58.7769 374.834 57.8876 374.553 56.858H374.061C373.266 57.8408 372.283 58.7067 371.113 59.4555C369.989 60.2044 368.656 60.7894 367.111 61.2106C365.613 61.6318 363.882 61.8424 361.916 61.8424ZM365.216 54.471C366.526 54.471 367.696 54.2838 368.726 53.9094C369.755 53.4882 370.621 52.9499 371.323 52.2947C372.025 51.5927 372.564 50.7502 372.938 49.7673C373.359 48.7845 373.57 47.7314 373.57 46.6082V44.5722C370.949 44.5722 368.609 44.7595 366.549 45.1339C364.49 45.4615 362.852 46.0465 361.635 46.889C360.465 47.7314 359.88 48.9015 359.88 50.3992C359.88 51.2416 360.091 51.9671 360.512 52.5755C360.933 53.1839 361.542 53.652 362.337 53.9796C363.133 54.3072 364.092 54.471 365.216 54.471ZM392.882 61V24.0726H400.955L401.727 29.1273H402.219C403.061 27.9105 404.067 26.8574 405.237 25.9682C406.454 25.0789 407.812 24.4003 409.309 23.9322C410.807 23.4642 412.445 23.2302 414.224 23.2302C416.657 23.2302 418.787 23.6748 420.612 24.5641C422.437 25.4533 423.842 26.8574 424.824 28.7763C425.854 30.6952 426.369 33.1992 426.369 36.2882V61H416.61V37.8327C416.61 36.6626 416.47 35.6797 416.189 34.8841C415.908 34.0416 415.487 33.363 414.926 32.8482C414.411 32.2865 413.756 31.8887 412.96 31.6547C412.164 31.4207 411.275 31.3037 410.292 31.3037C408.841 31.3037 407.531 31.6547 406.361 32.3567C405.191 33.0588 404.278 34.0182 403.623 35.2351C402.967 36.452 402.64 37.8561 402.64 39.4473V61H392.882ZM451.331 61.8424C447.399 61.8424 444.1 61.1638 441.432 59.8065C438.764 58.4024 436.728 56.2729 435.324 53.418C433.967 50.5162 433.288 46.889 433.288 42.5363C433.288 38.0901 433.967 34.4629 435.324 31.6547C436.728 28.7997 438.764 26.6702 441.432 25.2661C444.147 23.862 447.446 23.16 451.331 23.16C453.858 23.16 456.128 23.4642 458.141 24.0726C460.2 24.6811 461.978 25.6171 463.476 26.8808C464.974 28.1445 466.097 29.7124 466.846 31.5845C467.642 33.4098 468.039 35.5861 468.039 38.1135H458.281C458.281 36.4286 458.024 35.0479 457.509 33.9714C456.994 32.895 456.198 32.0759 455.122 31.5143C454.092 30.9527 452.782 30.6718 451.19 30.6718C449.318 30.6718 447.797 31.0931 446.627 31.9355C445.457 32.778 444.591 34.0182 444.03 35.6563C443.468 37.2944 443.187 39.3303 443.187 41.7641V43.3788C443.187 45.7657 443.468 47.7782 444.03 49.4163C444.638 51.0544 445.551 52.2947 446.768 53.1371C447.984 53.9328 449.576 54.3306 451.541 54.3306C453.133 54.3306 454.443 54.0498 455.473 53.4882C456.549 52.9265 457.368 52.0841 457.93 50.9608C458.492 49.8375 458.772 48.4803 458.772 46.889H468.039C468.039 49.2759 467.642 51.4054 466.846 53.2776C466.097 55.1497 464.974 56.7176 463.476 57.9812C462.025 59.2449 460.27 60.2044 458.211 60.8596C456.151 61.5148 453.858 61.8424 451.331 61.8424ZM492.136 61.8424C488.065 61.8424 484.648 61.1638 481.887 59.8065C479.125 58.4024 477.042 56.2729 475.638 53.418C474.234 50.563 473.532 46.9358 473.532 42.5363C473.532 38.0901 474.234 34.4629 475.638 31.6547C477.042 28.7997 479.102 26.6936 481.816 25.3363C484.578 23.9322 487.948 23.2302 491.926 23.2302C495.67 23.2302 498.829 23.9088 501.403 25.2661C503.977 26.5766 505.92 28.6359 507.23 31.4441C508.541 34.2054 509.196 37.7858 509.196 42.1853V44.7127H483.431C483.525 46.8656 483.852 48.6909 484.414 50.1886C485.022 51.6863 485.935 52.8095 487.152 53.5584C488.416 54.2604 490.077 54.6114 492.136 54.6114C493.26 54.6114 494.266 54.471 495.155 54.1902C496.091 53.9094 496.887 53.4882 497.542 52.9265C498.197 52.3649 498.712 51.6629 499.087 50.8204C499.461 49.978 499.648 49.0185 499.648 47.942H509.196C509.196 50.2822 508.775 52.3181 507.932 54.0498C507.09 55.7815 505.92 57.2324 504.422 58.4024C502.924 59.5257 501.122 60.3916 499.016 61C496.957 61.5616 494.664 61.8424 492.136 61.8424ZM483.571 38.5347H499.157C499.157 37.1306 498.97 35.9137 498.595 34.8841C498.268 33.8544 497.799 33.012 497.191 32.3567C496.583 31.7015 495.834 31.2335 494.945 30.9526C494.102 30.625 493.143 30.4612 492.066 30.4612C490.288 30.4612 488.79 30.7654 487.573 31.3739C486.403 31.9355 485.49 32.8248 484.835 34.0416C484.227 35.2117 483.805 36.7094 483.571 38.5347Z" fill="#242D7F"/>
</svg>
