<svg width="1015" height="291" viewBox="0 0 1015 291" fill="none" xmlns="http://www.w3.org/2000/svg">
<rect x="326" y="193" width="600" height="85" rx="34.4865" fill="white"/>
<mask id="path-2-outside-1_55_108" maskUnits="userSpaceOnUse" x="373" y="219.211" width="85" height="44" fill="black">
<rect fill="white" x="373" y="219.211" width="85" height="44"/>
<path d="M375.3 260.094V250.445L399.696 241.543L375.3 232.573V222.856L410.976 236.65V246.368L375.3 260.094ZM420.161 260.094V250.445L444.556 241.543L420.161 232.573V222.856L455.836 236.65V246.368L420.161 260.094Z"/>
</mask>
<path d="M375.3 260.094H373.376V262.897L375.991 261.89L375.3 260.094ZM375.3 250.445L374.641 248.637L373.376 249.099V250.445H375.3ZM399.696 241.543L400.356 243.351L405.291 241.55L400.36 239.737L399.696 241.543ZM375.3 232.573H373.376V233.916L374.636 234.379L375.3 232.573ZM375.3 222.856L375.994 221.061L373.376 220.048V222.856H375.3ZM410.976 236.65H412.901V235.331L411.67 234.855L410.976 236.65ZM410.976 246.368L411.667 248.164L412.901 247.689V246.368H410.976ZM377.225 260.094V250.445H373.376V260.094H377.225ZM375.96 252.253L400.356 243.351L399.036 239.735L374.641 248.637L375.96 252.253ZM400.36 239.737L375.965 230.767L374.636 234.379L399.032 243.349L400.36 239.737ZM377.225 232.573V222.856H373.376V232.573H377.225ZM374.606 224.65L410.282 238.445L411.67 234.855L375.994 221.061L374.606 224.65ZM409.052 236.65V246.368H412.901V236.65H409.052ZM410.285 244.572L374.609 258.298L375.991 261.89L411.667 248.164L410.285 244.572ZM420.161 260.094H418.236V262.897L420.852 261.89L420.161 260.094ZM420.161 250.445L419.501 248.637L418.236 249.099V250.445H420.161ZM444.556 241.543L445.216 243.351L450.151 241.55L445.22 239.737L444.556 241.543ZM420.161 232.573H418.236V233.916L419.497 234.379L420.161 232.573ZM420.161 222.856L420.855 221.061L418.236 220.048V222.856H420.161ZM455.836 236.65H457.761V235.331L456.53 234.855L455.836 236.65ZM455.836 246.368L456.528 248.164L457.761 247.689V246.368H455.836ZM422.085 260.094V250.445H418.236V260.094H422.085ZM420.82 252.253L445.216 243.351L443.896 239.735L419.501 248.637L420.82 252.253ZM445.22 239.737L420.825 230.767L419.497 234.379L443.892 243.349L445.22 239.737ZM422.085 232.573V222.856H418.236V232.573H422.085ZM419.467 224.65L455.142 238.445L456.53 234.855L420.855 221.061L419.467 224.65ZM453.912 236.65V246.368H457.761V236.65H453.912ZM455.145 244.572L419.47 258.298L420.852 261.89L456.528 248.164L455.145 244.572Z" fill="#00ADEF" mask="url(#path-2-outside-1_55_108)"/>
<path d="M497.788 259.842C496.571 259.842 495.261 259.702 493.857 259.421C492.499 259.14 491.212 258.649 489.995 257.947C488.779 257.198 487.772 256.145 486.977 254.788C486.228 253.384 485.853 251.605 485.853 249.452C485.853 246.878 486.415 244.749 487.538 243.064C488.662 241.379 490.253 240.068 492.312 239.132C494.418 238.149 496.922 237.471 499.824 237.096C502.726 236.722 505.932 236.535 509.442 236.535V233.797C509.442 232.72 509.255 231.784 508.88 230.989C508.553 230.193 507.944 229.561 507.055 229.093C506.213 228.625 505.019 228.391 503.475 228.391C501.93 228.391 500.666 228.578 499.684 228.953C498.748 229.327 498.069 229.819 497.648 230.427C497.273 230.989 497.086 231.62 497.086 232.322V233.165H487.609C487.562 232.931 487.538 232.72 487.538 232.533C487.538 232.299 487.538 232.018 487.538 231.691C487.538 229.538 488.194 227.689 489.504 226.144C490.815 224.553 492.663 223.336 495.05 222.494C497.437 221.651 500.222 221.23 503.404 221.23C506.821 221.23 509.676 221.675 511.969 222.564C514.309 223.453 516.088 224.764 517.305 226.496C518.569 228.227 519.2 230.404 519.2 233.024V249.803C519.2 250.646 519.434 251.278 519.902 251.699C520.417 252.073 520.979 252.26 521.587 252.26H523.904V258.649C523.436 258.883 522.711 259.117 521.728 259.351C520.745 259.632 519.551 259.772 518.147 259.772C516.79 259.772 515.573 259.562 514.497 259.14C513.467 258.766 512.601 258.228 511.899 257.526C511.197 256.777 510.706 255.888 510.425 254.858H509.933C509.138 255.841 508.155 256.707 506.985 257.456C505.862 258.204 504.528 258.789 502.983 259.211C501.486 259.632 499.754 259.842 497.788 259.842ZM501.088 252.471C502.398 252.471 503.568 252.284 504.598 251.909C505.628 251.488 506.493 250.95 507.195 250.295C507.898 249.593 508.436 248.75 508.81 247.767C509.231 246.784 509.442 245.731 509.442 244.608V242.572C506.821 242.572 504.481 242.759 502.422 243.134C500.362 243.461 498.724 244.047 497.507 244.889C496.337 245.731 495.752 246.901 495.752 248.399C495.752 249.242 495.963 249.967 496.384 250.576C496.805 251.184 497.414 251.652 498.209 251.98C499.005 252.307 499.964 252.471 501.088 252.471ZM553.556 259.842C551.216 259.842 549.32 259.421 547.869 258.579C546.419 257.736 545.365 256.613 544.71 255.209C544.055 253.758 543.727 252.167 543.727 250.435V229.584H539.164V222.073H544.078L545.904 211.542H553.486V222.073H560.225V229.584H553.486V248.82C553.486 249.944 553.743 250.81 554.258 251.418C554.773 251.98 555.615 252.26 556.785 252.26H560.225V258.719C559.664 258.906 559.008 259.07 558.26 259.211C557.511 259.398 556.715 259.538 555.873 259.632C555.03 259.772 554.258 259.842 553.556 259.842ZM578.464 259.842C574.72 259.842 571.748 258.813 569.548 256.753C567.348 254.694 566.249 251.371 566.249 246.784V222.073H576.007V245.17C576.007 246.387 576.147 247.416 576.428 248.259C576.709 249.054 577.107 249.71 577.622 250.224C578.183 250.739 578.862 251.114 579.658 251.348C580.453 251.582 581.343 251.699 582.325 251.699C583.776 251.699 585.087 251.348 586.257 250.646C587.427 249.944 588.34 248.984 588.995 247.767C589.65 246.504 589.978 245.1 589.978 243.555V222.073H599.736V259H591.733L591.031 253.945H590.539C589.65 255.115 588.597 256.145 587.38 257.034C586.21 257.924 584.876 258.602 583.378 259.07C581.881 259.585 580.243 259.842 578.464 259.842Z" fill="#00ADEF"/>
<path d="M632.232 259.842C631.015 259.842 629.704 259.702 628.3 259.421C626.943 259.14 625.656 258.649 624.439 257.947C623.222 257.198 622.216 256.145 621.42 254.788C620.671 253.384 620.297 251.605 620.297 249.452C620.297 246.878 620.859 244.749 621.982 243.064C623.105 241.379 624.696 240.068 626.756 239.132C628.862 238.149 631.366 237.471 634.268 237.096C637.169 236.722 640.375 236.535 643.886 236.535V233.797C643.886 232.72 643.698 231.784 643.324 230.989C642.996 230.193 642.388 229.561 641.499 229.093C640.656 228.625 639.463 228.391 637.918 228.391C636.374 228.391 635.11 228.578 634.127 228.953C633.191 229.327 632.513 229.819 632.091 230.427C631.717 230.989 631.53 231.62 631.53 232.322V233.165H622.052C622.005 232.931 621.982 232.72 621.982 232.533C621.982 232.299 621.982 232.018 621.982 231.691C621.982 229.538 622.637 227.689 623.948 226.144C625.258 224.553 627.107 223.336 629.494 222.494C631.881 221.651 634.665 221.23 637.848 221.23C641.265 221.23 644.12 221.675 646.413 222.564C648.753 223.453 650.532 224.764 651.748 226.496C653.012 228.227 653.644 230.404 653.644 233.024V249.803C653.644 250.646 653.878 251.278 654.346 251.699C654.861 252.073 655.422 252.26 656.031 252.26H658.348V258.649C657.88 258.883 657.154 259.117 656.171 259.351C655.188 259.632 653.995 259.772 652.591 259.772C651.234 259.772 650.017 259.562 648.94 259.14C647.911 258.766 647.045 258.228 646.343 257.526C645.641 256.777 645.149 255.888 644.868 254.858H644.377C643.581 255.841 642.599 256.707 641.428 257.456C640.305 258.204 638.971 258.789 637.427 259.211C635.929 259.632 634.197 259.842 632.232 259.842ZM635.531 252.471C636.842 252.471 638.012 252.284 639.041 251.909C640.071 251.488 640.937 250.95 641.639 250.295C642.341 249.593 642.879 248.75 643.254 247.767C643.675 246.784 643.886 245.731 643.886 244.608V242.572C641.265 242.572 638.924 242.759 636.865 243.134C634.806 243.461 633.168 244.047 631.951 244.889C630.781 245.731 630.196 246.901 630.196 248.399C630.196 249.242 630.406 249.967 630.828 250.576C631.249 251.184 631.857 251.652 632.653 251.98C633.449 252.307 634.408 252.471 635.531 252.471ZM663.197 259V208.242H672.956V259H663.197ZM698.131 259.842C694.199 259.842 690.9 259.164 688.232 257.807C685.564 256.402 683.528 254.273 682.124 251.418C680.767 248.516 680.088 244.889 680.088 240.536C680.088 236.09 680.767 232.463 682.124 229.655C683.528 226.8 685.564 224.67 688.232 223.266C690.947 221.862 694.246 221.16 698.131 221.16C700.658 221.16 702.928 221.464 704.941 222.073C707 222.681 708.778 223.617 710.276 224.881C711.774 226.144 712.897 227.712 713.646 229.584C714.442 231.41 714.839 233.586 714.839 236.113H705.081C705.081 234.429 704.824 233.048 704.309 231.971C703.794 230.895 702.998 230.076 701.922 229.514C700.892 228.953 699.582 228.672 697.99 228.672C696.118 228.672 694.597 229.093 693.427 229.936C692.257 230.778 691.391 232.018 690.83 233.656C690.268 235.294 689.987 237.33 689.987 239.764V241.379C689.987 243.766 690.268 245.778 690.83 247.416C691.438 249.054 692.351 250.295 693.568 251.137C694.784 251.933 696.376 252.331 698.341 252.331C699.933 252.331 701.243 252.05 702.273 251.488C703.349 250.927 704.168 250.084 704.73 248.961C705.292 247.838 705.572 246.48 705.572 244.889H714.839C714.839 247.276 714.442 249.405 713.646 251.278C712.897 253.15 711.774 254.718 710.276 255.981C708.825 257.245 707.07 258.204 705.011 258.86C702.952 259.515 700.658 259.842 698.131 259.842ZM731.916 259.842C730.699 259.842 729.389 259.702 727.985 259.421C726.627 259.14 725.34 258.649 724.123 257.947C722.906 257.198 721.9 256.145 721.105 254.788C720.356 253.384 719.981 251.605 719.981 249.452C719.981 246.878 720.543 244.749 721.666 243.064C722.789 241.379 724.381 240.068 726.44 239.132C728.546 238.149 731.05 237.471 733.952 237.096C736.854 236.722 740.06 236.535 743.57 236.535V233.797C743.57 232.72 743.383 231.784 743.008 230.989C742.681 230.193 742.072 229.561 741.183 229.093C740.341 228.625 739.147 228.391 737.603 228.391C736.058 228.391 734.794 228.578 733.812 228.953C732.875 229.327 732.197 229.819 731.776 230.427C731.401 230.989 731.214 231.62 731.214 232.322V233.165H721.736C721.69 232.931 721.666 232.72 721.666 232.533C721.666 232.299 721.666 232.018 721.666 231.691C721.666 229.538 722.321 227.689 723.632 226.144C724.942 224.553 726.791 223.336 729.178 222.494C731.565 221.651 734.35 221.23 737.532 221.23C740.949 221.23 743.804 221.675 746.097 222.564C748.437 223.453 750.216 224.764 751.433 226.496C752.696 228.227 753.328 230.404 753.328 233.024V249.803C753.328 250.646 753.562 251.278 754.03 251.699C754.545 252.073 755.107 252.26 755.715 252.26H758.032V258.649C757.564 258.883 756.838 259.117 755.856 259.351C754.873 259.632 753.679 259.772 752.275 259.772C750.918 259.772 749.701 259.562 748.625 259.14C747.595 258.766 746.729 258.228 746.027 257.526C745.325 256.777 744.834 255.888 744.553 254.858H744.061C743.266 255.841 742.283 256.707 741.113 257.456C739.989 258.204 738.656 258.789 737.111 259.211C735.613 259.632 733.882 259.842 731.916 259.842ZM735.216 252.471C736.526 252.471 737.696 252.284 738.726 251.909C739.755 251.488 740.621 250.95 741.323 250.295C742.025 249.593 742.564 248.75 742.938 247.767C743.359 246.784 743.57 245.731 743.57 244.608V242.572C740.949 242.572 738.609 242.759 736.549 243.134C734.49 243.461 732.852 244.047 731.635 244.889C730.465 245.731 729.88 246.901 729.88 248.399C729.88 249.242 730.091 249.967 730.512 250.576C730.933 251.184 731.542 251.652 732.337 251.98C733.133 252.307 734.092 252.471 735.216 252.471ZM762.882 259V222.073H770.955L771.727 227.127H772.219C773.061 225.91 774.067 224.857 775.237 223.968C776.454 223.079 777.812 222.4 779.309 221.932C780.807 221.464 782.445 221.23 784.224 221.23C786.657 221.23 788.787 221.675 790.612 222.564C792.437 223.453 793.842 224.857 794.824 226.776C795.854 228.695 796.369 231.199 796.369 234.288V259H786.61V235.833C786.61 234.663 786.47 233.68 786.189 232.884C785.908 232.042 785.487 231.363 784.926 230.848C784.411 230.287 783.756 229.889 782.96 229.655C782.164 229.421 781.275 229.304 780.292 229.304C778.841 229.304 777.531 229.655 776.361 230.357C775.191 231.059 774.278 232.018 773.623 233.235C772.967 234.452 772.64 235.856 772.64 237.447V259H762.882ZM821.331 259.842C817.399 259.842 814.1 259.164 811.432 257.807C808.764 256.402 806.728 254.273 805.324 251.418C803.967 248.516 803.288 244.889 803.288 240.536C803.288 236.09 803.967 232.463 805.324 229.655C806.728 226.8 808.764 224.67 811.432 223.266C814.147 221.862 817.446 221.16 821.331 221.16C823.858 221.16 826.128 221.464 828.141 222.073C830.2 222.681 831.978 223.617 833.476 224.881C834.974 226.144 836.097 227.712 836.846 229.584C837.642 231.41 838.039 233.586 838.039 236.113H828.281C828.281 234.429 828.024 233.048 827.509 231.971C826.994 230.895 826.198 230.076 825.122 229.514C824.092 228.953 822.782 228.672 821.19 228.672C819.318 228.672 817.797 229.093 816.627 229.936C815.457 230.778 814.591 232.018 814.03 233.656C813.468 235.294 813.187 237.33 813.187 239.764V241.379C813.187 243.766 813.468 245.778 814.03 247.416C814.638 249.054 815.551 250.295 816.768 251.137C817.984 251.933 819.576 252.331 821.541 252.331C823.133 252.331 824.443 252.05 825.473 251.488C826.549 250.927 827.368 250.084 827.93 248.961C828.492 247.838 828.772 246.48 828.772 244.889H838.039C838.039 247.276 837.642 249.405 836.846 251.278C836.097 253.15 834.974 254.718 833.476 255.981C832.025 257.245 830.27 258.204 828.211 258.86C826.151 259.515 823.858 259.842 821.331 259.842ZM862.136 259.842C858.065 259.842 854.648 259.164 851.887 257.807C849.125 256.402 847.042 254.273 845.638 251.418C844.234 248.563 843.532 244.936 843.532 240.536C843.532 236.09 844.234 232.463 845.638 229.655C847.042 226.8 849.102 224.694 851.816 223.336C854.578 221.932 857.948 221.23 861.926 221.23C865.67 221.23 868.829 221.909 871.403 223.266C873.977 224.577 875.92 226.636 877.23 229.444C878.541 232.205 879.196 235.786 879.196 240.185V242.713H853.431C853.525 244.866 853.852 246.691 854.414 248.189C855.022 249.686 855.935 250.81 857.152 251.558C858.416 252.26 860.077 252.611 862.136 252.611C863.26 252.611 864.266 252.471 865.155 252.19C866.091 251.909 866.887 251.488 867.542 250.927C868.197 250.365 868.712 249.663 869.087 248.82C869.461 247.978 869.648 247.019 869.648 245.942H879.196C879.196 248.282 878.775 250.318 877.932 252.05C877.09 253.781 875.92 255.232 874.422 256.402C872.924 257.526 871.122 258.392 869.016 259C866.957 259.562 864.664 259.842 862.136 259.842ZM853.571 236.535H869.157C869.157 235.131 868.97 233.914 868.595 232.884C868.268 231.854 867.799 231.012 867.191 230.357C866.583 229.701 865.834 229.233 864.945 228.953C864.102 228.625 863.143 228.461 862.066 228.461C860.288 228.461 858.79 228.765 857.573 229.374C856.403 229.936 855.49 230.825 854.835 232.042C854.227 233.212 853.805 234.709 853.571 236.535Z" fill="#242D7F"/>
<g opacity="0.4">
<path d="M209.035 17.3764L191.13 21.917L195.671 39.822L213.576 35.2813L209.035 17.3764Z" fill="white"/>
</g>
<g opacity="0.4">
<path d="M283.699 263.89L258.684 265.372L260.166 290.386L285.18 288.904L283.699 263.89Z" fill="white"/>
</g>
<g opacity="0.4">
<path d="M214.882 57.4749L187.288 64.4727L194.286 92.0668L221.88 85.069L214.882 57.4749Z" fill="white"/>
</g>
<g opacity="0.4">
<path d="M251.175 267.261C96.4553 273.552 26.6848 252.484 22.7688 229.874C21.0483 219.973 25.8298 211.877 47.7743 195.918C48.8087 195.168 58.4668 187.938 59.364 187.273L65.7288 182.513L60.7995 175.916L57.6857 171.746L52.3131 164.558L37.7256 175.441C9.78578 195.559 -2.7328 215.171 0.49712 233.759C8.67747 280.751 113.249 291 202.895 291L252.399 289.892L251.185 267.261H251.175Z" fill="white"/>
</g>
<g opacity="0.4">
<path d="M1001.39 104.456L983.206 89.7634C987.945 84.3907 991.65 78.2159 990.921 72.5794C988.842 56.4509 947.972 34.7281 839.611 26.6005C739.6 19.1062 608.471 24.8167 470.419 42.6868C404.11 51.2788 338.9 62.3829 278.619 75.3448H278.597C273.13 76.5165 267.683 77.7092 262.3 78.9125C262.247 78.9125 262.205 78.8914 262.131 78.8598L254.394 80.5486L252.104 69.8878L270.48 65.2223L267.578 53.8015C269.72 53.316 271.874 52.8515 274.048 52.3871C334.889 39.3513 400.617 28.1521 467.432 19.4862C607.004 1.42613 739.822 -4.33706 841.363 3.27331C951.381 11.5275 1009.51 33.8309 1014.15 69.5816C1015.64 81.1503 1011.35 92.835 1001.39 104.456Z" fill="white"/>
</g>
<g opacity="0.4">
<path d="M253.754 28.585L221.843 36.6777L229.935 68.5895L261.847 60.4968L253.754 28.585Z" fill="white"/>
</g>
<path d="M138.844 159.262C133.976 159.262 129.813 158.421 126.355 156.737C122.897 155.008 120.258 152.347 118.439 148.752C116.664 145.158 115.777 140.585 115.777 135.035C115.777 126.845 117.779 120.771 121.783 116.813C125.832 112.809 131.519 110.807 138.844 110.807C142.848 110.807 146.443 111.489 149.627 112.854C152.812 114.219 155.315 116.267 157.135 118.997C159 121.726 159.933 125.162 159.933 129.302H149.696C149.696 127.118 149.241 125.275 148.331 123.774C147.466 122.272 146.215 121.135 144.577 120.362C142.985 119.543 141.119 119.133 138.981 119.133C136.069 119.133 133.658 119.702 131.747 120.839C129.881 121.977 128.494 123.66 127.584 125.89C126.719 128.073 126.287 130.758 126.287 133.943V136.058C126.287 139.334 126.742 142.087 127.652 144.316C128.562 146.5 129.927 148.161 131.747 149.298C133.612 150.39 136.001 150.936 138.913 150.936C141.188 150.936 143.167 150.549 144.85 149.776C146.534 149.003 147.83 147.865 148.74 146.364C149.65 144.862 150.105 143.02 150.105 140.836H159.933C159.933 144.976 159.023 148.411 157.203 151.141C155.428 153.871 152.949 155.918 149.764 157.283C146.579 158.603 142.939 159.262 138.844 159.262ZM183.642 159.262C179.729 159.262 176.407 158.603 173.678 157.283C170.948 155.918 168.878 153.848 167.467 151.073C166.057 148.252 165.351 144.726 165.351 140.494C165.351 136.172 166.057 132.646 167.467 129.916C168.878 127.141 170.948 125.093 173.678 123.774C176.407 122.409 179.729 121.726 183.642 121.726C187.645 121.726 190.99 122.409 193.674 123.774C196.404 125.093 198.474 127.141 199.884 129.916C201.295 132.646 202 136.172 202 140.494C202 144.726 201.295 148.252 199.884 151.073C198.474 153.848 196.404 155.918 193.674 157.283C190.99 158.603 187.645 159.262 183.642 159.262ZM183.642 151.892C185.735 151.892 187.395 151.505 188.624 150.731C189.898 149.958 190.83 148.775 191.422 147.183C192.013 145.59 192.309 143.634 192.309 141.313V139.675C192.309 137.355 192.013 135.399 191.422 133.806C190.83 132.214 189.898 131.031 188.624 130.257C187.395 129.438 185.735 129.029 183.642 129.029C181.594 129.029 179.934 129.438 178.66 130.257C177.431 131.031 176.521 132.214 175.93 133.806C175.338 135.399 175.043 137.355 175.043 139.675V141.313C175.043 143.634 175.338 145.59 175.93 147.183C176.521 148.775 177.431 149.958 178.66 150.731C179.934 151.505 181.594 151.892 183.642 151.892ZM208.98 158.443V122.545H216.829L217.58 127.459H218.057C218.876 126.276 219.854 125.253 220.992 124.388C222.175 123.524 223.494 122.864 224.95 122.409C226.406 121.954 227.999 121.726 229.728 121.726C232.093 121.726 234.164 122.159 235.938 123.023C237.712 123.888 239.077 125.253 240.033 127.118C241.034 128.983 241.534 131.418 241.534 134.42V158.443H232.048V135.922C232.048 134.784 231.911 133.829 231.638 133.055C231.365 132.237 230.956 131.577 230.41 131.076C229.91 130.53 229.273 130.144 228.499 129.916C227.726 129.689 226.861 129.575 225.906 129.575C224.495 129.575 223.221 129.916 222.084 130.599C220.946 131.281 220.059 132.214 219.422 133.397C218.785 134.58 218.467 135.945 218.467 137.492V158.443H208.98ZM266.346 159.262C262.388 159.262 259.067 158.603 256.382 157.283C253.698 155.918 251.673 153.848 250.308 151.073C248.943 148.297 248.261 144.771 248.261 140.494C248.261 136.172 248.943 132.646 250.308 129.916C251.673 127.141 253.675 125.093 256.314 123.774C258.998 122.409 262.274 121.726 266.142 121.726C269.781 121.726 272.853 122.386 275.355 123.706C277.857 124.98 279.745 126.981 281.019 129.711C282.293 132.396 282.93 135.876 282.93 140.153V142.61H257.884C257.975 144.703 258.293 146.477 258.839 147.933C259.431 149.389 260.318 150.481 261.501 151.209C262.729 151.892 264.344 152.233 266.346 152.233C267.438 152.233 268.416 152.096 269.281 151.823C270.191 151.55 270.964 151.141 271.601 150.595C272.238 150.049 272.739 149.367 273.103 148.548C273.467 147.729 273.649 146.796 273.649 145.749H282.93C282.93 148.024 282.521 150.003 281.702 151.687C280.883 153.37 279.745 154.781 278.29 155.918C276.834 157.01 275.082 157.852 273.035 158.443C271.033 158.989 268.803 159.262 266.346 159.262ZM258.02 136.604H273.171C273.171 135.239 272.989 134.056 272.625 133.055C272.307 132.055 271.852 131.236 271.26 130.599C270.669 129.962 269.941 129.507 269.076 129.234C268.257 128.915 267.325 128.756 266.278 128.756C264.549 128.756 263.093 129.052 261.91 129.643C260.773 130.189 259.886 131.054 259.249 132.237C258.657 133.374 258.248 134.83 258.02 136.604ZM305.656 159.262C301.834 159.262 298.626 158.603 296.033 157.283C293.439 155.918 291.46 153.848 290.095 151.073C288.776 148.252 288.116 144.726 288.116 140.494C288.116 136.172 288.776 132.646 290.095 129.916C291.46 127.141 293.439 125.071 296.033 123.706C298.672 122.341 301.879 121.658 305.656 121.658C308.112 121.658 310.319 121.954 312.275 122.545C314.277 123.137 316.006 124.047 317.462 125.275C318.918 126.504 320.01 128.028 320.738 129.848C321.512 131.622 321.898 133.738 321.898 136.195H312.412C312.412 134.557 312.162 133.215 311.661 132.168C311.161 131.122 310.387 130.326 309.341 129.78C308.34 129.234 307.066 128.961 305.519 128.961C303.699 128.961 302.22 129.37 301.083 130.189C299.946 131.008 299.104 132.214 298.558 133.806C298.012 135.399 297.739 137.378 297.739 139.744V141.313C297.739 143.634 298.012 145.59 298.558 147.183C299.149 148.775 300.037 149.981 301.219 150.8C302.402 151.573 303.949 151.96 305.86 151.96C307.407 151.96 308.681 151.687 309.682 151.141C310.729 150.595 311.525 149.776 312.071 148.684C312.617 147.592 312.89 146.273 312.89 144.726H321.898C321.898 147.046 321.512 149.116 320.738 150.936C320.01 152.756 318.918 154.28 317.462 155.509C316.052 156.737 314.346 157.67 312.344 158.307C310.342 158.944 308.112 159.262 305.656 159.262ZM339.727 159.262C337.452 159.262 335.61 158.853 334.199 158.034C332.789 157.215 331.765 156.123 331.128 154.758C330.491 153.348 330.173 151.801 330.173 150.117V129.848H325.737V122.545H330.514L332.288 112.308H339.659V122.545H346.211V129.848H339.659V148.548C339.659 149.639 339.909 150.481 340.41 151.073C340.91 151.619 341.729 151.892 342.867 151.892H346.211V158.17C345.665 158.352 345.028 158.512 344.3 158.648C343.572 158.83 342.798 158.967 341.979 159.058C341.16 159.194 340.41 159.262 339.727 159.262ZM352.339 117.29V109.101H361.825V117.29H352.339ZM352.339 158.443V122.545H361.825V158.443H352.339ZM379.815 158.443L366.439 122.545H376.471L381.726 137.696C381.999 138.47 382.318 139.493 382.682 140.767C383.091 142.041 383.501 143.384 383.91 144.794C384.32 146.204 384.661 147.478 384.934 148.616H385.275C385.594 147.569 385.935 146.364 386.299 144.999C386.663 143.588 387.027 142.246 387.391 140.972C387.8 139.653 388.142 138.561 388.415 137.696L393.67 122.545H403.224L389.78 158.443H379.815ZM407.856 117.29V109.101H417.343V117.29H407.856ZM407.856 158.443V122.545H417.343V158.443H407.856ZM438.745 159.262C435.788 159.262 433.217 158.603 431.033 157.283C428.895 155.918 427.234 153.848 426.051 151.073C424.868 148.297 424.277 144.748 424.277 140.426C424.277 136.104 424.868 132.578 426.051 129.848C427.28 127.072 428.94 125.025 431.033 123.706C433.172 122.386 435.629 121.726 438.404 121.726C439.951 121.726 441.384 121.908 442.703 122.272C444.068 122.591 445.251 123.114 446.252 123.842C447.299 124.57 448.186 125.457 448.914 126.504H449.323V109.101H458.81V158.443H451.03L450.279 153.598H449.801C448.618 155.509 447.071 156.942 445.16 157.897C443.249 158.807 441.111 159.262 438.745 159.262ZM441.748 151.482C443.522 151.482 444.956 151.073 446.048 150.254C447.185 149.435 448.027 148.252 448.573 146.705C449.119 145.158 449.392 143.315 449.392 141.177V139.948C449.392 138.356 449.232 136.9 448.914 135.581C448.641 134.261 448.186 133.169 447.549 132.305C446.912 131.395 446.116 130.712 445.16 130.257C444.205 129.757 443.067 129.507 441.748 129.507C439.837 129.507 438.313 129.893 437.175 130.667C436.038 131.395 435.219 132.532 434.719 134.079C434.218 135.581 433.968 137.469 433.968 139.744V141.313C433.968 143.588 434.218 145.476 434.719 146.978C435.219 148.479 436.038 149.617 437.175 150.39C438.313 151.118 439.837 151.482 441.748 151.482ZM477.059 159.262C475.876 159.262 474.602 159.126 473.237 158.853C471.918 158.58 470.666 158.102 469.483 157.42C468.301 156.692 467.322 155.668 466.549 154.349C465.821 152.984 465.457 151.255 465.457 149.162C465.457 146.659 466.003 144.589 467.095 142.951C468.187 141.313 469.734 140.039 471.736 139.129C473.783 138.174 476.217 137.514 479.038 137.15C481.859 136.786 484.976 136.604 488.388 136.604V133.943C488.388 132.896 488.206 131.986 487.842 131.213C487.523 130.439 486.932 129.825 486.067 129.37C485.249 128.915 484.088 128.688 482.587 128.688C481.085 128.688 479.857 128.87 478.902 129.234C477.992 129.598 477.332 130.075 476.922 130.667C476.558 131.213 476.376 131.827 476.376 132.51V133.328H467.163C467.118 133.101 467.095 132.896 467.095 132.714C467.095 132.487 467.095 132.214 467.095 131.895C467.095 129.802 467.732 128.005 469.006 126.504C470.28 124.957 472.077 123.774 474.397 122.955C476.718 122.136 479.425 121.726 482.519 121.726C485.84 121.726 488.615 122.159 490.845 123.023C493.12 123.888 494.849 125.162 496.032 126.845C497.26 128.528 497.874 130.644 497.874 133.192V149.503C497.874 150.322 498.102 150.936 498.557 151.346C499.057 151.71 499.603 151.892 500.195 151.892H502.447V158.102C501.992 158.33 501.287 158.557 500.331 158.785C499.376 159.058 498.215 159.194 496.851 159.194C495.531 159.194 494.348 158.989 493.302 158.58C492.301 158.216 491.459 157.693 490.777 157.01C490.094 156.282 489.616 155.418 489.343 154.417H488.866C488.092 155.372 487.137 156.214 485.999 156.942C484.907 157.67 483.611 158.239 482.109 158.648C480.653 159.058 478.97 159.262 477.059 159.262ZM480.266 152.096C481.54 152.096 482.678 151.914 483.679 151.55C484.68 151.141 485.522 150.618 486.204 149.981C486.886 149.298 487.41 148.479 487.774 147.524C488.183 146.568 488.388 145.545 488.388 144.453V142.474C485.84 142.474 483.565 142.656 481.563 143.02C479.561 143.338 477.969 143.907 476.786 144.726C475.648 145.545 475.08 146.682 475.08 148.138C475.08 148.957 475.284 149.662 475.694 150.254C476.103 150.845 476.695 151.3 477.468 151.619C478.242 151.937 479.175 152.096 480.266 152.096ZM519.855 159.262C516.898 159.262 514.327 158.603 512.143 157.283C510.005 155.918 508.344 153.848 507.161 151.073C505.978 148.297 505.387 144.748 505.387 140.426C505.387 136.104 505.978 132.578 507.161 129.848C508.39 127.072 510.05 125.025 512.143 123.706C514.282 122.386 516.738 121.726 519.514 121.726C521.061 121.726 522.494 121.908 523.813 122.272C525.178 122.591 526.361 123.114 527.362 123.842C528.409 124.57 529.296 125.457 530.024 126.504H530.433V109.101H539.92V158.443H532.14L531.389 153.598H530.911C529.728 155.509 528.181 156.942 526.27 157.897C524.359 158.807 522.221 159.262 519.855 159.262ZM522.858 151.482C524.632 151.482 526.066 151.073 527.158 150.254C528.295 149.435 529.137 148.252 529.683 146.705C530.229 145.158 530.502 143.315 530.502 141.177V139.948C530.502 138.356 530.342 136.9 530.024 135.581C529.751 134.261 529.296 133.169 528.659 132.305C528.022 131.395 527.226 130.712 526.27 130.257C525.315 129.757 524.177 129.507 522.858 129.507C520.947 129.507 519.423 129.893 518.285 130.667C517.148 131.395 516.329 132.532 515.829 134.079C515.328 135.581 515.078 137.469 515.078 139.744V141.313C515.078 143.588 515.328 145.476 515.829 146.978C516.329 148.479 517.148 149.617 518.285 150.39C519.423 151.118 520.947 151.482 522.858 151.482ZM567.265 171.274C565.582 171.274 564.172 171.137 563.034 170.864C561.942 170.637 561.237 170.478 560.918 170.387V163.971H565.081C566.219 163.971 567.243 163.698 568.153 163.152C569.063 162.652 569.859 161.969 570.541 161.105C571.224 160.286 571.724 159.399 572.043 158.443L557.984 122.545H568.016L574.158 139.129C574.431 139.903 574.727 140.881 575.046 142.064C575.41 143.202 575.774 144.407 576.138 145.681C576.501 146.91 576.797 148.002 577.025 148.957H577.366C577.548 148.32 577.753 147.569 577.98 146.705C578.208 145.84 578.435 144.953 578.663 144.043C578.936 143.133 579.186 142.269 579.413 141.45C579.686 140.585 579.914 139.835 580.096 139.198L585.214 122.545H594.769L582.553 156.737C581.87 158.739 581.074 160.605 580.164 162.333C579.3 164.108 578.276 165.655 577.093 166.974C575.91 168.339 574.5 169.386 572.862 170.114C571.269 170.887 569.404 171.274 567.265 171.274ZM622.079 158.443L608.703 122.545H618.735L623.99 137.696C624.263 138.47 624.581 139.493 624.945 140.767C625.355 142.041 625.764 143.384 626.174 144.794C626.583 146.204 626.924 147.478 627.197 148.616H627.539C627.857 147.569 628.198 146.364 628.562 144.999C628.926 143.588 629.29 142.246 629.654 140.972C630.064 139.653 630.405 138.561 630.678 137.696L635.933 122.545H645.488L632.043 158.443H622.079ZM666.431 159.262C662.473 159.262 659.151 158.603 656.467 157.283C653.782 155.918 651.758 153.848 650.393 151.073C649.028 148.297 648.345 144.771 648.345 140.494C648.345 136.172 649.028 132.646 650.393 129.916C651.758 127.141 653.76 125.093 656.399 123.774C659.083 122.409 662.359 121.726 666.226 121.726C669.866 121.726 672.937 122.386 675.44 123.706C677.942 124.98 679.83 126.981 681.104 129.711C682.378 132.396 683.015 135.876 683.015 140.153V142.61H657.968C658.059 144.703 658.378 146.477 658.924 147.933C659.515 149.389 660.402 150.481 661.585 151.209C662.814 151.892 664.429 152.233 666.431 152.233C667.523 152.233 668.501 152.096 669.366 151.823C670.275 151.55 671.049 151.141 671.686 150.595C672.323 150.049 672.823 149.367 673.187 148.548C673.551 147.729 673.733 146.796 673.733 145.749H683.015C683.015 148.024 682.605 150.003 681.786 151.687C680.968 153.37 679.83 154.781 678.374 155.918C676.918 157.01 675.167 157.852 673.119 158.443C671.117 158.989 668.888 159.262 666.431 159.262ZM658.105 136.604H673.256C673.256 135.239 673.074 134.056 672.71 133.055C672.391 132.055 671.936 131.236 671.345 130.599C670.753 129.962 670.025 129.507 669.161 129.234C668.342 128.915 667.409 128.756 666.363 128.756C664.634 128.756 663.178 129.052 661.995 129.643C660.857 130.189 659.97 131.054 659.333 132.237C658.742 133.374 658.332 134.83 658.105 136.604ZM689.975 158.443V109.101H699.461V158.443H689.975ZM724.686 159.262C720.773 159.262 717.451 158.603 714.722 157.283C711.992 155.918 709.921 153.848 708.511 151.073C707.101 148.252 706.395 144.726 706.395 140.494C706.395 136.172 707.101 132.646 708.511 129.916C709.921 127.141 711.992 125.093 714.722 123.774C717.451 122.409 720.773 121.726 724.686 121.726C728.689 121.726 732.034 122.409 734.718 123.774C737.448 125.093 739.518 127.141 740.928 129.916C742.339 132.646 743.044 136.172 743.044 140.494C743.044 144.726 742.339 148.252 740.928 151.073C739.518 153.848 737.448 155.918 734.718 157.283C732.034 158.603 728.689 159.262 724.686 159.262ZM724.686 151.892C726.778 151.892 728.439 151.505 729.668 150.731C730.942 149.958 731.874 148.775 732.466 147.183C733.057 145.59 733.353 143.634 733.353 141.313V139.675C733.353 137.355 733.057 135.399 732.466 133.806C731.874 132.214 730.942 131.031 729.668 130.257C728.439 129.438 726.778 129.029 724.686 129.029C722.638 129.029 720.977 129.438 719.704 130.257C718.475 131.031 717.565 132.214 716.974 133.806C716.382 135.399 716.086 137.355 716.086 139.675V141.313C716.086 143.634 716.382 145.59 716.974 147.183C717.565 148.775 718.475 149.958 719.704 150.731C720.977 151.505 722.638 151.892 724.686 151.892ZM765.789 159.262C761.968 159.262 758.76 158.603 756.167 157.283C753.573 155.918 751.594 153.848 750.229 151.073C748.91 148.252 748.25 144.726 748.25 140.494C748.25 136.172 748.91 132.646 750.229 129.916C751.594 127.141 753.573 125.071 756.167 123.706C758.806 122.341 762.013 121.658 765.789 121.658C768.246 121.658 770.453 121.954 772.409 122.545C774.411 123.137 776.14 124.047 777.596 125.275C779.052 126.504 780.144 128.028 780.872 129.848C781.646 131.622 782.032 133.738 782.032 136.195H772.546C772.546 134.557 772.296 133.215 771.795 132.168C771.295 131.122 770.521 130.326 769.475 129.78C768.474 129.234 767.2 128.961 765.653 128.961C763.833 128.961 762.354 129.37 761.217 130.189C760.079 131.008 759.238 132.214 758.692 133.806C758.146 135.399 757.873 137.378 757.873 139.744V141.313C757.873 143.634 758.146 145.59 758.692 147.183C759.283 148.775 760.17 149.981 761.353 150.8C762.536 151.573 764.083 151.96 765.994 151.96C767.541 151.96 768.815 151.687 769.816 151.141C770.863 150.595 771.659 149.776 772.205 148.684C772.751 147.592 773.024 146.273 773.024 144.726H782.032C782.032 147.046 781.646 149.116 780.872 150.936C780.144 152.756 779.052 154.28 777.596 155.509C776.186 156.737 774.48 157.67 772.478 158.307C770.476 158.944 768.246 159.262 765.789 159.262ZM789.146 117.29V109.101H798.633V117.29H789.146ZM789.146 158.443V122.545H798.633V158.443H789.146ZM820.035 159.262C817.078 159.262 814.507 158.603 812.323 157.283C810.185 155.918 808.524 153.848 807.341 151.073C806.158 148.297 805.567 144.748 805.567 140.426C805.567 136.104 806.158 132.578 807.341 129.848C808.57 127.072 810.23 125.025 812.323 123.706C814.462 122.386 816.919 121.726 819.694 121.726C821.241 121.726 822.674 121.908 823.994 122.272C825.358 122.591 826.541 123.114 827.542 123.842C828.589 124.57 829.476 125.457 830.204 126.504H830.613V109.101H840.1V158.443H832.32L831.569 153.598H831.091C829.908 155.509 828.361 156.942 826.45 157.897C824.539 158.807 822.401 159.262 820.035 159.262ZM823.038 151.482C824.812 151.482 826.246 151.073 827.338 150.254C828.475 149.435 829.317 148.252 829.863 146.705C830.409 145.158 830.682 143.315 830.682 141.177V139.948C830.682 138.356 830.522 136.9 830.204 135.581C829.931 134.261 829.476 133.169 828.839 132.305C828.202 131.395 827.406 130.712 826.45 130.257C825.495 129.757 824.358 129.507 823.038 129.507C821.127 129.507 819.603 129.893 818.466 130.667C817.328 131.395 816.509 132.532 816.009 134.079C815.508 135.581 815.258 137.469 815.258 139.744V141.313C815.258 143.588 815.508 145.476 816.009 146.978C816.509 148.479 817.328 149.617 818.466 150.39C819.603 151.118 821.127 151.482 823.038 151.482ZM858.349 159.262C857.166 159.262 855.892 159.126 854.527 158.853C853.208 158.58 851.956 158.102 850.774 157.42C849.591 156.692 848.612 155.668 847.839 154.349C847.111 152.984 846.747 151.255 846.747 149.162C846.747 146.659 847.293 144.589 848.385 142.951C849.477 141.313 851.024 140.039 853.026 139.129C855.073 138.174 857.507 137.514 860.328 137.15C863.149 136.786 866.266 136.604 869.678 136.604V133.943C869.678 132.896 869.496 131.986 869.132 131.213C868.813 130.439 868.222 129.825 867.358 129.37C866.539 128.915 865.378 128.688 863.877 128.688C862.376 128.688 861.147 128.87 860.192 129.234C859.282 129.598 858.622 130.075 858.212 130.667C857.848 131.213 857.666 131.827 857.666 132.51V133.328H848.453C848.408 133.101 848.385 132.896 848.385 132.714C848.385 132.487 848.385 132.214 848.385 131.895C848.385 129.802 849.022 128.005 850.296 126.504C851.57 124.957 853.367 123.774 855.687 122.955C858.008 122.136 860.715 121.726 863.809 121.726C867.13 121.726 869.905 122.159 872.135 123.023C874.41 123.888 876.139 125.162 877.322 126.845C878.55 128.528 879.164 130.644 879.164 133.192V149.503C879.164 150.322 879.392 150.936 879.847 151.346C880.347 151.71 880.893 151.892 881.485 151.892H883.737V158.102C883.282 158.33 882.577 158.557 881.621 158.785C880.666 159.058 879.506 159.194 878.141 159.194C876.821 159.194 875.638 158.989 874.592 158.58C873.591 158.216 872.749 157.693 872.067 157.01C871.384 156.282 870.906 155.418 870.633 154.417H870.156C869.382 155.372 868.427 156.214 867.289 156.942C866.197 157.67 864.901 158.239 863.399 158.648C861.943 159.058 860.26 159.262 858.349 159.262ZM861.557 152.096C862.831 152.096 863.968 151.914 864.969 151.55C865.97 151.141 866.812 150.618 867.494 149.981C868.177 149.298 868.7 148.479 869.064 147.524C869.473 146.568 869.678 145.545 869.678 144.453V142.474C867.13 142.474 864.855 142.656 862.853 143.02C860.851 143.338 859.259 143.907 858.076 144.726C856.939 145.545 856.37 146.682 856.37 148.138C856.37 148.957 856.575 149.662 856.984 150.254C857.393 150.845 857.985 151.3 858.758 151.619C859.532 151.937 860.465 152.096 861.557 152.096ZM901.145 159.262C898.188 159.262 895.617 158.603 893.433 157.283C891.295 155.918 889.634 153.848 888.451 151.073C887.268 148.297 886.677 144.748 886.677 140.426C886.677 136.104 887.268 132.578 888.451 129.848C889.68 127.072 891.34 125.025 893.433 123.706C895.572 122.386 898.029 121.726 900.804 121.726C902.351 121.726 903.784 121.908 905.103 122.272C906.468 122.591 907.651 123.114 908.652 123.842C909.699 124.57 910.586 125.457 911.314 126.504H911.723V109.101H921.21V158.443H913.43L912.679 153.598H912.201C911.018 155.509 909.471 156.942 907.56 157.897C905.649 158.807 903.511 159.262 901.145 159.262ZM904.148 151.482C905.922 151.482 907.356 151.073 908.448 150.254C909.585 149.435 910.427 148.252 910.973 146.705C911.519 145.158 911.792 143.315 911.792 141.177V139.948C911.792 138.356 911.632 136.9 911.314 135.581C911.041 134.261 910.586 133.169 909.949 132.305C909.312 131.395 908.516 130.712 907.56 130.257C906.605 129.757 905.467 129.507 904.148 129.507C902.237 129.507 900.713 129.893 899.575 130.667C898.438 131.395 897.619 132.532 897.119 134.079C896.618 135.581 896.368 137.469 896.368 139.744V141.313C896.368 143.588 896.618 145.476 897.119 146.978C897.619 148.479 898.438 149.617 899.575 150.39C900.713 151.118 902.237 151.482 904.148 151.482Z" fill="white"/>
</svg>
