<svg width="166" height="43" viewBox="0 0 166 43" fill="none" xmlns="http://www.w3.org/2000/svg">
<g clip-path="url(#clip0_75_238)">
<path d="M12.7014 35.1093V10.0361H20.8839V35.1093H12.7014Z" fill="#242D7F"/>
<path d="M25.0358 35.1089V15.8663H31.072L31.5537 18.7816H31.8125C32.3303 18.0302 32.9365 17.4013 33.628 16.9047C34.3194 16.4081 35.0829 16.0372 35.9251 15.7921C36.764 15.5503 37.6291 15.4277 38.5172 15.4277C40.0737 15.4277 41.3484 15.7147 42.3512 16.2855C43.3507 16.8563 44.0978 17.6754 44.5926 18.7461C45.0874 19.8167 45.3332 21.1164 45.3332 22.6449V35.1089H37.9634V23.5189C37.9634 23.1061 37.9076 22.7352 37.7962 22.4063C37.6848 22.0774 37.5308 21.7936 37.3342 21.5485C37.1376 21.3066 36.882 21.1164 36.5739 20.9841C36.2659 20.8519 35.9022 20.7842 35.4827 20.7842C34.8666 20.7842 34.3292 20.9229 33.8705 21.2034C33.415 21.484 33.0545 21.8484 32.7956 22.2966C32.5367 22.7449 32.4057 23.2512 32.4057 23.8091V35.1057H25.0358V35.1089Z" fill="#242D7F"/>
<path d="M51.9952 42.765C51.1072 42.765 50.2847 42.5586 49.531 42.1458C48.7773 41.733 48.1809 41.1687 47.7352 40.4495C47.2895 39.7336 47.07 38.9371 47.07 38.0632C47.07 37.0667 47.3846 36.1928 48.0137 35.4381C48.6429 34.6868 49.3638 34.1256 50.1798 33.7612C49.5867 33.3484 49.1181 32.8518 48.774 32.2681C48.4266 31.6844 48.2562 31.0524 48.2562 30.3719C48.2562 29.4012 48.62 28.5305 49.3474 27.7663C50.0749 27.002 50.9597 26.4957 51.9952 26.2538C51.1072 25.6959 50.36 25.0219 49.7538 24.2318C49.1476 23.4417 48.8461 22.5872 48.8461 21.6616C48.8461 20.0589 49.3016 18.8077 50.2158 17.9079C51.1301 17.0082 52.3524 16.3729 53.8827 15.9956C55.4131 15.6183 57.0909 15.4312 58.9194 15.4312C59.66 15.4312 60.2826 15.4506 60.7905 15.4861C61.2952 15.5215 61.7474 15.5764 62.1406 15.6505C63.2253 14.9959 63.979 14.3509 64.3984 13.7189C64.8179 13.0868 65.0276 12.6031 65.0276 12.2612H71.0998C71.0998 13.3061 70.9196 14.1703 70.5624 14.8476C70.2052 15.528 69.6841 16.0762 69.0058 16.489C68.3275 16.9018 67.5181 17.2307 66.5809 17.4726C67.2953 18.0079 67.8589 18.6335 68.2652 19.3494C68.6716 20.0653 68.8747 20.8264 68.8747 21.6262C68.8747 23.0612 68.4913 24.2318 67.7278 25.1412C66.961 26.0539 65.955 26.7279 64.7098 27.1632C63.4612 27.6018 62.1111 27.8179 60.6562 27.8179H57.8413C57.0024 27.8179 56.4027 27.9146 56.0455 28.1081C55.6883 28.3016 55.5081 28.5563 55.5081 28.8724C55.5081 29.1884 55.6621 29.4561 55.9701 29.6754C56.2782 29.8946 56.9008 30.0043 57.8413 30.0043H64.5066C66.7775 30.0043 68.4455 30.5815 69.5072 31.736C70.5689 32.8905 71.0998 34.3675 71.0998 36.1637C71.0998 37.5246 70.7164 38.6952 69.9529 39.682C69.1861 40.6656 68.18 41.4267 66.9348 41.9588C65.6863 42.4941 64.3362 42.7618 62.8812 42.7618H51.9919L51.9952 42.765ZM55.9931 38.7178H61.7703C62.1406 38.7178 62.4749 38.6436 62.7698 38.4985C63.0647 38.3534 63.3007 38.1406 63.4743 37.86C63.648 37.5794 63.7332 37.2602 63.7332 36.8958C63.7332 36.3379 63.5432 35.8993 63.1598 35.5833C62.7764 35.2672 62.3143 35.1092 61.7703 35.1092H55.9931C55.4491 35.1092 54.9936 35.2608 54.6233 35.5639C54.253 35.867 54.0662 36.2992 54.0662 36.8571C54.0662 37.415 54.253 37.8664 54.6233 38.2051C54.9936 38.5437 55.4491 38.7146 55.9931 38.7146V38.7178ZM58.844 24.0319C59.7091 24.0319 60.4006 23.8384 60.9183 23.4482C61.4361 23.0612 61.695 22.4517 61.695 21.6262C61.695 20.8006 61.4361 20.1943 60.9183 19.8041C60.4006 19.4171 59.7091 19.2204 58.844 19.2204C58.0772 19.2204 57.4251 19.4139 56.8811 19.8041C56.3372 20.1943 56.0652 20.8006 56.0652 21.6262C56.0652 22.1615 56.1766 22.6097 56.3994 22.9741C56.6223 23.3386 56.9434 23.6062 57.3628 23.7771C57.7823 23.948 58.2771 24.0319 58.844 24.0319Z" fill="#242D7F"/>
<path d="M82.2938 35.5477C79.9475 35.5477 77.9158 35.1897 76.202 34.4738C74.4849 33.7579 73.1643 32.6582 72.2402 31.1748C71.3128 29.6946 70.8507 27.7984 70.8507 25.4894C70.8507 23.1804 71.3062 21.3584 72.2205 19.8782C73.1348 18.398 74.4128 17.2854 76.0545 16.5437C77.6963 15.802 79.6297 15.4312 81.8514 15.4312C84.1977 15.4312 86.1901 15.7891 87.8318 16.505C89.4736 17.2209 90.7254 18.3206 91.5905 19.804C92.4556 21.2875 92.8849 23.1804 92.8849 25.4894V26.7278H78.2206C78.2206 27.6017 78.3517 28.3563 78.6105 28.9884C78.8694 29.6204 79.2889 30.1009 79.8689 30.4267C80.4489 30.7556 81.2091 30.9201 82.1463 30.9201C82.8116 30.9201 83.3752 30.8459 83.8307 30.7008C84.2862 30.5556 84.6565 30.3557 84.9416 30.1009C85.2267 29.8462 85.4298 29.5495 85.5511 29.2077C85.6756 28.8691 85.7346 28.5047 85.7346 28.1144H92.8816C92.8816 29.256 92.6588 30.288 92.2164 31.2135C91.7707 32.1358 91.1055 32.9195 90.2175 33.5644C89.3294 34.2094 88.2218 34.6996 86.9045 35.0414C85.5839 35.38 84.047 35.5509 82.2938 35.5509V35.5477ZM78.2566 23.303H85.4397C85.4397 22.7935 85.3643 22.3388 85.2168 21.9357C85.0694 21.5358 84.8531 21.1939 84.568 20.9134C84.2829 20.6328 83.9388 20.42 83.5292 20.2749C83.1229 20.1297 82.6576 20.0556 82.1398 20.0556C81.3238 20.0556 80.6455 20.191 80.1015 20.4555C79.5576 20.7231 79.1381 21.094 78.8432 21.568C78.5483 22.0421 78.3484 22.6193 78.2501 23.2998L78.2566 23.303Z" fill="#242D7F"/>
<path d="M95.7325 35.1089V15.8663H101.769L102.25 18.7816H102.509C103.027 18.0302 103.633 17.4013 104.325 16.9047C105.016 16.4081 105.78 16.0372 106.622 15.7921C107.461 15.5503 108.326 15.4277 109.214 15.4277C110.77 15.4277 112.045 15.7147 113.048 16.2855C114.047 16.8563 114.795 17.6754 115.289 18.7461C115.784 19.8167 116.03 21.1164 116.03 22.6449V35.1089H108.66V23.5189C108.66 23.1061 108.604 22.7352 108.493 22.4063C108.382 22.0774 108.228 21.7936 108.031 21.5485C107.834 21.3066 107.579 21.1164 107.271 20.9841C106.963 20.8519 106.599 20.7842 106.179 20.7842C105.563 20.7842 105.026 20.9229 104.567 21.2034C104.112 21.484 103.751 21.8484 103.492 22.2966C103.233 22.7449 103.102 23.2512 103.102 23.8091V35.1057H95.7325V35.1089Z" fill="#242D7F"/>
<path d="M129.639 35.5477C127.293 35.5477 125.261 35.1897 123.547 34.4738C121.83 33.7579 120.51 32.6582 119.585 31.1748C118.658 29.6946 118.196 27.7984 118.196 25.4894C118.196 23.1804 118.651 21.3584 119.566 19.8782C120.48 18.398 121.758 17.2854 123.4 16.5437C125.042 15.802 126.975 15.4312 129.197 15.4312C131.543 15.4312 133.535 15.7891 135.177 16.505C136.819 17.2209 138.071 18.3206 138.936 19.804C139.801 21.2875 140.23 23.1804 140.23 25.4894V26.7278H125.566C125.566 27.6017 125.697 28.3563 125.956 28.9884C126.215 29.6204 126.634 30.1009 127.214 30.4267C127.794 30.7556 128.554 30.9201 129.492 30.9201C130.157 30.9201 130.72 30.8459 131.176 30.7008C131.631 30.5556 132.002 30.3557 132.287 30.1009C132.572 29.8462 132.775 29.5495 132.896 29.2077C133.021 28.8691 133.08 28.5047 133.08 28.1144H140.227C140.227 29.256 140.004 30.288 139.562 31.2135C139.116 32.1358 138.451 32.9195 137.563 33.5644C136.675 34.2094 135.567 34.6996 134.25 35.0414C132.929 35.38 131.392 35.5509 129.639 35.5509V35.5477ZM125.605 23.303H132.788C132.788 22.7935 132.713 22.3388 132.565 21.9357C132.418 21.5358 132.202 21.1939 131.917 20.9134C131.631 20.6328 131.287 20.42 130.878 20.2749C130.471 20.1297 130.006 20.0556 129.488 20.0556C128.672 20.0556 127.994 20.191 127.45 20.4555C126.906 20.7231 126.487 21.094 126.192 21.568C125.897 22.0421 125.697 22.6193 125.599 23.2998L125.605 23.303Z" fill="#242D7F"/>
<path d="M152.722 35.5476C151.388 35.5476 150.208 35.3961 149.186 35.0929C148.16 34.7898 147.364 34.2609 146.797 33.5063C146.23 32.7549 145.945 31.7198 145.945 30.4072V20.7843H141.184V15.8632H146.243L147.836 10.0327H153.318V15.8632H157.467V20.7843H153.318V28.1079C153.318 28.9335 153.453 29.5591 153.725 29.9848C153.997 30.4105 154.55 30.6233 155.393 30.6233H157.467V34.8865C157.07 35.0091 156.582 35.122 156.005 35.2316C155.425 35.3413 154.845 35.4186 154.265 35.467C153.685 35.5154 153.174 35.5412 152.728 35.5412L152.722 35.5476Z" fill="#242D7F"/>
<path d="M42.7136 2.61472L39.9724 3.29883L40.6676 5.99647L43.4088 5.31236L42.7136 2.61472Z" fill="#00ADEF"/>
<path d="M44.9791 38.7692L41.0111 39.0005L41.2462 42.9054L45.2141 42.6741L44.9791 38.7692Z" fill="#00ADEF"/>
<path d="M43.607 8.65858L39.3824 9.71289L40.4537 13.8703L44.6783 12.816L43.607 8.65858Z" fill="#00ADEF"/>
<path d="M158.338 15.8403H153.315V20.784H158.338V15.8403Z" fill="#00ADEF"/>
<path d="M39.8214 39.2947C15.2935 40.2751 4.2338 36.989 3.61118 33.461C3.33919 31.9163 4.09617 30.6522 7.57628 28.1626C7.74012 28.0465 9.27373 26.9178 9.41464 26.8146L10.4239 26.0729L9.64403 25.0442L9.15249 24.3928L8.30048 23.2705L5.98696 24.97C1.54998 28.111 -0.432565 31.1681 0.0786373 34.0705C1.37631 41.4006 17.9543 43.0001 32.1664 43.0001L40.0147 42.8259L39.8214 39.2947Z" fill="#00ADEF"/>
<path d="M164.001 15.7371L161.219 13.5249C161.943 12.7155 162.51 11.7867 162.399 10.9354C162.081 8.50383 155.825 5.23385 139.237 4.00841C123.927 2.87972 103.856 3.74075 82.7231 6.43026C72.5744 7.72342 62.5896 9.39711 53.365 11.3481H53.3617C52.5261 11.5255 51.6905 11.7061 50.8647 11.8835C50.8581 11.8835 50.8483 11.8802 50.8385 11.877L49.6555 12.1318L49.3049 10.5258L52.1165 9.82279L51.6708 8.10073C51.9985 8.02656 52.3295 7.95884 52.6605 7.88789C61.9735 5.92396 72.0337 4.23737 82.2643 2.93131C103.63 0.212773 123.96 -0.654708 139.506 0.493334C156.346 1.7349 165.246 5.09518 165.954 10.4807C166.184 12.2221 165.525 13.9828 164.001 15.7339V15.7371Z" fill="#00ADEF"/>
<path d="M49.5585 4.30571L44.6732 5.5249L45.9121 10.3325L50.7974 9.11333L49.5585 4.30571Z" fill="#00ADEF"/>
<path d="M161.432 15.1894L159.13 17.8726L161.856 20.1384L164.159 17.4552L161.432 15.1894Z" fill="#00ADEF"/>
</g>
<defs>
<clipPath id="clip0_75_238">
<rect width="166" height="43" fill="white"/>
</clipPath>
</defs>
</svg>
