<svg width="334" height="41" viewBox="0 0 334 41" fill="none" xmlns="http://www.w3.org/2000/svg">
<mask id="path-1-outside-1_91_39" maskUnits="userSpaceOnUse" x="1" y="10.6941" width="45" height="23" fill="black">
<rect fill="white" x="1" y="10.6941" width="45" height="23"/>
<path d="M2.75439 32.1532V27.1388L15.4316 22.5128L2.75439 17.8515V12.8018L21.2936 19.9703V25.02L2.75439 32.1532ZM26.0663 32.1532V27.1388L38.7435 22.5128L26.0663 17.8515V12.8018L44.6054 19.9703V25.02L26.0663 32.1532Z"/>
</mask>
<path d="M2.75439 32.1532H1.75439V33.6094L3.11349 33.0865L2.75439 32.1532ZM2.75439 27.1388L2.4116 26.1993L1.75439 26.4392V27.1388H2.75439ZM15.4316 22.5128L15.7744 23.4522L18.3391 22.5164L15.7767 21.5742L15.4316 22.5128ZM2.75439 17.8515H1.75439V18.5493L2.40929 18.7901L2.75439 17.8515ZM2.75439 12.8018L3.11503 11.8691L1.75439 11.343V12.8018H2.75439ZM21.2936 19.9703H22.2936V19.2848L21.6542 19.0376L21.2936 19.9703ZM21.2936 25.02L21.6527 25.9533L22.2936 25.7067V25.02H21.2936ZM3.75439 32.1532V27.1388H1.75439V32.1532H3.75439ZM3.09718 28.0782L15.7744 23.4522L15.0889 21.5734L2.4116 26.1993L3.09718 28.0782ZM15.7767 21.5742L3.09949 16.913L2.40929 18.7901L15.0865 23.4514L15.7767 21.5742ZM3.75439 17.8515V12.8018H1.75439V17.8515H3.75439ZM2.39374 13.7345L20.9329 20.903L21.6542 19.0376L3.11503 11.8691L2.39374 13.7345ZM20.2936 19.9703V25.02H22.2936V19.9703H20.2936ZM20.9345 24.0867L2.39529 31.2199L3.11349 33.0865L21.6527 25.9533L20.9345 24.0867ZM26.0663 32.1532H25.0663V33.6094L26.4254 33.0865L26.0663 32.1532ZM26.0663 27.1388L25.7235 26.1993L25.0663 26.4392V27.1388H26.0663ZM38.7435 22.5128L39.0863 23.4522L41.651 22.5164L39.0886 21.5742L38.7435 22.5128ZM26.0663 17.8515H25.0663V18.5493L25.7212 18.7901L26.0663 17.8515ZM26.0663 12.8018L26.4269 11.8691L25.0663 11.343V12.8018H26.0663ZM44.6054 19.9703H45.6054V19.2848L44.9661 19.0376L44.6054 19.9703ZM44.6054 25.02L44.9645 25.9533L45.6054 25.7067V25.02H44.6054ZM27.0663 32.1532V27.1388H25.0663V32.1532H27.0663ZM26.4091 28.0782L39.0863 23.4522L38.4007 21.5734L25.7235 26.1993L26.4091 28.0782ZM39.0886 21.5742L26.4114 16.913L25.7212 18.7901L38.3984 23.4514L39.0886 21.5742ZM27.0663 17.8515V12.8018H25.0663V17.8515H27.0663ZM25.7056 13.7345L44.2448 20.903L44.9661 19.0376L26.4269 11.8691L25.7056 13.7345ZM43.6054 19.9703V25.02H45.6054V19.9703H43.6054ZM44.2463 24.0867L25.7072 31.2199L26.4254 33.0865L44.9645 25.9533L44.2463 24.0867Z" fill="#00ADEF" mask="url(#path-1-outside-1_91_39)"/>
<path d="M61.3348 38.5587V12.8754H65.4938L65.9316 15.4656H66.187C66.8193 14.4198 67.6462 13.6537 68.6677 13.1673C69.6892 12.6808 70.8202 12.4376 72.0606 12.4376C73.6658 12.4376 75.0399 12.7903 76.183 13.4956C77.3504 14.2009 78.2382 15.2954 78.8462 16.779C79.4786 18.2626 79.7947 20.1718 79.7947 22.5067C79.7947 24.7685 79.4786 26.6413 78.8462 28.1249C78.2138 29.6085 77.3261 30.7151 76.183 31.4447C75.0642 32.1501 73.7509 32.5027 72.243 32.5027C71.416 32.5027 70.6499 32.4054 69.9446 32.2109C69.2393 32.0406 68.6069 31.7609 68.0475 31.3718C67.4881 30.9826 67.0139 30.5084 66.6247 29.949H66.4058V38.5587H61.3348ZM70.4918 28.3438C71.5133 28.3438 72.3159 28.1492 72.8996 27.7601C73.5077 27.3466 73.9455 26.7386 74.213 25.936C74.4805 25.109 74.6143 24.0997 74.6143 22.908V22.0689C74.6143 20.8528 74.4805 19.8435 74.213 19.0409C73.9455 18.2139 73.5077 17.6059 72.8996 17.2168C72.3159 16.8033 71.5133 16.5966 70.4918 16.5966C69.5433 16.5966 68.765 16.8155 68.157 17.2533C67.5489 17.691 67.099 18.3234 66.8071 19.1503C66.5153 19.9772 66.3694 20.9744 66.3694 22.1418V22.762C66.3694 23.6133 66.4545 24.3916 66.6247 25.0969C66.795 25.7779 67.0382 26.3616 67.3544 26.848C67.6949 27.3344 68.1205 27.7114 68.6312 27.979C69.142 28.2222 69.7622 28.3438 70.4918 28.3438ZM88.6014 32.5027C87.9691 32.5027 87.2881 32.4298 86.5584 32.2838C85.8531 32.1379 85.1843 31.8825 84.5519 31.5177C83.9196 31.1286 83.3967 30.5813 82.9832 29.876C82.5941 29.1464 82.3995 28.2222 82.3995 27.1034C82.3995 25.7657 82.6913 24.6591 83.2751 23.7835C83.8588 22.908 84.6857 22.227 85.7558 21.7405C86.8503 21.2298 88.1515 20.8771 89.6594 20.6826C91.1673 20.488 92.8333 20.3907 94.6574 20.3907V18.9679C94.6574 18.4085 94.5601 17.9221 94.3656 17.5086C94.1953 17.0952 93.8792 16.7668 93.417 16.5236C92.9793 16.2804 92.3591 16.1588 91.5565 16.1588C90.7539 16.1588 90.0972 16.2561 89.5864 16.4507C89.1 16.6452 88.7474 16.9006 88.5285 17.2168C88.3339 17.5086 88.2366 17.837 88.2366 18.2018V18.6396H83.3115C83.2872 18.518 83.2751 18.4085 83.2751 18.3112C83.2751 18.1896 83.2751 18.0437 83.2751 17.8734C83.2751 16.7547 83.6156 15.794 84.2966 14.9914C84.9775 14.1644 85.9382 13.5321 87.1786 13.0943C88.419 12.6565 89.8661 12.4376 91.52 12.4376C93.2954 12.4376 94.779 12.6687 95.9708 13.1308C97.1869 13.5929 98.1111 14.2739 98.7434 15.1738C99.4001 16.0737 99.7284 17.2046 99.7284 18.5666V27.2858C99.7284 27.7236 99.85 28.0519 100.093 28.2708C100.361 28.4654 100.653 28.5627 100.969 28.5627H102.173V31.8825C101.93 32.0041 101.553 32.1257 101.042 32.2474C100.531 32.3933 99.9108 32.4662 99.1812 32.4662C98.4759 32.4662 97.8435 32.3568 97.2841 32.1379C96.7491 31.9433 96.2991 31.6636 95.9343 31.2988C95.5695 30.9097 95.3141 30.4476 95.1682 29.9125H94.9128C94.4993 30.4233 93.9886 30.8732 93.3806 31.2623C92.7969 31.6515 92.1037 31.9555 91.3011 32.1744C90.5228 32.3933 89.6229 32.5027 88.6014 32.5027ZM90.3161 28.6721C90.9971 28.6721 91.6051 28.5748 92.1402 28.3803C92.6752 28.1614 93.1252 27.8817 93.49 27.5412C93.8548 27.1764 94.1345 26.7386 94.3291 26.2278C94.548 25.7171 94.6574 25.1698 94.6574 24.5861V23.5282C93.2954 23.5282 92.0794 23.6254 91.0092 23.82C89.9391 23.9903 89.0879 24.2943 88.4555 24.7321C87.8475 25.1698 87.5434 25.7779 87.5434 26.5562C87.5434 26.9939 87.6529 27.3709 87.8718 27.6871C88.0907 28.0033 88.4069 28.2465 88.8203 28.4167C89.2338 28.587 89.7324 28.6721 90.3161 28.6721ZM104.693 32.0649V12.8754H108.888L109.29 15.8669H109.545C109.788 15.2346 110.104 14.663 110.493 14.1523C110.883 13.6172 111.369 13.1916 111.953 12.8754C112.536 12.5592 113.217 12.4012 113.996 12.4012C114.409 12.4012 114.786 12.4498 115.127 12.5471C115.467 12.62 115.723 12.693 115.893 12.766V17.3627H114.324C113.57 17.3627 112.901 17.4721 112.318 17.691C111.758 17.8856 111.284 18.2018 110.895 18.6396C110.506 19.0774 110.214 19.6124 110.019 20.2448C109.849 20.8771 109.764 21.6189 109.764 22.4702V32.0649H104.693ZM123.266 32.5027C122.634 32.5027 121.953 32.4298 121.223 32.2838C120.518 32.1379 119.849 31.8825 119.217 31.5177C118.585 31.1286 118.062 30.5813 117.648 29.876C117.259 29.1464 117.064 28.2222 117.064 27.1034C117.064 25.7657 117.356 24.6591 117.94 23.7835C118.524 22.908 119.351 22.227 120.421 21.7405C121.515 21.2298 122.816 20.8771 124.324 20.6826C125.832 20.488 127.498 20.3907 129.322 20.3907V18.9679C129.322 18.4085 129.225 17.9221 129.031 17.5086C128.86 17.0952 128.544 16.7668 128.082 16.5236C127.644 16.2804 127.024 16.1588 126.221 16.1588C125.419 16.1588 124.762 16.2561 124.251 16.4507C123.765 16.6452 123.412 16.9006 123.193 17.2168C122.999 17.5086 122.902 17.837 122.902 18.2018V18.6396H117.977C117.952 18.518 117.94 18.4085 117.94 18.3112C117.94 18.1896 117.94 18.0437 117.94 17.8734C117.94 16.7547 118.281 15.794 118.962 14.9914C119.643 14.1644 120.603 13.5321 121.844 13.0943C123.084 12.6565 124.531 12.4376 126.185 12.4376C127.96 12.4376 129.444 12.6687 130.636 13.1308C131.852 13.5929 132.776 14.2739 133.408 15.1738C134.065 16.0737 134.393 17.2046 134.393 18.5666V27.2858C134.393 27.7236 134.515 28.0519 134.758 28.2708C135.026 28.4654 135.318 28.5627 135.634 28.5627H136.838V31.8825C136.595 32.0041 136.218 32.1257 135.707 32.2474C135.196 32.3933 134.576 32.4662 133.846 32.4662C133.141 32.4662 132.509 32.3568 131.949 32.1379C131.414 31.9433 130.964 31.6636 130.599 31.2988C130.234 30.9097 129.979 30.4476 129.833 29.9125H129.578C129.164 30.4233 128.654 30.8732 128.046 31.2623C127.462 31.6515 126.769 31.9555 125.966 32.1744C125.188 32.3933 124.288 32.5027 123.266 32.5027ZM124.981 28.6721C125.662 28.6721 126.27 28.5748 126.805 28.3803C127.34 28.1614 127.79 27.8817 128.155 27.5412C128.52 27.1764 128.8 26.7386 128.994 26.2278C129.213 25.7171 129.322 25.1698 129.322 24.5861V23.5282C127.96 23.5282 126.744 23.6254 125.674 23.82C124.604 23.9903 123.753 24.2943 123.121 24.7321C122.512 25.1698 122.208 25.7779 122.208 26.5562C122.208 26.9939 122.318 27.3709 122.537 27.6871C122.756 28.0033 123.072 28.2465 123.485 28.4167C123.899 28.587 124.397 28.6721 124.981 28.6721Z" fill="#00ADEF"/>
<path d="M152.247 32.5027C151.03 32.5027 150.045 32.2838 149.291 31.846C148.538 31.4083 147.99 30.8246 147.65 30.0949C147.309 29.341 147.139 28.514 147.139 27.6141V16.779H144.768V12.8754H147.321L148.27 7.40312H152.21V12.8754H155.712V16.779H152.21V26.7751C152.21 27.3588 152.344 27.8087 152.611 28.1249C152.879 28.4167 153.317 28.5627 153.925 28.5627H155.712V31.919C155.42 32.0163 155.08 32.1014 154.691 32.1744C154.302 32.2717 153.888 32.3446 153.45 32.3933C153.013 32.4662 152.611 32.5027 152.247 32.5027ZM158.988 32.0649V12.8754H163.184L163.585 15.8669H163.84C164.084 15.2346 164.4 14.663 164.789 14.1523C165.178 13.6172 165.664 13.1916 166.248 12.8754C166.832 12.5592 167.513 12.4012 168.291 12.4012C168.705 12.4012 169.082 12.4498 169.422 12.5471C169.763 12.62 170.018 12.693 170.188 12.766V17.3627H168.62C167.866 17.3627 167.197 17.4721 166.613 17.691C166.054 17.8856 165.579 18.2018 165.19 18.6396C164.801 19.0774 164.509 19.6124 164.315 20.2448C164.144 20.8771 164.059 21.6189 164.059 22.4702V32.0649H158.988ZM177.562 32.5027C176.93 32.5027 176.249 32.4298 175.519 32.2838C174.814 32.1379 174.145 31.8825 173.512 31.5177C172.88 31.1286 172.357 30.5813 171.944 29.876C171.555 29.1464 171.36 28.2222 171.36 27.1034C171.36 25.7657 171.652 24.6591 172.236 23.7835C172.819 22.908 173.646 22.227 174.716 21.7405C175.811 21.2298 177.112 20.8771 178.62 20.6826C180.128 20.488 181.794 20.3907 183.618 20.3907V18.9679C183.618 18.4085 183.521 17.9221 183.326 17.5086C183.156 17.0952 182.84 16.7668 182.378 16.5236C181.94 16.2804 181.32 16.1588 180.517 16.1588C179.714 16.1588 179.058 16.2561 178.547 16.4507C178.06 16.6452 177.708 16.9006 177.489 17.2168C177.294 17.5086 177.197 17.837 177.197 18.2018V18.6396H172.272C172.248 18.518 172.236 18.4085 172.236 18.3112C172.236 18.1896 172.236 18.0437 172.236 17.8734C172.236 16.7547 172.576 15.794 173.257 14.9914C173.938 14.1644 174.899 13.5321 176.139 13.0943C177.379 12.6565 178.827 12.4376 180.48 12.4376C182.256 12.4376 183.74 12.6687 184.931 13.1308C186.147 13.5929 187.072 14.2739 187.704 15.1738C188.361 16.0737 188.689 17.2046 188.689 18.5666V27.2858C188.689 27.7236 188.81 28.0519 189.054 28.2708C189.321 28.4654 189.613 28.5627 189.929 28.5627H191.133V31.8825C190.89 32.0041 190.513 32.1257 190.002 32.2474C189.491 32.3933 188.871 32.4662 188.142 32.4662C187.436 32.4662 186.804 32.3568 186.245 32.1379C185.71 31.9433 185.26 31.6636 184.895 31.2988C184.53 30.9097 184.275 30.4476 184.129 29.9125H183.873C183.46 30.4233 182.949 30.8732 182.341 31.2623C181.757 31.6515 181.064 31.9555 180.262 32.1744C179.483 32.3933 178.583 32.5027 177.562 32.5027ZM179.277 28.6721C179.958 28.6721 180.566 28.5748 181.101 28.3803C181.636 28.1614 182.086 27.8817 182.45 27.5412C182.815 27.1764 183.095 26.7386 183.29 26.2278C183.508 25.7171 183.618 25.1698 183.618 24.5861V23.5282C182.256 23.5282 181.04 23.6254 179.97 23.82C178.9 23.9903 178.048 24.2943 177.416 24.7321C176.808 25.1698 176.504 25.7779 176.504 26.5562C176.504 26.9939 176.613 27.3709 176.832 27.6871C177.051 28.0033 177.367 28.2465 177.781 28.4167C178.194 28.587 178.693 28.6721 179.277 28.6721ZM201.424 32.5027C200.086 32.5027 198.882 32.3568 197.812 32.0649C196.742 31.7731 195.83 31.3718 195.076 30.861C194.322 30.326 193.738 29.6936 193.325 28.964C192.936 28.2343 192.741 27.4074 192.741 26.4832C192.741 26.3859 192.741 26.2886 192.741 26.1913C192.741 26.0941 192.753 26.0211 192.778 25.9724H197.666C197.666 26.0211 197.666 26.0697 197.666 26.1184C197.666 26.167 197.666 26.2157 197.666 26.2643C197.691 26.8723 197.885 27.3709 198.25 27.7601C198.615 28.1249 199.089 28.3924 199.673 28.5627C200.281 28.7329 200.913 28.818 201.57 28.818C202.154 28.818 202.713 28.7694 203.248 28.6721C203.807 28.5505 204.27 28.3438 204.634 28.0519C205.024 27.7601 205.218 27.3831 205.218 26.921C205.218 26.3373 204.975 25.8873 204.488 25.5711C204.026 25.255 203.406 24.9996 202.628 24.805C201.874 24.6105 201.047 24.3916 200.147 24.1484C199.32 23.9538 198.493 23.7349 197.666 23.4917C196.839 23.2241 196.085 22.8836 195.404 22.4702C194.748 22.0567 194.213 21.5216 193.799 20.865C193.386 20.184 193.179 19.3327 193.179 18.3112C193.179 17.3141 193.398 16.4507 193.836 15.721C194.273 14.9671 194.869 14.3469 195.623 13.8604C196.402 13.374 197.301 13.0213 198.323 12.8025C199.369 12.5592 200.488 12.4376 201.679 12.4376C202.798 12.4376 203.844 12.5592 204.817 12.8025C205.79 13.0213 206.641 13.3618 207.371 13.8239C208.1 14.2617 208.672 14.8211 209.085 15.5021C209.499 16.1588 209.705 16.9006 209.705 17.7275C209.705 17.8978 209.705 18.0559 209.705 18.2018C209.705 18.3477 209.693 18.445 209.669 18.4936H204.817V18.2018C204.817 17.764 204.683 17.3992 204.415 17.1073C204.148 16.7912 203.759 16.5479 203.248 16.3777C202.762 16.2074 202.166 16.1223 201.46 16.1223C200.974 16.1223 200.524 16.1588 200.111 16.2318C199.721 16.3047 199.381 16.4142 199.089 16.5601C198.797 16.706 198.566 16.8884 198.396 17.1073C198.25 17.3019 198.177 17.5451 198.177 17.837C198.177 18.2504 198.347 18.5909 198.688 18.8585C199.053 19.1017 199.527 19.3084 200.111 19.4787C200.694 19.6489 201.339 19.8313 202.044 20.0259C202.92 20.2691 203.832 20.5123 204.78 20.7555C205.753 20.9744 206.653 21.2784 207.48 21.6676C208.307 22.0567 208.976 22.6161 209.486 23.3457C209.997 24.0511 210.253 25.0118 210.253 26.2278C210.253 27.3952 210.022 28.3803 209.559 29.1829C209.122 29.9855 208.501 30.63 207.699 31.1164C206.896 31.6028 205.96 31.9555 204.89 32.1744C203.82 32.3933 202.664 32.5027 201.424 32.5027ZM222.352 32.5027C220.309 32.5027 218.595 32.1501 217.208 31.4447C215.822 30.7151 214.764 29.6085 214.034 28.1249C213.329 26.617 212.976 24.7321 212.976 22.4702C212.976 20.1597 213.329 18.2748 214.034 16.8155C214.764 15.3319 215.822 14.2253 217.208 13.4956C218.619 12.766 220.334 12.4012 222.352 12.4012C223.666 12.4012 224.845 12.5592 225.891 12.8754C226.961 13.1916 227.885 13.678 228.664 14.3347C229.442 14.9914 230.026 15.8061 230.415 16.779C230.828 17.7275 231.035 18.8585 231.035 20.1718H225.964C225.964 19.2962 225.83 18.5788 225.563 18.0194C225.295 17.46 224.882 17.0344 224.322 16.7425C223.787 16.4507 223.106 16.3047 222.279 16.3047C221.307 16.3047 220.516 16.5236 219.908 16.9614C219.3 17.3992 218.85 18.0437 218.558 18.8949C218.266 19.7462 218.12 20.8042 218.12 22.0689V22.908C218.12 24.1484 218.266 25.1942 218.558 26.0454C218.874 26.8967 219.349 27.5412 219.981 27.979C220.613 28.3924 221.44 28.5992 222.462 28.5992C223.289 28.5992 223.97 28.4532 224.505 28.1614C225.064 27.8695 225.49 27.4317 225.782 26.848C226.074 26.2643 226.219 25.559 226.219 24.7321H231.035C231.035 25.9725 230.828 27.0791 230.415 28.0519C230.026 29.0248 229.442 29.8395 228.664 30.4962C227.91 31.1529 226.998 31.6515 225.928 31.992C224.857 32.3325 223.666 32.5027 222.352 32.5027ZM243.557 32.5027C241.441 32.5027 239.666 32.1501 238.231 31.4447C236.796 30.7151 235.714 29.6085 234.984 28.1249C234.254 26.6413 233.89 24.7564 233.89 22.4702C233.89 20.1597 234.254 18.2748 234.984 16.8155C235.714 15.3319 236.784 14.2374 238.194 13.5321C239.629 12.8025 241.38 12.4376 243.448 12.4376C245.393 12.4376 247.035 12.7903 248.373 13.4956C249.711 14.1766 250.72 15.2467 251.401 16.706C252.082 18.141 252.422 20.0016 252.422 22.2878V23.6011H239.033C239.082 24.7199 239.252 25.6684 239.544 26.4467C239.86 27.225 240.335 27.8087 240.967 28.1979C241.624 28.5627 242.487 28.7451 243.557 28.7451C244.141 28.7451 244.664 28.6721 245.126 28.5262C245.612 28.3803 246.026 28.1614 246.366 27.8695C246.707 27.5777 246.974 27.2128 247.169 26.7751C247.364 26.3373 247.461 25.8387 247.461 25.2793H252.422C252.422 26.4954 252.203 27.5533 251.766 28.4532C251.328 29.3531 250.72 30.1071 249.942 30.7151C249.163 31.2988 248.227 31.7488 247.132 32.0649C246.062 32.3568 244.871 32.5027 243.557 32.5027ZM239.106 20.3907H247.205C247.205 19.6611 247.108 19.0287 246.914 18.4936C246.743 17.9586 246.5 17.5208 246.184 17.1803C245.868 16.8398 245.479 16.5966 245.017 16.4507C244.579 16.2804 244.08 16.1953 243.521 16.1953C242.597 16.1953 241.818 16.3534 241.186 16.6695C240.578 16.9614 240.104 17.4235 239.763 18.0559C239.447 18.6639 239.228 19.4422 239.106 20.3907ZM256.143 32.0649V12.8754H260.338L260.74 15.5021H260.995C261.433 14.8698 261.956 14.3225 262.564 13.8604C263.196 13.3983 263.901 13.0457 264.68 12.8025C265.458 12.5592 266.309 12.4376 267.233 12.4376C268.498 12.4376 269.605 12.6687 270.553 13.1308C271.502 13.5929 272.231 14.3225 272.742 15.3197C273.277 16.3169 273.545 17.6181 273.545 19.2233V32.0649H268.474V20.0259C268.474 19.4179 268.401 18.9071 268.255 18.4936C268.109 18.0559 267.89 17.7032 267.598 17.4357C267.331 17.1438 266.99 16.9371 266.577 16.8155C266.163 16.6939 265.701 16.6331 265.19 16.6331C264.437 16.6331 263.756 16.8155 263.147 17.1803C262.539 17.5451 262.065 18.0437 261.725 18.6761C261.384 19.3084 261.214 20.038 261.214 20.865V32.0649H256.143ZM284.875 32.5027C283.294 32.5027 281.92 32.1501 280.752 31.4447C279.609 30.7151 278.721 29.6085 278.089 28.1249C277.457 26.6413 277.141 24.7442 277.141 22.4337C277.141 20.1232 277.457 18.2383 278.089 16.779C278.746 15.2954 279.634 14.2009 280.752 13.4956C281.895 12.7903 283.209 12.4376 284.692 12.4376C285.519 12.4376 286.285 12.5349 286.991 12.7295C287.72 12.8997 288.353 13.1794 288.888 13.5686C289.447 13.9577 289.921 14.432 290.311 14.9914H290.529V5.68847H295.6V32.0649H291.442L291.04 29.4747H290.785C290.153 30.4962 289.326 31.2623 288.304 31.7731C287.283 32.2595 286.139 32.5027 284.875 32.5027ZM286.48 28.3438C287.429 28.3438 288.195 28.1249 288.778 27.6871C289.386 27.2493 289.836 26.617 290.128 25.79C290.42 24.9631 290.566 23.9781 290.566 22.835V22.1783C290.566 21.3271 290.481 20.5488 290.311 19.8435C290.165 19.1382 289.921 18.5544 289.581 18.0923C289.24 17.6059 288.815 17.2411 288.304 16.9979C287.793 16.7303 287.185 16.5966 286.48 16.5966C285.458 16.5966 284.644 16.8033 284.036 17.2168C283.428 17.6059 282.99 18.2139 282.722 19.0409C282.455 19.8435 282.321 20.8528 282.321 22.0689V22.908C282.321 24.124 282.455 25.1334 282.722 25.936C282.99 26.7386 283.428 27.3466 284.036 27.7601C284.644 28.1492 285.458 28.3438 286.48 28.3438ZM309.004 32.5027C306.888 32.5027 305.113 32.1501 303.678 31.4447C302.243 30.7151 301.16 29.6085 300.431 28.1249C299.701 26.6413 299.336 24.7564 299.336 22.4702C299.336 20.1597 299.701 18.2748 300.431 16.8155C301.16 15.3319 302.23 14.2374 303.641 13.5321C305.076 12.8025 306.827 12.4376 308.894 12.4376C310.84 12.4376 312.482 12.7903 313.82 13.4956C315.157 14.1766 316.167 15.2467 316.848 16.706C317.529 18.141 317.869 20.0016 317.869 22.2878V23.6011H304.48C304.529 24.7199 304.699 25.6684 304.991 26.4467C305.307 27.225 305.781 27.8087 306.414 28.1979C307.07 28.5627 307.934 28.7451 309.004 28.7451C309.588 28.7451 310.111 28.6721 310.573 28.5262C311.059 28.3803 311.473 28.1614 311.813 27.8695C312.154 27.5777 312.421 27.2128 312.616 26.7751C312.81 26.3373 312.907 25.8387 312.907 25.2793H317.869C317.869 26.4954 317.65 27.5533 317.212 28.4532C316.775 29.3531 316.167 30.1071 315.388 30.7151C314.61 31.2988 313.674 31.7488 312.579 32.0649C311.509 32.3568 310.317 32.5027 309.004 32.5027ZM304.553 20.3907H312.652C312.652 19.6611 312.555 19.0287 312.36 18.4936C312.19 17.9586 311.947 17.5208 311.631 17.1803C311.314 16.8398 310.925 16.5966 310.463 16.4507C310.025 16.2804 309.527 16.1953 308.967 16.1953C308.043 16.1953 307.265 16.3534 306.633 16.6695C306.025 16.9614 305.55 17.4235 305.21 18.0559C304.894 18.6639 304.675 19.4422 304.553 20.3907ZM321.59 32.0649V12.8754H325.785L326.186 15.8669H326.442C326.685 15.2346 327.001 14.663 327.39 14.1523C327.779 13.6172 328.266 13.1916 328.85 12.8754C329.433 12.5592 330.114 12.4012 330.893 12.4012C331.306 12.4012 331.683 12.4498 332.023 12.5471C332.364 12.62 332.619 12.693 332.79 12.766V17.3627H331.221C330.467 17.3627 329.798 17.4721 329.214 17.691C328.655 17.8856 328.181 18.2018 327.792 18.6396C327.402 19.0774 327.111 19.6124 326.916 20.2448C326.746 20.8771 326.661 21.6189 326.661 22.4702V32.0649H321.59Z" fill="#242D7F"/>
</svg>
