<svg width="121" height="28" viewBox="0 0 121 28" fill="none" xmlns="http://www.w3.org/2000/svg">
<path d="M114.577 0.247681H118.043V18.984C118.052 19.1215 118.043 19.279 118.135 19.3941C118.257 19.5231 118.451 19.5092 118.615 19.5208H120.756V22.3783H117.306C116.597 22.3737 115.839 22.1814 115.342 21.6446C114.811 21.0747 114.64 20.2746 114.586 19.5223C114.548 18.8535 114.575 18.1831 114.567 17.5143C114.573 11.7606 114.576 6.00528 114.577 0.247681Z" fill="white"/>
<path d="M7.49017 6.25784C8.79075 5.76124 10.2512 5.77669 11.5788 6.1613C12.9535 6.56059 14.1537 7.4696 14.9708 8.63966C16.0443 10.1634 16.5262 12.0378 16.5927 13.8852C16.656 15.6994 16.32 17.5537 15.4635 19.1655C14.8349 20.3534 13.8973 21.3967 12.7126 22.0478C11.3996 22.7815 9.82256 22.9885 8.3459 22.7344C7.14186 22.5359 6.0529 21.9011 5.28676 20.9519C4.95389 20.5657 4.72761 20.1062 4.45807 19.6768C4.41636 19.7764 4.39628 19.8838 4.39937 19.9919C4.40401 22.6464 4.40401 25.3 4.39937 27.9545H0.935542C0.939404 20.7272 0.937859 13.4998 0.930908 6.27174H3.9468C3.97614 7.2997 3.96996 8.32842 4.02403 9.35482C4.19162 9.25751 4.25572 9.06829 4.35689 8.91306C5.07746 7.7237 6.18265 6.74981 7.49017 6.25784ZM8.29029 9.0822C6.94492 9.23666 5.78568 10.1766 5.19331 11.3706C4.49823 12.7283 4.37389 14.3278 4.66428 15.8114C4.89056 16.9467 5.43659 18.0688 6.38036 18.7747C7.40908 19.5532 8.82242 19.7015 10.0365 19.3254C11.0328 19.0219 11.8707 18.2936 12.3658 17.3838C13.0609 16.1157 13.1875 14.6035 12.9659 13.1894C12.7581 11.932 12.2144 10.6678 11.2027 9.85142C10.3995 9.19109 9.31129 8.94086 8.29029 9.0822Z" fill="white"/>
<path d="M25.7068 5.93578C27.2243 5.76046 28.8138 5.98906 30.1653 6.72276C31.289 7.33753 32.2127 8.26199 32.8275 9.3857C33.5535 10.6855 33.8786 12.1807 33.9041 13.6612C33.9126 14.3702 33.9041 15.0784 33.9095 15.7874C29.922 15.7967 25.9346 15.7874 21.9471 15.7921C22.08 16.8246 22.6028 17.7669 23.4083 18.4256C24.6556 19.4551 26.3709 19.805 27.9488 19.5679C29.3513 19.3516 30.587 18.5384 31.5563 17.5313C32.1741 18.1492 32.792 18.7716 33.4152 19.3849C33.4724 19.4528 33.5566 19.5092 33.5874 19.5972C32.7719 20.6391 31.7184 21.4701 30.5152 22.0208C27.9843 23.1692 24.8966 23.0688 22.4831 21.6647C21.1779 20.9125 20.1206 19.7957 19.4402 18.4511C18.6941 16.9783 18.44 15.2846 18.5752 13.652C18.7397 11.6694 19.5792 9.73865 20.9694 8.30833C22.2282 6.99539 23.9019 6.15743 25.7068 5.93578ZM23.5064 10.1372C22.6345 10.8824 22.0776 11.932 21.9494 13.072H30.5337C30.4997 12.1097 30.2325 11.125 29.6108 10.3727C29.0493 9.67764 28.206 9.2436 27.3294 9.10922C25.9863 8.87752 24.5436 9.24437 23.5064 10.1372Z" fill="white"/>
<path d="M49.1666 6.91972C50.4123 6.08717 51.9469 5.73731 53.4313 5.83385C54.7682 5.90259 56.1012 6.3289 57.1762 7.13906C58.1347 7.84805 58.863 8.83352 59.3549 9.91321C58.5154 10.3542 57.6674 10.779 56.8248 11.2146C56.4039 10.2886 55.6702 9.54019 54.7535 9.09997C53.8993 8.69605 52.8999 8.56398 51.9824 8.80649C51.4549 8.94859 50.939 9.24053 50.6455 9.71627C50.2671 10.3171 50.3482 11.1752 50.8587 11.6772C51.3414 12.1568 51.9986 12.3931 52.6265 12.6194C54.1712 13.143 55.7892 13.5161 57.1909 14.378C58.0296 14.8885 58.7672 15.6384 59.0699 16.5914C59.4461 17.8101 59.2769 19.1323 58.6066 20.2174C57.9887 21.2045 56.9886 21.8995 55.9143 22.3112C53.4792 23.2341 50.6224 22.929 48.4306 21.5226C47.4011 20.8693 46.5237 20.0027 45.8587 18.981C46.5793 18.3662 47.3022 17.7522 48.0274 17.1398C48.7704 18.0457 49.6408 18.8775 50.6988 19.405C51.733 19.927 52.9107 20.0946 54.0499 19.8807C54.5697 19.7734 55.0979 19.561 55.4493 19.147C55.8965 18.5987 55.9104 17.8155 55.4826 17.2525C55.0593 16.7119 54.4168 16.4099 53.7958 16.1551C52.832 15.7797 51.8218 15.5372 50.861 15.151C49.6979 14.6938 48.5225 14.103 47.7324 13.1021C46.9122 12.0765 46.7345 10.623 47.167 9.39499C47.5239 8.37322 48.2738 7.51595 49.1666 6.91972Z" fill="white"/>
<path d="M68.2142 5.90872C70.3365 5.5998 72.5831 6.09794 74.3293 7.35604C76.4486 8.85047 77.7522 11.3813 77.8318 13.964C77.9561 16.5551 76.7953 19.1531 74.8136 20.819C71.8325 23.3862 67.4612 23.5183 64.3302 21.1357C62.3299 19.6405 61.0309 17.2386 60.922 14.7363C60.7853 12.3784 61.7391 10.0051 63.4111 8.34769C64.7086 7.04016 66.393 6.18444 68.2142 5.90872ZM68.3825 9.07984C66.6834 9.38877 65.2261 10.6376 64.6144 12.2402C64.029 13.7408 64.107 15.4198 64.8299 16.8594C65.3265 17.8417 66.1227 18.6403 67.1043 19.1385C69.4429 20.3062 72.2866 19.503 73.669 17.2849C74.6838 15.6932 74.7943 13.5778 73.961 11.8787C73.4636 10.8569 72.6449 10.0259 71.6293 9.51543C70.6238 9.01806 69.4831 8.86514 68.3825 9.07984Z" fill="white"/>
<path d="M85.5209 6.73517C86.796 5.8501 88.4503 5.64698 89.9486 5.95514C91.1017 6.19224 92.1265 6.84484 92.8286 7.78938C93.7461 9.02509 94.082 10.5983 94.0952 12.1143V22.3861H90.6298V12.655C90.619 11.8185 90.5001 10.9559 90.0892 10.2137C89.781 9.64834 89.2643 9.22589 88.6488 9.03744C87.434 8.67986 86.0368 9.00964 85.1348 9.90552C84.0597 10.9543 83.5902 12.4928 83.5662 13.9664V22.3846H80.1008C80.1008 17.0139 80.0977 11.6432 80.0916 6.27256H83.2581C83.2642 7.30205 83.2465 8.33155 83.2673 9.36182C83.862 8.36939 84.5432 7.38624 85.5209 6.73517Z" fill="white"/>
<path d="M99.1693 7.5731C101.255 5.87941 104.226 5.44846 106.75 6.30109C107.861 6.68725 108.866 7.40859 109.521 8.39252C110.013 9.14167 110.328 9.99353 110.442 10.8825C110.538 11.5204 110.511 12.1668 110.515 12.8132V18.9918C110.515 19.1756 110.515 19.4474 110.746 19.4969C111.219 19.5579 111.7 19.5084 112.177 19.5254V22.3892C111.414 22.383 110.651 22.3892 109.89 22.3853C109.358 22.3784 108.809 22.2262 108.407 21.8694C108.021 21.535 107.805 21.0446 107.712 20.5495C107.619 20.0545 107.662 19.5332 107.651 19.0257C107.503 19.0257 107.448 19.1586 107.394 19.2706C106.832 20.4082 105.939 21.3481 104.832 21.9675C103.351 22.7776 101.608 22.9653 99.9887 22.488C98.8341 22.1498 97.7822 21.3751 97.2424 20.2854C96.7095 19.1856 96.6037 17.9267 96.9473 16.7536C97.3165 15.5302 98.2788 14.5664 99.3925 13.9833C100.878 13.1971 102.591 12.9515 104.258 12.9886H107.047C107.035 12.2425 107.117 11.4671 106.838 10.755C106.575 10.0329 105.995 9.47067 105.265 9.22894C104.056 8.83042 102.691 9.11309 101.657 9.82748C100.799 10.4075 100.135 11.247 99.6999 12.1807C98.7244 11.7081 97.749 11.2354 96.7736 10.7628C97.3157 9.53323 98.1159 8.41183 99.1693 7.5731ZM100.771 16.4339C100.153 17.0741 100.051 18.1291 100.485 18.8968C100.793 19.4459 101.405 19.7641 102.017 19.8452C103.198 20.0035 104.411 19.5594 105.302 18.7933C106.306 17.9476 106.919 16.6934 107.052 15.3951H104.1C102.934 15.4098 101.629 15.5665 100.769 16.4339H100.771Z" fill="white"/>
<path d="M36.645 6.27175H39.8115C39.8247 7.27576 39.7868 8.27359 39.8324 9.27219C40.0332 8.95863 40.132 8.59332 40.3243 8.27436C40.7174 7.53448 41.3368 6.89192 42.1308 6.59071C43.0939 6.19761 44.1519 6.28179 45.1691 6.27098V9.73326H42.8521C42.2343 9.74176 41.5855 9.88077 41.0943 10.2785C40.6387 10.64 40.3745 11.1891 40.2448 11.7459C40.0687 12.4727 40.1143 13.2249 40.1089 13.9655C40.1089 16.7698 40.1042 19.5741 40.1127 22.3776C38.9543 22.3892 37.7996 22.3776 36.6427 22.383C36.6443 17.0131 36.645 11.6432 36.645 6.27175Z" fill="white"/>
</svg>
