<svg width="653" height="217" viewBox="0 0 653 217" fill="none" xmlns="http://www.w3.org/2000/svg">
<g style="mix-blend-mode:hard-light" opacity="0.8">
<path d="M16.262 52.0305C23.7856 49.3657 31.4882 47.3263 39.3383 45.9083C36.4483 46.429 39.7542 45.857 40.1801 45.7948C41.006 45.6714 41.8322 45.5584 42.6587 45.4506C44.4778 45.2135 46.2981 45.0077 48.1251 44.8434C52.1067 44.477 56.0997 44.2825 60.0988 44.2602C64.0979 44.2378 68.058 44.4414 72.0312 44.7176C72.56 44.7562 74.3383 44.9852 71.8632 44.6922C72.849 44.8085 73.8345 44.9144 74.8155 45.0413C77.1029 45.3411 79.3819 45.6985 81.6527 46.1189C85.2009 46.781 88.7183 47.6008 92.1891 48.579C94.0775 49.1122 95.9467 49.6931 97.8071 50.3213C98.4255 50.5291 99.0394 50.7578 99.6525 50.9658C100.912 51.4274 100.88 51.4129 99.5566 50.9117C100.165 51.1459 100.769 51.3907 101.373 51.6355C104.685 52.9953 107.93 54.5141 111.082 56.2034C112.801 57.1238 114.496 58.0973 116.162 59.1189C116.995 59.6323 117.823 60.1511 118.641 60.6911C119.117 61.0031 122.338 63.3322 119.902 61.5026C125.444 65.6549 130.409 70.3082 134.995 75.4867C136.997 77.7495 133.526 73.5234 135.35 75.9283C135.887 76.6402 136.45 77.3303 136.982 78.0477C137.87 79.2379 138.728 80.4449 139.56 81.6737C141.622 84.7333 143.5 87.9196 145.179 91.207C145.504 91.8429 145.925 92.5067 146.158 93.1825C145.185 90.3452 146.097 93.0802 146.335 93.6252C147.03 95.2349 147.678 96.8671 148.275 98.5168C149.462 101.796 150.448 105.144 151.217 108.548C151.409 109.392 151.57 110.242 151.751 111.092C152.377 114.005 151.438 108.446 151.804 111.399C151.98 112.828 152.187 114.246 152.317 115.683C152.632 119.108 152.708 122.557 152.543 125.993C152.508 126.767 152.593 127.819 152.374 128.563C153.226 125.666 152.422 128.008 152.305 128.848C152.074 130.553 151.785 132.255 151.427 133.939C151.127 135.349 150.78 136.75 150.391 138.143C150.155 138.981 149.908 139.815 149.639 140.639C149.442 141.252 148.478 144.973 149.241 141.912C148.889 143.314 148.042 144.748 147.366 146.02C146.985 146.739 146.544 147.418 146.141 148.127C144.834 150.424 147.851 146.285 146.085 148.17C145.376 148.927 143.933 151.224 142.88 151.428C144.426 151.122 144.266 150.314 142.969 151.284C142.145 151.898 141.299 152.487 140.442 153.055C139.004 154.01 137.524 154.841 136.019 155.672C133.566 157.029 138.417 154.825 135.807 155.748C135.178 155.969 134.561 156.236 133.926 156.452C132.554 156.929 131.156 157.256 129.76 157.64C127.128 158.365 132.513 157.369 129.818 157.658C128.804 157.768 127.795 157.897 126.774 157.955C125.513 158.026 124.249 158.034 122.994 157.985L122.241 157.944C120.942 157.844 121.241 157.88 123.138 158.048C122.752 157.774 121.411 157.801 120.927 157.714C119.472 157.453 118.029 157.107 116.609 156.682C116.139 156.543 115.674 156.376 115.204 156.231C113.235 155.633 117.65 157.324 114.641 155.969C113.314 155.369 112.016 154.695 110.762 153.951C110.538 153.818 109.121 152.725 108.924 152.784C109.054 152.743 111.228 154.577 109.605 153.271C108.481 152.366 107.368 151.466 106.33 150.459C105.816 149.96 105.337 149.424 104.828 148.914C103.399 147.488 106.404 151.067 104.468 148.462C103.755 147.506 103.093 146.506 102.487 145.478C102.287 145.141 101.778 143.759 101.453 143.588L102.116 145.048C101.918 144.611 101.73 144.163 101.552 143.715C101.104 142.588 100.724 141.432 100.405 140.263C100.279 139.787 100.206 138.474 99.9058 138.108C100.208 139.993 100.265 140.289 100.084 139C100.024 138.501 99.9697 137.996 99.931 137.496C99.901 137.095 99.6876 132.863 99.9062 132.845C100.036 132.835 99.5194 135.469 99.8334 133.584C99.9709 132.754 100.087 131.919 100.256 131.093C100.612 129.342 101.142 127.657 101.634 125.948C102.457 123.088 100.569 128.153 101.815 125.44C102.193 124.623 102.539 123.785 102.933 122.977C103.731 121.341 104.62 119.748 105.583 118.204C106.072 117.424 106.583 116.665 107.104 115.91C105.465 118.276 107.276 115.758 107.571 115.392C109.911 112.478 112.536 109.79 115.39 107.38C113.226 109.206 115.677 107.224 116.028 106.96C116.659 106.494 117.301 106.038 117.948 105.597C119.375 104.622 120.842 103.708 122.352 102.866C123.176 102.403 124.018 101.981 124.853 101.544C127.647 100.082 122.378 102.426 125.645 101.213C127.666 100.462 129.642 99.661 131.698 99.0186C133.753 98.3762 135.817 97.8379 137.911 97.3822C138.222 97.3137 141.713 96.6723 139.019 97.1182C140.078 96.9447 141.143 96.7971 142.209 96.6703C146.499 96.152 150.821 95.9719 155.138 96.0792C156.952 96.1242 158.757 96.2375 160.563 96.3611C164.128 96.6049 158.221 95.9903 161.768 96.4853C162.849 96.6347 163.935 96.7632 165.011 96.9285C169.332 97.5787 173.609 98.4811 177.832 99.6048C182.055 100.728 185.855 102.024 189.816 103.423C191.836 104.134 187.325 102.389 190.653 103.748C191.697 104.176 192.74 104.588 193.779 105.026C196.197 106.042 198.59 107.111 200.964 108.222C208.759 111.881 216.327 116.014 223.79 120.306C238.824 128.956 253.595 138.012 268.904 146.176C329.362 178.424 397.02 202.018 466.328 200.39C526.694 198.97 589.231 177.902 632.153 134.186C637.096 129.154 641.705 123.81 645.985 118.206C649.707 113.332 650.538 106.007 645.394 101.611C640.946 97.8113 632.781 96.99 628.8 102.202C624.145 108.295 619.103 114.072 613.672 119.487C611.07 122.081 608.381 124.595 605.622 127.022C604.933 127.631 604.229 128.22 603.535 128.83C601.195 130.877 605.434 127.316 603.018 129.271C601.465 130.528 599.906 131.774 598.32 132.989C592.317 137.59 586.035 141.824 579.541 145.695C576.34 147.605 573.084 149.428 569.783 151.165C568.128 152.038 566.461 152.886 564.783 153.714C563.941 154.13 563.099 154.536 562.252 154.942C561.687 155.213 561.122 155.478 560.558 155.744C561.898 155.122 561.965 155.088 560.757 155.638C546.585 161.939 531.918 166.936 516.824 170.503C513.416 171.308 509.991 172.041 506.547 172.707C505.608 172.886 504.67 173.066 503.725 173.236C503.238 173.326 500.045 173.857 503.062 173.364C500.86 173.724 498.653 174.069 496.44 174.383C488.548 175.494 480.601 176.252 472.642 176.656C465.032 177.042 457.399 177.095 449.787 176.823C445.39 176.666 441 176.41 436.616 176.06C435.522 175.973 434.432 175.871 433.338 175.78C429.724 175.48 435.713 176.055 432.106 175.662C429.564 175.387 427.026 175.101 424.493 174.774C406.783 172.491 389.276 168.733 372.119 163.799C363.704 161.378 355.373 158.678 347.127 155.734C345.065 154.998 343.011 154.236 340.953 153.474C337.561 152.226 343.071 154.307 339.698 153.001C338.677 152.604 337.655 152.207 336.633 151.81C332.211 150.072 327.817 148.265 323.448 146.395C306.999 139.357 290.927 131.444 275.218 122.892C243.108 105.415 212.364 82.3072 175.828 75.0137C157.368 71.3268 137.297 71.3473 119.6 78.3901C103.526 84.785 89.2484 96.7816 81.8664 112.658C74.9843 127.466 74.2202 144.423 83.0141 158.652C90.4115 170.618 103.774 179.108 117.706 180.883C133.894 182.948 150.224 177.563 161.758 165.826C167.513 159.971 170.727 152.123 173.009 144.376C175.292 136.629 176.18 128.712 176.097 120.825C175.751 88.6871 157.373 58.8414 131.275 40.9674C102.657 21.4079 65.7347 17.4805 32.2948 23.5019C24.4446 24.9147 16.7369 26.9595 9.2185 29.6241C3.4377 31.6681 -0.683233 38.2377 1.53955 44.3464C3.76233 50.455 10.0636 54.2252 16.267 52.0251L16.262 52.0305Z" fill="url(#paint0_linear_19_70)"/>
</g>
<defs>
<linearGradient id="paint0_linear_19_70" x1="14.3576" y1="119.501" x2="639.943" y2="97.2152" gradientUnits="userSpaceOnUse">
<stop offset="0.02" stop-color="#00ADEF"/>
<stop offset="0.835" stop-color="#00ADEF" stop-opacity="0.2"/>
</linearGradient>
</defs>
</svg>
