<svg width="332" height="3791" viewBox="0 0 332 3791" fill="none" xmlns="http://www.w3.org/2000/svg">
<circle cx="8" cy="3100" r="8" fill="white"/>
<circle cx="8" cy="2470" r="8" fill="white"/>
<circle cx="8" cy="1839" r="8" fill="white"/>
<circle cx="8" cy="1163" r="8" fill="white"/>
<path d="M8 6.00001V5.00001H7L7 6.00001L8 6.00001ZM2.66683 3785C2.66683 3787.95 5.05465 3790.33 8.00017 3790.33C10.9457 3790.33 13.3335 3787.95 13.3335 3785C13.3335 3782.05 10.9457 3779.67 8.00016 3779.67C5.05465 3779.67 2.66683 3782.05 2.66683 3785ZM320.667 6.00001C320.667 8.94553 323.054 11.3333 326 11.3333C328.946 11.3333 331.333 8.94553 331.333 6.00001C331.333 3.05449 328.946 0.66668 326 0.66668C323.054 0.666681 320.667 3.0545 320.667 6.00001ZM7 6.00001L7.00017 3785L9.00017 3785L9 6.00001L7 6.00001ZM8 7.00001L326 7.00001V5.00001L8 5.00001V7.00001Z" fill="white"/>
</svg>
