<svg width="107" height="22" viewBox="0 0 107 22" fill="none" xmlns="http://www.w3.org/2000/svg">
<path d="M26.4758 0.771912H29.6984C29.6984 6.58252 29.6984 12.391 29.6984 18.1972C29.7056 18.3276 29.6984 18.4774 29.7848 18.5855C29.9008 18.7065 30.0837 18.6942 30.2386 18.7029H32.2194C32.2194 19.591 32.2194 20.4791 32.2194 21.368H29.022C28.3421 21.3629 27.6124 21.1713 27.1529 20.6398C26.6091 20.0102 26.4931 19.1387 26.4758 18.3348C26.4758 12.481 26.4758 6.62645 26.4758 0.771912Z" fill="white"/>
<path d="M2.43603 3.01422H5.46486V6.37727H8.68817V8.84715C7.6135 8.84715 6.53954 8.84715 5.46558 8.84715C5.46558 11.9639 5.46126 15.0806 5.46558 18.1973C5.45262 18.4422 5.62693 18.7015 5.88983 18.7015C6.82117 18.7152 7.75395 18.7015 8.68601 18.7072V21.3723H4.81588C4.15393 21.3687 3.46389 21.149 3.00866 20.652C2.40362 19.9944 2.24803 19.0609 2.23651 18.1987C2.23435 15.0806 2.23435 11.9624 2.23723 8.84427H0V6.37727H2.23939C2.30494 5.25577 2.37048 4.135 2.43603 3.01422Z" fill="white"/>
<path d="M52.9033 7.36408C54.7595 5.97751 57.2734 5.62889 59.4847 6.23826C60.9447 6.64162 62.2218 7.60682 63.0674 8.85436C63.4448 9.40971 63.756 10.0068 63.9937 10.6349C63.0962 11.0188 62.198 11.4035 61.2998 11.7874C60.9137 10.9194 60.3591 10.094 59.561 9.55449C58.5641 8.87309 57.2561 8.74344 56.1101 9.06757C55.1463 9.34849 54.3252 9.98522 53.8131 10.8489C53.1374 11.9631 52.9487 13.3151 53.0755 14.5944C53.1943 15.7836 53.6697 16.9713 54.5579 17.7968C55.3286 18.5106 56.3471 18.8945 57.3973 18.8664C58.3596 18.8628 59.2959 18.5553 60.0724 17.987C60.6998 17.5325 61.2155 16.9425 61.6657 16.3173C62.4141 16.8222 63.1625 17.3265 63.9109 17.8299C63.326 18.8203 62.6071 19.7538 61.678 20.4432C60.8619 21.0446 59.9183 21.4501 58.92 21.628C57.1344 21.9558 55.2068 21.8074 53.5992 20.9135C52.5871 20.3574 51.73 19.5572 51.1055 18.5855C50.3852 17.482 49.979 16.1927 49.8558 14.8854C49.7117 13.3728 49.9134 11.822 50.5134 10.4239C51.0241 9.20947 51.8488 8.15352 52.9033 7.36408Z" fill="white"/>
<path d="M70.0499 6.70719C72.5292 5.51366 75.6452 5.74416 77.8946 7.34104C79.4274 8.41212 80.5021 10.0695 80.9732 11.8688C79.9007 11.8724 78.8274 11.8645 77.7549 11.8731C77.3595 10.9144 76.6471 10.081 75.723 9.59916C74.2327 8.81837 72.3297 8.84142 70.8797 9.70793C70.0463 10.2165 69.3923 10.972 69.0069 11.8688H65.8103C66.3858 9.60348 67.9395 7.712 70.0499 6.70719Z" fill="white"/>
<path d="M89.4179 6.33337C90.5099 5.89976 91.7127 5.83061 92.8465 6.13745C93.9421 6.43421 94.8633 7.2287 95.3891 8.2263C95.6326 8.65848 95.7932 9.13243 95.9437 9.60494L96.0943 9.59342C96.5013 8.50001 97.1553 7.45631 98.1342 6.79076C99.2463 6.02221 100.669 5.83421 101.985 6.0186C103.113 6.17491 104.185 6.75835 104.883 7.66447C105.81 8.84503 106.142 10.3821 106.158 11.8559C106.158 15.0251 106.158 18.1966 106.158 21.3695H102.93V12.2167C102.915 11.4352 102.799 10.6234 102.39 9.94276C102.076 9.41839 101.566 9.04095 100.972 8.89401C99.8665 8.6203 98.6095 8.87457 97.7668 9.66185C96.8455 10.506 96.4314 11.786 96.4343 13.0119V21.3673H93.2117V12.3579C93.2059 11.526 93.113 10.6544 92.6794 9.92547C92.3675 9.40326 91.8575 9.02871 91.2662 8.88681C90.1252 8.61886 88.8172 8.87745 87.9766 9.73244C87.1122 10.6047 86.7809 11.8796 86.8011 13.0811V21.3644H83.5742V6.37011H86.5194C86.5281 7.31441 86.5396 8.25872 86.5461 9.20302C86.7017 9.24768 86.7312 9.07625 86.7867 8.98045C87.3218 7.83446 88.2273 6.81813 89.4179 6.33337Z" fill="white"/>
<path d="M12.9292 7.58376C14.2625 6.51701 15.9321 5.96166 17.6385 6.01569C19.0748 6.0445 20.5197 6.50476 21.6426 7.41377C23.0076 8.49421 23.8323 10.1509 24.1075 11.8508C24.3034 12.9701 24.2206 14.1103 24.2386 15.2405C20.5298 15.2434 16.8203 15.2434 13.1115 15.2405C13.2375 16.2179 13.736 17.1089 14.5024 17.7284C15.6656 18.6792 17.2625 19.0083 18.729 18.7714C20.0256 18.5553 21.1543 17.7882 22.0482 16.8561C22.6863 17.4885 23.3202 18.126 23.9598 18.7569C23.3332 19.5522 22.561 20.2213 21.6851 20.7291C19.2397 22.138 16.0402 22.1466 13.6042 20.7111C12.4027 20.0131 11.4274 18.9846 10.795 17.7478C10.02 16.228 9.79813 14.4618 10.0229 12.7778C10.3002 10.7696 11.3288 8.84932 12.9292 7.58376ZM14.5758 9.94921C13.7533 10.6472 13.2282 11.6325 13.1093 12.705C15.7715 12.7086 18.4337 12.7086 21.0952 12.705C21.0664 11.76 20.7768 10.7912 20.1286 10.0839C19.499 9.38017 18.5598 9.01643 17.6299 8.96889C16.5235 8.88821 15.4287 9.23972 14.5758 9.94921Z" fill="white"/>
<path d="M36.6118 7.26683C38.728 5.79527 41.6675 5.58423 43.953 6.78856C45.1141 7.41737 46.0505 8.39265 46.6325 9.57753C47.221 10.7466 47.4817 12.0625 47.4896 13.367V15.2398H36.3654C36.49 16.223 36.9928 17.1197 37.7664 17.7392C38.9297 18.6828 40.5215 19.0098 41.9844 18.7721C43.281 18.556 44.4061 17.7874 45.3021 16.8583C45.9367 17.495 46.577 18.1252 47.2109 18.7627C46.5972 19.5413 45.8438 20.1997 44.9895 20.7032C42.4973 22.1646 39.1991 22.1582 36.7349 20.6376C35.5962 19.944 34.6706 18.9493 34.0619 17.7629C33.3172 16.3115 33.0816 14.6318 33.2545 13.0184C33.4893 10.743 34.7073 8.55904 36.6118 7.26683ZM37.7225 10.0428C36.9597 10.735 36.4771 11.6837 36.3669 12.7079H44.3506C44.3225 11.7154 43.9991 10.6911 43.2838 9.98017C42.6262 9.3103 41.6819 8.98905 40.7571 8.96456C39.6435 8.91414 38.5544 9.30094 37.7225 10.0428Z" fill="white"/>
<path d="M65.5827 13.6299H68.6979C68.6353 14.8767 69.0451 16.1545 69.903 17.0729C70.9388 18.203 72.4492 18.7749 73.9741 18.615C75.2123 18.4847 76.3417 17.8458 77.0915 16.8518C77.783 15.9456 78.0524 14.7816 78.0027 13.6565H81.1684C81.3168 15.2707 80.9379 16.9389 80.0361 18.2938C78.6812 20.3711 76.2675 21.6496 73.8084 21.7728C71.4062 21.9212 68.9522 20.9207 67.3733 19.0969C66.0617 17.5922 65.4156 15.6193 65.5827 13.6299Z" fill="white"/>
</svg>
