<svg width="101" height="65" viewBox="0 0 101 65" fill="none" xmlns="http://www.w3.org/2000/svg">
<path d="M1.4963 47.2964V43.7089H0.636902V42.9782H2.93123V43.7089H2.07572V47.2964H1.4963Z" fill="white"/>
<path d="M5.27998 47.2964V42.9782H7.42265V43.7089H5.8594V44.6676H7.30988V45.3944H5.8594V46.5658H7.4732V47.2964H5.27609H5.27998Z" fill="white"/>
<path d="M11.7858 45.7076L12.3496 45.9744C12.2602 46.4576 12.1163 46.8094 11.9102 47.0336C11.7041 47.2578 11.4513 47.37 11.1519 47.37C10.7747 47.37 10.4714 47.1921 10.2381 46.8365C9.96974 46.4267 9.83363 45.8739 9.83363 45.1741C9.83363 44.4357 9.96974 43.8597 10.2381 43.4461C10.4753 43.0865 10.7903 42.9048 11.1869 42.9048C11.5097 42.9048 11.7819 43.0402 11.9996 43.3108C12.1552 43.5041 12.268 43.7901 12.3418 44.169L11.7663 44.3739C11.7313 44.1419 11.6574 43.9602 11.5447 43.8365C11.4358 43.7128 11.3036 43.651 11.1558 43.651C10.9419 43.651 10.7669 43.7631 10.6347 43.9912C10.4986 44.2192 10.4325 44.5942 10.4325 45.12C10.4325 45.6458 10.4986 46.0517 10.6308 46.2798C10.763 46.5079 10.9341 46.6238 11.1441 46.6238C11.2997 46.6238 11.4319 46.5504 11.5447 46.4035C11.6574 46.2566 11.7391 46.0246 11.7858 45.7076Z" fill="white"/>
<path d="M14.8189 47.2964V42.9782H15.3867L16.5688 45.8622V42.9782H17.1133V47.2964H16.5261L15.3634 44.482V47.2964H14.8189Z" fill="white"/>
<path d="M19.5748 45.1664C19.5748 44.6522 19.637 44.227 19.7615 43.8945C19.8859 43.562 20.0492 43.3146 20.2475 43.1522C20.4459 42.9899 20.6909 42.9087 20.9747 42.9087C21.3869 42.9087 21.7252 43.102 21.9858 43.4886C22.2463 43.8752 22.3747 44.428 22.3747 45.1432C22.3747 45.8584 22.2385 46.4305 21.9625 46.8364C21.7214 47.196 21.3908 47.3738 20.9786 47.3738C20.5664 47.3738 20.232 47.196 19.987 46.8403C19.7109 46.4344 19.5748 45.8777 19.5748 45.1664ZM20.1737 45.1354C20.1737 45.6341 20.2514 46.0053 20.4031 46.2527C20.5586 46.5001 20.7492 46.6238 20.9747 46.6238C21.2003 46.6238 21.3947 46.5001 21.5464 46.2527C21.698 46.0053 21.7719 45.6264 21.7719 45.1161C21.7719 44.6058 21.698 44.2463 21.5503 44.0066C21.4025 43.7669 21.2119 43.6471 20.9747 43.6471C20.7375 43.6471 20.5431 43.7669 20.3953 44.0105C20.2475 44.2502 20.1698 44.6251 20.1698 45.1316L20.1737 45.1354Z" fill="white"/>
<path d="M24.8167 47.2965V43.0131H25.4V46.5659H26.8505V47.2965H24.8167Z" fill="white"/>
<path d="M29.1137 45.1664C29.1137 44.6522 29.176 44.227 29.3004 43.8945C29.4248 43.562 29.5882 43.3146 29.7865 43.1522C29.9848 42.9899 30.2298 42.9087 30.5137 42.9087C30.9259 42.9087 31.2642 43.102 31.5247 43.4886C31.7853 43.8752 31.9136 44.428 31.9136 45.1432C31.9136 45.8584 31.7775 46.4305 31.5014 46.8364C31.2603 47.196 30.9298 47.3738 30.5176 47.3738C30.1054 47.3738 29.7709 47.196 29.5259 46.8403C29.2498 46.4344 29.1137 45.8777 29.1137 45.1664ZM29.7165 45.1354C29.7165 45.6341 29.7943 46.0053 29.9459 46.2527C30.1015 46.5001 30.292 46.6238 30.5176 46.6238C30.7431 46.6238 30.9375 46.5001 31.0892 46.2527C31.2408 46.0053 31.3147 45.6264 31.3147 45.1161C31.3147 44.6058 31.2408 44.2463 31.0931 44.0066C30.9453 43.7669 30.7548 43.6471 30.5176 43.6471C30.2803 43.6471 30.0859 43.7669 29.9381 44.0105C29.7904 44.2502 29.7126 44.6251 29.7126 45.1316L29.7165 45.1354Z" fill="white"/>
<path d="M35.6856 45.7114V44.9808H36.9417V46.7011C36.8134 46.8828 36.6345 47.0413 36.405 47.1728C36.1717 47.3042 35.9384 47.3699 35.7051 47.3699C35.4212 47.3699 35.1684 47.2849 34.9507 47.1109C34.7329 46.9408 34.5618 46.6818 34.4335 46.3377C34.3052 45.9937 34.2429 45.5916 34.2429 45.1277C34.2429 44.6638 34.309 44.2463 34.4374 43.9099C34.5657 43.5736 34.7329 43.3185 34.939 43.1522C35.1451 42.986 35.3901 42.9009 35.6779 42.9009C36.024 42.9009 36.2962 43.0092 36.5062 43.2218C36.7123 43.4383 36.8484 43.7514 36.9067 44.169L36.3312 44.3313C36.2884 44.111 36.2106 43.9409 36.094 43.821C35.9773 43.705 35.8412 43.6432 35.6818 43.6432C35.4329 43.6432 35.2346 43.763 35.079 43.9989C34.9235 44.2347 34.8496 44.5981 34.8496 45.0813C34.8496 45.6032 34.9312 45.9975 35.0984 46.2681C35.2423 46.504 35.4329 46.6199 35.6779 46.6199C35.7906 46.6199 35.9112 46.589 36.0317 46.5233C36.1523 46.4576 36.2651 46.3686 36.3584 46.2565V45.7114H35.6895H35.6856Z" fill="white"/>
<path d="M39.4304 47.2964V42.9782H40.0098V47.2964H39.4304Z" fill="white"/>
<path d="M45.1429 47.2964H44.5091L44.2563 46.3183H43.1014L42.8641 47.2964H42.2458L43.3697 42.9782H43.988L45.1468 47.2964H45.1429ZM44.0696 45.5877L43.6691 43.9872L43.2764 45.5877H44.0658H44.0696Z" fill="white"/>
<path d="M50.3615 47.2964V42.9782H52.5042V43.7089H50.941V44.6676H52.3914V45.3944H50.941V46.5658H52.5548V47.2964H50.3577H50.3615Z" fill="white"/>
<path d="M55.024 47.2964V42.9782H55.5918L56.774 45.8622V42.9782H57.3184V47.2964H56.7312L55.5685 44.482V47.2964H55.024Z" fill="white"/>
<path d="M62.8403 45.8893L63.4081 45.8081C63.4742 46.3609 63.6803 46.6354 64.038 46.6354C64.213 46.6354 64.353 46.5774 64.4541 46.4653C64.5552 46.3532 64.6058 46.214 64.6058 46.0439C64.6058 45.9473 64.5902 45.8622 64.5514 45.7926C64.5125 45.7231 64.4619 45.6689 64.3919 45.6226C64.3219 45.5762 64.1469 45.5027 63.8669 45.4022C63.6181 45.3094 63.4353 45.2089 63.3225 45.1007C63.2059 44.9924 63.1164 44.8494 63.0464 44.6754C62.9803 44.5014 62.9453 44.312 62.9453 44.111C62.9453 43.8752 62.9881 43.6625 63.0775 43.477C63.167 43.2914 63.2836 43.1445 63.4392 43.0517C63.5947 42.9551 63.7814 42.9087 64.0069 42.9087C64.3453 42.9087 64.6097 43.0208 64.8002 43.2489C64.9908 43.4731 65.0919 43.7978 65.1035 44.2192L64.5202 44.2579C64.493 44.0259 64.4386 43.8636 64.353 43.7708C64.2675 43.678 64.1469 43.6316 63.9914 43.6316C63.8358 43.6316 63.7153 43.6703 63.6297 43.7515C63.5442 43.8326 63.5014 43.9332 63.5014 44.0491C63.5014 44.1651 63.5403 44.2656 63.6181 44.3468C63.6958 44.428 63.8708 44.5169 64.1508 44.6097C64.4425 44.7141 64.6563 44.8223 64.7847 44.9383C64.913 45.0543 65.0141 45.2012 65.0841 45.3829C65.1541 45.5646 65.1891 45.7849 65.1891 46.0439C65.1891 46.4189 65.0958 46.7359 64.9052 46.9911C64.7186 47.2462 64.423 47.3738 64.0225 47.3738C63.3147 47.3738 62.922 46.879 62.8403 45.8932V45.8893Z" fill="white"/>
<path d="M67.6468 47.2964V42.9782H69.7894V43.7089H68.2301V44.6676H69.6805V45.3944H68.2301V46.5658H69.8439V47.2964H67.6468Z" fill="white"/>
<path d="M72.3054 47.2964V42.9782H73.5342C73.8492 42.9782 74.0709 43.0169 74.207 43.0942C74.3431 43.1715 74.4519 43.3068 74.5375 43.4962C74.623 43.6895 74.6658 43.9176 74.6658 44.1844C74.6658 44.5207 74.5997 44.7952 74.4675 45.0001C74.3353 45.205 74.1486 45.3364 73.9036 45.3905C74.0281 45.4988 74.1331 45.6225 74.2147 45.7501C74.2964 45.8815 74.4092 46.1135 74.5492 46.4536L74.8991 47.2964H74.2031L73.7831 46.357C73.6314 46.0168 73.5264 45.8042 73.472 45.7191C73.4176 45.6341 73.3592 45.5761 73.3009 45.5413C73.2387 45.5104 73.1415 45.4949 73.0092 45.4949H72.8887V47.2964H72.3054ZM72.8848 44.8068H73.3164C73.5809 44.8068 73.7481 44.7913 73.822 44.7643C73.8959 44.7372 73.9503 44.6792 73.997 44.5903C74.0436 44.5052 74.0631 44.3893 74.0631 44.2462C74.0631 44.1032 74.0397 43.9988 73.997 43.9138C73.9503 43.8287 73.892 43.7707 73.8142 43.7398C73.7598 43.7166 73.6003 43.7089 73.3398 43.7089H72.8848V44.8029V44.8068Z" fill="white"/>
<path d="M77.8546 47.2964L76.8202 42.9782H77.4501L78.1812 46.1753L78.8889 42.9782H79.5072L78.4729 47.2964H77.8507H77.8546Z" fill="white"/>
<path d="M81.7549 47.2964V42.9782H82.3382V47.2964H81.7549Z" fill="white"/>
<path d="M86.7091 45.7076L87.2729 45.9744C87.1835 46.4576 87.0396 46.8094 86.8335 47.0336C86.6274 47.2578 86.3747 47.37 86.0752 47.37C85.698 47.37 85.3947 47.1921 85.1614 46.8365C84.8931 46.4267 84.757 45.8739 84.757 45.1741C84.757 44.4357 84.8931 43.8597 85.1614 43.4461C85.3986 43.0865 85.7136 42.9048 86.1102 42.9048C86.433 42.9048 86.7052 43.0402 86.923 43.3108C87.0785 43.5041 87.1913 43.7901 87.2652 44.169L86.6896 44.3739C86.6546 44.1419 86.5807 43.9602 86.468 43.8365C86.3591 43.7128 86.2269 43.651 86.0791 43.651C85.8652 43.651 85.6902 43.7631 85.558 43.9912C85.4219 44.2192 85.3558 44.5942 85.3558 45.12C85.3558 45.6458 85.4219 46.0517 85.5541 46.2798C85.6863 46.5079 85.8575 46.6238 86.0674 46.6238C86.223 46.6238 86.3552 46.5504 86.468 46.4035C86.5807 46.2566 86.6624 46.0246 86.7091 45.7076Z" fill="white"/>
<path d="M89.7228 47.2964V42.9782H90.3061V47.2964H89.7228Z" fill="white"/>
<path d="M92.7132 45.1664C92.7132 44.6522 92.7754 44.227 92.8999 43.8945C93.0243 43.562 93.1876 43.3146 93.386 43.1522C93.5843 42.9899 93.8293 42.9087 94.1132 42.9087C94.5254 42.9087 94.8637 43.102 95.1242 43.4886C95.3848 43.8752 95.5131 44.428 95.5131 45.1432C95.5131 45.8584 95.377 46.4305 95.1009 46.8364C94.8598 47.196 94.5292 47.3738 94.117 47.3738C93.7048 47.3738 93.3704 47.196 93.1293 46.8403C92.8532 46.4344 92.7171 45.8777 92.7171 45.1664H92.7132ZM93.3121 45.1354C93.3121 45.6341 93.3899 46.0053 93.5415 46.2527C93.6971 46.5001 93.8876 46.6238 94.1132 46.6238C94.3387 46.6238 94.5331 46.5001 94.6848 46.2527C94.8365 46.0053 94.9103 45.6264 94.9103 45.1161C94.9103 44.6058 94.8364 44.2463 94.6887 44.0066C94.5409 43.7669 94.3504 43.6471 94.1132 43.6471C93.8759 43.6471 93.6815 43.7669 93.5337 44.0105C93.386 44.2502 93.3082 44.6251 93.3082 45.1316L93.3121 45.1354Z" fill="white"/>
<path d="M97.7918 45.8893L98.3596 45.8081C98.4257 46.3609 98.6318 46.6354 98.9896 46.6354C99.1645 46.6354 99.3045 46.5774 99.4056 46.4653C99.5068 46.3532 99.5573 46.214 99.5573 46.0439C99.5573 45.9473 99.5418 45.8622 99.5029 45.7926C99.464 45.7231 99.4134 45.6689 99.3434 45.6226C99.2734 45.5762 99.0984 45.5027 98.8185 45.4022C98.5696 45.3094 98.3868 45.2089 98.274 45.1007C98.1574 44.9924 98.0679 44.8494 97.9979 44.6754C97.9318 44.5014 97.8968 44.312 97.8968 44.111C97.8968 43.8752 97.9396 43.6625 98.029 43.477C98.1185 43.2914 98.2352 43.1445 98.3907 43.0517C98.5462 42.9551 98.7329 42.9087 98.9584 42.9087C99.2968 42.9087 99.5612 43.0208 99.7517 43.2489C99.9423 43.4731 100.043 43.7978 100.055 44.2192L99.4718 44.2579C99.4445 44.0259 99.3901 43.8636 99.3045 43.7708C99.219 43.678 99.0984 43.6316 98.9429 43.6316C98.7873 43.6316 98.6668 43.6703 98.5812 43.7515C98.4957 43.8326 98.4529 43.9332 98.4529 44.0491C98.4529 44.1651 98.4918 44.2656 98.5696 44.3468C98.6474 44.428 98.8223 44.5169 99.1023 44.6097C99.394 44.7141 99.6079 44.8223 99.7362 44.9383C99.8645 45.0543 99.9656 45.2012 100.036 45.3829C100.106 45.5646 100.141 45.7849 100.141 46.0439C100.141 46.4189 100.047 46.7359 99.8567 46.9911C99.6701 47.2462 99.3745 47.3738 98.974 47.3738C98.2663 47.3738 97.8735 46.879 97.7918 45.8932V45.8893Z" fill="white"/>
<path d="M17.9999 20.1191L18.2293 24.9206H17.6538C17.541 24.074 17.3894 23.4709 17.1988 23.1075C16.8838 22.5237 16.4677 22.0946 15.9467 21.8163C15.4256 21.5379 14.7412 21.4026 13.8895 21.4026H10.9886V37.0402C10.9886 38.2966 11.1247 39.0814 11.3969 39.3945C11.7819 39.8159 12.373 40.0285 13.174 40.0285H13.8857V40.5852H5.15167V40.0285H5.87885C6.74992 40.0285 7.36822 39.7656 7.72987 39.2437C7.95152 38.9229 8.06429 38.1883 8.06429 37.0402V21.4026H5.59109C4.63058 21.4026 3.94618 21.4722 3.54175 21.6152C3.01678 21.8085 2.56569 22.1719 2.18849 22.717C1.81518 23.2621 1.58963 23.9966 1.51963 24.9206H0.947998L1.1891 20.1191H17.996H17.9999Z" fill="white"/>
<path d="M26.0611 21.2364V29.3277H30.5876C31.762 29.3277 32.5475 29.1499 32.9402 28.7981C33.4652 28.3341 33.7607 27.5184 33.8191 26.3509H34.379V33.4758H33.8191C33.6791 32.4784 33.5352 31.8405 33.3952 31.5583C33.2124 31.2065 32.913 30.9282 32.5008 30.7271C32.0886 30.5261 31.447 30.4256 30.5876 30.4256H26.0611V37.1716C26.0611 38.0762 26.1 38.629 26.1817 38.8262C26.2634 39.0233 26.4033 39.178 26.6056 39.294C26.8078 39.4099 27.1928 39.4679 27.7605 39.4679H31.2525C32.4153 39.4679 33.263 39.3867 33.788 39.2282C34.3129 39.0659 34.8185 38.7489 35.3046 38.2772C35.9306 37.6548 36.5762 36.7115 37.2333 35.4551H37.84L36.0628 40.589H20.197V40.0323H20.9242C21.4103 40.0323 21.8691 39.9164 22.3047 39.6844C22.6274 39.5221 22.8491 39.2824 22.9657 38.9615C23.0824 38.6406 23.1407 37.9796 23.1407 36.9822V23.6835C23.1407 22.3845 23.0085 21.5843 22.7441 21.2828C22.3786 20.8807 21.7719 20.6797 20.9203 20.6797H20.1931V20.123H36.059L36.2884 24.6074H35.6973C35.4834 23.5288 35.2501 22.7905 34.9896 22.3884C34.7329 21.9863 34.3479 21.6809 33.8424 21.4683C33.438 21.3175 32.7225 21.2441 31.6997 21.2441H26.0534L26.0611 21.2364Z" fill="white"/>
<path d="M53.3714 19.6514V26.7299H52.8114C52.6287 25.373 52.302 24.2905 51.8315 23.4864C51.3609 22.6823 50.6882 22.0406 49.821 21.5689C48.95 21.0973 48.0478 20.8615 47.1184 20.8615C46.0646 20.8615 45.1935 21.1823 44.5052 21.8202C43.8169 22.4581 43.4708 23.1849 43.4708 24.0006C43.4708 24.6268 43.6886 25.1913 44.1241 25.7054C44.7502 26.4593 46.2434 27.4644 48.6039 28.7247C50.5288 29.753 51.8392 30.5378 52.5431 31.0867C53.247 31.6357 53.7875 32.2813 54.1686 33.0274C54.5497 33.7735 54.7363 34.5506 54.7363 35.3663C54.7363 36.9165 54.1297 38.2503 52.9203 39.3752C51.7109 40.4963 50.1554 41.0569 48.25 41.0569C47.6511 41.0569 47.0912 41.0105 46.5662 40.9216C46.2512 40.8713 45.6018 40.6858 44.6141 40.3688C43.6263 40.0518 43.0003 39.8933 42.7397 39.8933C42.4792 39.8933 42.2847 39.9706 42.1409 40.1213C41.9931 40.2721 41.8842 40.5853 41.8142 41.0569H41.2542V34.0364H41.8142C42.0786 35.5055 42.4325 36.6034 42.8758 37.334C43.323 38.0647 44.0035 38.6716 44.9174 39.1549C45.8351 39.6381 46.8384 39.8778 47.9311 39.8778C49.1949 39.8778 50.1943 39.5453 50.9293 38.8804C51.6643 38.2155 52.0298 37.4307 52.0298 36.5261C52.0298 36.0235 51.8898 35.5132 51.6137 35.0029C51.3337 34.4887 50.9021 34.0132 50.3149 33.5687C49.9182 33.2671 48.8411 32.6254 47.0795 31.6434C45.3179 30.6615 44.0658 29.8806 43.323 29.2968C42.5803 28.7131 42.0164 28.0675 41.6314 27.3639C41.2465 26.6603 41.0559 25.8833 41.0559 25.0405C41.0559 23.5714 41.6237 22.3073 42.7553 21.2442C43.8908 20.1811 45.3296 19.6514 47.0834 19.6514C48.1761 19.6514 49.3349 19.9182 50.5599 20.4517C51.1276 20.703 51.5282 20.8305 51.7576 20.8305C52.022 20.8305 52.2359 20.7532 52.4031 20.5947C52.5703 20.4401 52.7025 20.1231 52.8036 19.6514H53.3636H53.3714Z" fill="white"/>
<path d="M71.8038 20.6797V20.123H79.0912V20.6797H78.3173C77.5085 20.6797 76.8863 21.016 76.4507 21.6925C76.2408 22.0057 76.1319 22.7286 76.1319 23.8652V32.1653C76.1319 34.218 75.9258 35.8108 75.5175 36.9435C75.1091 38.0762 74.3042 39.0465 73.1026 39.8584C71.9049 40.6664 70.2716 41.0723 68.2067 41.0723C65.9591 41.0723 64.2519 40.6857 63.0892 39.9086C61.9265 39.1355 61.0982 38.0917 60.616 36.785C60.2933 35.8881 60.1299 34.2103 60.1299 31.7439V23.7453C60.1299 22.4889 59.9549 21.6616 59.605 21.2712C59.255 20.8807 58.6911 20.6835 57.9134 20.6835H57.1395V20.1269H66.0368V20.6835H65.2474C64.3958 20.6835 63.7892 20.9503 63.4236 21.4838C63.1709 21.8472 63.0425 22.601 63.0425 23.7492V32.6717C63.0425 33.4681 63.1164 34.3765 63.2642 35.4049C63.412 36.4332 63.6764 37.2296 64.0614 37.8056C64.4464 38.3777 64.9986 38.8533 65.7257 39.2244C66.4529 39.5955 67.3395 39.7811 68.3895 39.7811C69.735 39.7811 70.9405 39.4911 72.0021 38.9074C73.0637 38.3236 73.7909 37.5775 74.1797 36.6652C74.5686 35.7528 74.7631 34.2142 74.7631 32.0377V23.7492C74.7631 22.4696 74.6231 21.6693 74.3392 21.3485C73.9425 20.9078 73.3553 20.6835 72.5776 20.6835H71.8038V20.6797Z" fill="white"/>
<path d="M101 40.589H95.5053L88.5368 31.0209C88.0196 31.0403 87.5996 31.0519 87.2769 31.0519C87.1446 31.0519 87.0046 31.0519 86.853 31.0441C86.7013 31.0403 86.5458 31.0325 86.3825 31.0209V36.9667C86.3825 38.254 86.5224 39.0543 86.8063 39.3674C87.1913 39.812 87.7668 40.0323 88.5368 40.0323H89.3417V40.589H80.5183V40.0323H81.2922C82.1632 40.0323 82.7854 39.7501 83.1587 39.1857C83.3726 38.8726 83.4776 38.1342 83.4776 36.9667V23.7453C83.4776 22.458 83.3376 21.6577 83.0537 21.3446C82.6571 20.9039 82.0699 20.6797 81.2922 20.6797H80.5183V20.123H88.0196C90.205 20.123 91.8188 20.2815 92.8571 20.5985C93.8954 20.9155 94.7742 21.4992 95.4975 22.3497C96.2208 23.2002 96.5825 24.2131 96.5825 25.3922C96.5825 26.6486 96.1703 27.7427 95.3459 28.6666C94.5215 29.5944 93.2421 30.2478 91.5116 30.6305L95.762 36.5028C96.7341 37.852 97.5702 38.745 98.2663 39.1896C98.9624 39.6342 99.8762 39.9125 101 40.0362V40.5929V40.589ZM86.3786 30.0699C86.5691 30.0699 86.7363 30.0699 86.8802 30.0777C87.0241 30.0854 87.1369 30.0854 87.2302 30.0854C89.194 30.0854 90.6756 29.664 91.6711 28.8174C92.6666 27.9708 93.1682 26.896 93.1682 25.5855C93.1682 24.275 92.7677 23.2698 91.9627 22.4696C91.1578 21.6693 90.0923 21.2712 88.7662 21.2712C88.179 21.2712 87.3857 21.3678 86.3825 21.5572V30.0699H86.3786Z" fill="white"/>
<path d="M35.5301 17.587C42.9342 10.2805 51.7576 4.02159 61.9771 1.33479C70.711 -0.73346 78.8889 -0.366199 82.2371 9.28308C83.0926 11.8075 83.427 14.4518 83.3026 17.0574H83.1471C82.8515 14.5252 82.2216 12.0085 81.2144 9.67353C79.5267 5.59501 76.1708 2.48297 71.7143 2.01519C68.5684 1.64407 65.3758 1.84896 62.2609 2.53322C54.7324 4.21102 47.7989 8.1697 41.612 12.7237C39.5393 14.2739 37.525 15.9131 35.6429 17.6914L35.5301 17.5832V17.587Z" fill="white"/>
<path d="M39.6326 16.2455C46.1306 10.6129 53.7019 5.94675 62.1831 3.95968C68.9456 2.46744 76.3535 2.61048 79.4411 9.90543C80.2927 11.9428 80.6583 14.1347 80.565 16.288H80.4483C80.2305 14.1927 79.6511 12.1167 78.7023 10.2495C75.5369 3.86303 68.58 3.74706 62.3776 4.87203C56.109 6.11685 50.2293 9.05493 44.8902 12.5304C43.1052 13.7095 41.3592 14.962 39.7104 16.3344L39.6326 16.2494V16.2455Z" fill="white"/>
<path d="M63.4508 50.362C56.774 57.2549 48.1178 62.4816 38.5399 64.1556C30.6576 65.412 22.7402 65.0138 19.7459 56.3387C18.9798 54.0192 18.7154 51.5566 18.9798 49.1443L19.1393 49.152C19.322 51.5141 19.847 53.8413 20.7686 55.9483C22.3397 59.7175 25.5984 62.3038 29.6232 62.8566C32.4969 63.2741 35.4523 63.278 38.3494 62.8953C45.3762 61.9597 52.0414 58.84 57.82 54.773C59.7527 53.3929 61.6309 51.9084 63.3381 50.2538L63.4547 50.362H63.4508Z" fill="white"/>
<path d="M56.2373 53.6365C52.2864 57.139 47.4683 59.6635 42.3469 61.0011C35.7051 62.6402 26.6872 62.9417 22.6741 56.3426C21.7408 54.7963 21.1925 53.0412 21.1419 51.2745L21.2586 51.2667C21.9352 54.6687 24.1168 57.6377 27.1033 59.1338C33.1269 61.9907 41.0053 61.0668 47.1222 58.697C50.3537 57.4251 53.4608 55.7396 56.1557 53.5476L56.2373 53.6327V53.6365Z" fill="white"/>
</svg>
