<svg width="400" height="52" viewBox="0 0 400 52" fill="none" xmlns="http://www.w3.org/2000/svg">
<rect y="0.694092" width="400" height="51" rx="25.5" fill="white"/>
<mask id="path-2-outside-1_222_32" maskUnits="userSpaceOnUse" x="34" y="16.6941" width="45" height="23" fill="black">
<rect fill="white" x="34" y="16.6941" width="45" height="23"/>
<path d="M35.7544 38.1532V33.1388L48.4316 28.5128L35.7544 23.8515V18.8018L54.2936 25.9703V31.02L35.7544 38.1532ZM59.0663 38.1532V33.1388L71.7435 28.5128L59.0663 23.8515V18.8018L77.6054 25.9703V31.02L59.0663 38.1532Z"/>
</mask>
<path d="M35.7544 38.1532H34.7544V39.6094L36.1135 39.0865L35.7544 38.1532ZM35.7544 33.1388L35.4116 32.1993L34.7544 32.4392V33.1388H35.7544ZM48.4316 28.5128L48.7744 29.4522L51.3391 28.5164L48.7767 27.5742L48.4316 28.5128ZM35.7544 23.8515H34.7544V24.5493L35.4093 24.7901L35.7544 23.8515ZM35.7544 18.8018L36.115 17.8691L34.7544 17.343V18.8018H35.7544ZM54.2936 25.9703H55.2936V25.2848L54.6542 25.0376L54.2936 25.9703ZM54.2936 31.02L54.6527 31.9533L55.2936 31.7067V31.02H54.2936ZM36.7544 38.1532V33.1388H34.7544V38.1532H36.7544ZM36.0972 34.0782L48.7744 29.4522L48.0889 27.5734L35.4116 32.1993L36.0972 34.0782ZM48.7767 27.5742L36.0995 22.913L35.4093 24.7901L48.0865 29.4514L48.7767 27.5742ZM36.7544 23.8515V18.8018H34.7544V23.8515H36.7544ZM35.3937 19.7345L53.9329 26.903L54.6542 25.0376L36.115 17.8691L35.3937 19.7345ZM53.2936 25.9703V31.02H55.2936V25.9703H53.2936ZM53.9345 30.0867L35.3953 37.2199L36.1135 39.0865L54.6527 31.9533L53.9345 30.0867ZM59.0663 38.1532H58.0663V39.6094L59.4254 39.0865L59.0663 38.1532ZM59.0663 33.1388L58.7235 32.1993L58.0663 32.4392V33.1388H59.0663ZM71.7435 28.5128L72.0863 29.4522L74.651 28.5164L72.0886 27.5742L71.7435 28.5128ZM59.0663 23.8515H58.0663V24.5493L58.7212 24.7901L59.0663 23.8515ZM59.0663 18.8018L59.4269 17.8691L58.0663 17.343V18.8018H59.0663ZM77.6054 25.9703H78.6054V25.2848L77.9661 25.0376L77.6054 25.9703ZM77.6054 31.02L77.9645 31.9533L78.6054 31.7067V31.02H77.6054ZM60.0663 38.1532V33.1388H58.0663V38.1532H60.0663ZM59.4091 34.0782L72.0863 29.4522L71.4007 27.5734L58.7235 32.1993L59.4091 34.0782ZM72.0886 27.5742L59.4114 22.913L58.7212 24.7901L71.3984 29.4514L72.0886 27.5742ZM60.0663 23.8515V18.8018H58.0663V23.8515H60.0663ZM58.7056 19.7345L77.2448 26.903L77.9661 25.0376L59.4269 17.8691L58.7056 19.7345ZM76.6054 25.9703V31.02H78.6054V25.9703H76.6054ZM77.2463 30.0867L58.7072 37.2199L59.4254 39.0865L77.9645 31.9533L77.2463 30.0867Z" fill="#00ADEF" mask="url(#path-2-outside-1_222_32)"/>
<path d="M94.3348 44.5587V18.8754H98.4938L98.9316 21.4656H99.187C99.8193 20.4198 100.646 19.6537 101.668 19.1673C102.689 18.6808 103.82 18.4376 105.061 18.4376C106.666 18.4376 108.04 18.7903 109.183 19.4956C110.35 20.2009 111.238 21.2954 111.846 22.779C112.479 24.2626 112.795 26.1718 112.795 28.5067C112.795 30.7685 112.479 32.6413 111.846 34.1249C111.214 35.6085 110.326 36.7151 109.183 37.4447C108.064 38.1501 106.751 38.5027 105.243 38.5027C104.416 38.5027 103.65 38.4054 102.945 38.2109C102.239 38.0406 101.607 37.7609 101.048 37.3718C100.488 36.9826 100.014 36.5084 99.6247 35.949H99.4058V44.5587H94.3348ZM103.492 34.3438C104.513 34.3438 105.316 34.1492 105.9 33.7601C106.508 33.3466 106.945 32.7386 107.213 31.936C107.481 31.109 107.614 30.0997 107.614 28.908V28.0689C107.614 26.8528 107.481 25.8435 107.213 25.0409C106.945 24.2139 106.508 23.6059 105.9 23.2168C105.316 22.8033 104.513 22.5966 103.492 22.5966C102.543 22.5966 101.765 22.8155 101.157 23.2533C100.549 23.691 100.099 24.3234 99.8071 25.1503C99.5153 25.9772 99.3694 26.9744 99.3694 28.1418V28.762C99.3694 29.6133 99.4545 30.3916 99.6247 31.0969C99.795 31.7779 100.038 32.3616 100.354 32.848C100.695 33.3344 101.12 33.7114 101.631 33.979C102.142 34.2222 102.762 34.3438 103.492 34.3438ZM121.601 38.5027C120.969 38.5027 120.288 38.4298 119.558 38.2838C118.853 38.1379 118.184 37.8825 117.552 37.5177C116.92 37.1286 116.397 36.5813 115.983 35.876C115.594 35.1464 115.399 34.2222 115.399 33.1034C115.399 31.7657 115.691 30.6591 116.275 29.7835C116.859 28.908 117.686 28.227 118.756 27.7405C119.85 27.2298 121.151 26.8771 122.659 26.6826C124.167 26.488 125.833 26.3907 127.657 26.3907V24.9679C127.657 24.4085 127.56 23.9221 127.366 23.5086C127.195 23.0952 126.879 22.7668 126.417 22.5236C125.979 22.2804 125.359 22.1588 124.556 22.1588C123.754 22.1588 123.097 22.2561 122.586 22.4507C122.1 22.6452 121.747 22.9006 121.528 23.2168C121.334 23.5086 121.237 23.837 121.237 24.2018V24.6396H116.312C116.287 24.518 116.275 24.4085 116.275 24.3112C116.275 24.1896 116.275 24.0437 116.275 23.8734C116.275 22.7547 116.616 21.794 117.297 20.9914C117.978 20.1644 118.938 19.5321 120.179 19.0943C121.419 18.6565 122.866 18.4376 124.52 18.4376C126.295 18.4376 127.779 18.6687 128.971 19.1308C130.187 19.5929 131.111 20.2739 131.743 21.1738C132.4 22.0737 132.728 23.2046 132.728 24.5666V33.2858C132.728 33.7236 132.85 34.0519 133.093 34.2708C133.361 34.4654 133.653 34.5627 133.969 34.5627H135.173V37.8825C134.93 38.0041 134.553 38.1257 134.042 38.2474C133.531 38.3933 132.911 38.4662 132.181 38.4662C131.476 38.4662 130.844 38.3568 130.284 38.1379C129.749 37.9433 129.299 37.6636 128.934 37.2988C128.569 36.9097 128.314 36.4476 128.168 35.9125H127.913C127.499 36.4233 126.989 36.8732 126.381 37.2623C125.797 37.6515 125.104 37.9555 124.301 38.1744C123.523 38.3933 122.623 38.5027 121.601 38.5027ZM123.316 34.6721C123.997 34.6721 124.605 34.5748 125.14 34.3803C125.675 34.1614 126.125 33.8817 126.49 33.5412C126.855 33.1764 127.135 32.7386 127.329 32.2278C127.548 31.7171 127.657 31.1698 127.657 30.5861V29.5282C126.295 29.5282 125.079 29.6254 124.009 29.82C122.939 29.9903 122.088 30.2943 121.455 30.7321C120.847 31.1698 120.543 31.7779 120.543 32.5562C120.543 32.9939 120.653 33.3709 120.872 33.6871C121.091 34.0033 121.407 34.2465 121.82 34.4167C122.234 34.587 122.732 34.6721 123.316 34.6721ZM137.693 38.0649V18.8754H141.888L142.29 21.8669H142.545C142.788 21.2346 143.104 20.663 143.493 20.1523C143.883 19.6172 144.369 19.1916 144.953 18.8754C145.536 18.5592 146.217 18.4012 146.996 18.4012C147.409 18.4012 147.786 18.4498 148.127 18.5471C148.467 18.62 148.723 18.693 148.893 18.766V23.3627H147.324C146.57 23.3627 145.901 23.4721 145.318 23.691C144.758 23.8856 144.284 24.2018 143.895 24.6396C143.506 25.0774 143.214 25.6124 143.019 26.2448C142.849 26.8771 142.764 27.6189 142.764 28.4702V38.0649H137.693ZM156.266 38.5027C155.634 38.5027 154.953 38.4298 154.223 38.2838C153.518 38.1379 152.849 37.8825 152.217 37.5177C151.585 37.1286 151.062 36.5813 150.648 35.876C150.259 35.1464 150.064 34.2222 150.064 33.1034C150.064 31.7657 150.356 30.6591 150.94 29.7835C151.524 28.908 152.351 28.227 153.421 27.7405C154.515 27.2298 155.816 26.8771 157.324 26.6826C158.832 26.488 160.498 26.3907 162.322 26.3907V24.9679C162.322 24.4085 162.225 23.9221 162.031 23.5086C161.86 23.0952 161.544 22.7668 161.082 22.5236C160.644 22.2804 160.024 22.1588 159.221 22.1588C158.419 22.1588 157.762 22.2561 157.251 22.4507C156.765 22.6452 156.412 22.9006 156.193 23.2168C155.999 23.5086 155.902 23.837 155.902 24.2018V24.6396H150.977C150.952 24.518 150.94 24.4085 150.94 24.3112C150.94 24.1896 150.94 24.0437 150.94 23.8734C150.94 22.7547 151.281 21.794 151.962 20.9914C152.643 20.1644 153.603 19.5321 154.844 19.0943C156.084 18.6565 157.531 18.4376 159.185 18.4376C160.96 18.4376 162.444 18.6687 163.636 19.1308C164.852 19.5929 165.776 20.2739 166.408 21.1738C167.065 22.0737 167.393 23.2046 167.393 24.5666V33.2858C167.393 33.7236 167.515 34.0519 167.758 34.2708C168.026 34.4654 168.318 34.5627 168.634 34.5627H169.838V37.8825C169.595 38.0041 169.218 38.1257 168.707 38.2474C168.196 38.3933 167.576 38.4662 166.846 38.4662C166.141 38.4662 165.509 38.3568 164.949 38.1379C164.414 37.9433 163.964 37.6636 163.599 37.2988C163.234 36.9097 162.979 36.4476 162.833 35.9125H162.578C162.164 36.4233 161.654 36.8732 161.046 37.2623C160.462 37.6515 159.769 37.9555 158.966 38.1744C158.188 38.3933 157.288 38.5027 156.266 38.5027ZM157.981 34.6721C158.662 34.6721 159.27 34.5748 159.805 34.3803C160.34 34.1614 160.79 33.8817 161.155 33.5412C161.52 33.1764 161.8 32.7386 161.994 32.2278C162.213 31.7171 162.322 31.1698 162.322 30.5861V29.5282C160.96 29.5282 159.744 29.6254 158.674 29.82C157.604 29.9903 156.753 30.2943 156.121 30.7321C155.512 31.1698 155.208 31.7779 155.208 32.5562C155.208 32.9939 155.318 33.3709 155.537 33.6871C155.756 34.0033 156.072 34.2465 156.485 34.4167C156.899 34.587 157.397 34.6721 157.981 34.6721Z" fill="#00ADEF"/>
<path d="M185.247 38.5027C184.03 38.5027 183.045 38.2838 182.291 37.846C181.538 37.4083 180.99 36.8246 180.65 36.0949C180.309 35.341 180.139 34.514 180.139 33.6141V22.779H177.768V18.8754H180.321L181.27 13.4031H185.21V18.8754H188.712V22.779H185.21V32.7751C185.21 33.3588 185.344 33.8087 185.611 34.1249C185.879 34.4167 186.317 34.5627 186.925 34.5627H188.712V37.919C188.42 38.0163 188.08 38.1014 187.691 38.1744C187.302 38.2717 186.888 38.3446 186.45 38.3933C186.013 38.4662 185.611 38.5027 185.247 38.5027ZM191.988 38.0649V18.8754H196.184L196.585 21.8669H196.84C197.084 21.2346 197.4 20.663 197.789 20.1523C198.178 19.6172 198.664 19.1916 199.248 18.8754C199.832 18.5592 200.513 18.4012 201.291 18.4012C201.705 18.4012 202.082 18.4498 202.422 18.5471C202.763 18.62 203.018 18.693 203.188 18.766V23.3627H201.62C200.866 23.3627 200.197 23.4721 199.613 23.691C199.054 23.8856 198.579 24.2018 198.19 24.6396C197.801 25.0774 197.509 25.6124 197.315 26.2448C197.144 26.8771 197.059 27.6189 197.059 28.4702V38.0649H191.988ZM210.562 38.5027C209.93 38.5027 209.249 38.4298 208.519 38.2838C207.814 38.1379 207.145 37.8825 206.512 37.5177C205.88 37.1286 205.357 36.5813 204.944 35.876C204.555 35.1464 204.36 34.2222 204.36 33.1034C204.36 31.7657 204.652 30.6591 205.236 29.7835C205.819 28.908 206.646 28.227 207.716 27.7405C208.811 27.2298 210.112 26.8771 211.62 26.6826C213.128 26.488 214.794 26.3907 216.618 26.3907V24.9679C216.618 24.4085 216.521 23.9221 216.326 23.5086C216.156 23.0952 215.84 22.7668 215.378 22.5236C214.94 22.2804 214.32 22.1588 213.517 22.1588C212.714 22.1588 212.058 22.2561 211.547 22.4507C211.06 22.6452 210.708 22.9006 210.489 23.2168C210.294 23.5086 210.197 23.837 210.197 24.2018V24.6396H205.272C205.248 24.518 205.236 24.4085 205.236 24.3112C205.236 24.1896 205.236 24.0437 205.236 23.8734C205.236 22.7547 205.576 21.794 206.257 20.9914C206.938 20.1644 207.899 19.5321 209.139 19.0943C210.379 18.6565 211.827 18.4376 213.48 18.4376C215.256 18.4376 216.74 18.6687 217.931 19.1308C219.147 19.5929 220.072 20.2739 220.704 21.1738C221.361 22.0737 221.689 23.2046 221.689 24.5666V33.2858C221.689 33.7236 221.81 34.0519 222.054 34.2708C222.321 34.4654 222.613 34.5627 222.929 34.5627H224.133V37.8825C223.89 38.0041 223.513 38.1257 223.002 38.2474C222.491 38.3933 221.871 38.4662 221.142 38.4662C220.436 38.4662 219.804 38.3568 219.245 38.1379C218.71 37.9433 218.26 37.6636 217.895 37.2988C217.53 36.9097 217.275 36.4476 217.129 35.9125H216.873C216.46 36.4233 215.949 36.8732 215.341 37.2623C214.757 37.6515 214.064 37.9555 213.262 38.1744C212.483 38.3933 211.583 38.5027 210.562 38.5027ZM212.277 34.6721C212.958 34.6721 213.566 34.5748 214.101 34.3803C214.636 34.1614 215.086 33.8817 215.45 33.5412C215.815 33.1764 216.095 32.7386 216.29 32.2278C216.508 31.7171 216.618 31.1698 216.618 30.5861V29.5282C215.256 29.5282 214.04 29.6254 212.97 29.82C211.9 29.9903 211.048 30.2943 210.416 30.7321C209.808 31.1698 209.504 31.7779 209.504 32.5562C209.504 32.9939 209.613 33.3709 209.832 33.6871C210.051 34.0033 210.367 34.2465 210.781 34.4167C211.194 34.587 211.693 34.6721 212.277 34.6721ZM234.424 38.5027C233.086 38.5027 231.882 38.3568 230.812 38.0649C229.742 37.7731 228.83 37.3718 228.076 36.861C227.322 36.326 226.738 35.6936 226.325 34.964C225.936 34.2343 225.741 33.4074 225.741 32.4832C225.741 32.3859 225.741 32.2886 225.741 32.1913C225.741 32.0941 225.753 32.0211 225.778 31.9724H230.666C230.666 32.0211 230.666 32.0697 230.666 32.1184C230.666 32.167 230.666 32.2157 230.666 32.2643C230.691 32.8723 230.885 33.3709 231.25 33.7601C231.615 34.1249 232.089 34.3924 232.673 34.5627C233.281 34.7329 233.913 34.818 234.57 34.818C235.154 34.818 235.713 34.7694 236.248 34.6721C236.807 34.5505 237.27 34.3438 237.634 34.0519C238.024 33.7601 238.218 33.3831 238.218 32.921C238.218 32.3373 237.975 31.8873 237.488 31.5711C237.026 31.255 236.406 30.9996 235.628 30.805C234.874 30.6105 234.047 30.3916 233.147 30.1484C232.32 29.9538 231.493 29.7349 230.666 29.4917C229.839 29.2241 229.085 28.8836 228.404 28.4702C227.748 28.0567 227.213 27.5216 226.799 26.865C226.386 26.184 226.179 25.3327 226.179 24.3112C226.179 23.3141 226.398 22.4507 226.836 21.721C227.273 20.9671 227.869 20.3469 228.623 19.8604C229.402 19.374 230.301 19.0213 231.323 18.8025C232.369 18.5592 233.488 18.4376 234.679 18.4376C235.798 18.4376 236.844 18.5592 237.817 18.8025C238.79 19.0213 239.641 19.3618 240.371 19.8239C241.1 20.2617 241.672 20.8211 242.085 21.5021C242.499 22.1588 242.705 22.9006 242.705 23.7275C242.705 23.8978 242.705 24.0559 242.705 24.2018C242.705 24.3477 242.693 24.445 242.669 24.4936H237.817V24.2018C237.817 23.764 237.683 23.3992 237.415 23.1073C237.148 22.7912 236.759 22.5479 236.248 22.3777C235.762 22.2074 235.166 22.1223 234.46 22.1223C233.974 22.1223 233.524 22.1588 233.111 22.2318C232.721 22.3047 232.381 22.4142 232.089 22.5601C231.797 22.706 231.566 22.8884 231.396 23.1073C231.25 23.3019 231.177 23.5451 231.177 23.837C231.177 24.2504 231.347 24.5909 231.688 24.8585C232.053 25.1017 232.527 25.3084 233.111 25.4787C233.694 25.6489 234.339 25.8313 235.044 26.0259C235.92 26.2691 236.832 26.5123 237.78 26.7555C238.753 26.9744 239.653 27.2784 240.48 27.6676C241.307 28.0567 241.976 28.6161 242.486 29.3457C242.997 30.0511 243.253 31.0118 243.253 32.2278C243.253 33.3952 243.022 34.3803 242.559 35.1829C242.122 35.9855 241.501 36.63 240.699 37.1164C239.896 37.6028 238.96 37.9555 237.89 38.1744C236.82 38.3933 235.664 38.5027 234.424 38.5027ZM255.352 38.5027C253.309 38.5027 251.595 38.1501 250.208 37.4447C248.822 36.7151 247.764 35.6085 247.034 34.1249C246.329 32.617 245.976 30.7321 245.976 28.4702C245.976 26.1597 246.329 24.2748 247.034 22.8155C247.764 21.3319 248.822 20.2253 250.208 19.4956C251.619 18.766 253.334 18.4012 255.352 18.4012C256.666 18.4012 257.845 18.5592 258.891 18.8754C259.961 19.1916 260.885 19.678 261.664 20.3347C262.442 20.9914 263.026 21.8061 263.415 22.779C263.828 23.7275 264.035 24.8585 264.035 26.1718H258.964C258.964 25.2962 258.83 24.5788 258.563 24.0194C258.295 23.46 257.882 23.0344 257.322 22.7425C256.787 22.4507 256.106 22.3047 255.279 22.3047C254.307 22.3047 253.516 22.5236 252.908 22.9614C252.3 23.3992 251.85 24.0437 251.558 24.8949C251.266 25.7462 251.12 26.8042 251.12 28.0689V28.908C251.12 30.1484 251.266 31.1942 251.558 32.0454C251.874 32.8967 252.349 33.5412 252.981 33.979C253.613 34.3924 254.44 34.5992 255.462 34.5992C256.289 34.5992 256.97 34.4532 257.505 34.1614C258.064 33.8695 258.49 33.4317 258.782 32.848C259.074 32.2643 259.219 31.559 259.219 30.7321H264.035C264.035 31.9725 263.828 33.0791 263.415 34.0519C263.026 35.0248 262.442 35.8395 261.664 36.4962C260.91 37.1529 259.998 37.6515 258.928 37.992C257.857 38.3325 256.666 38.5027 255.352 38.5027ZM276.557 38.5027C274.441 38.5027 272.666 38.1501 271.231 37.4447C269.796 36.7151 268.714 35.6085 267.984 34.1249C267.254 32.6413 266.89 30.7564 266.89 28.4702C266.89 26.1597 267.254 24.2748 267.984 22.8155C268.714 21.3319 269.784 20.2374 271.194 19.5321C272.629 18.8025 274.38 18.4376 276.448 18.4376C278.393 18.4376 280.035 18.7903 281.373 19.4956C282.711 20.1766 283.72 21.2467 284.401 22.706C285.082 24.141 285.422 26.0016 285.422 28.2878V29.6011H272.033C272.082 30.7199 272.252 31.6684 272.544 32.4467C272.86 33.225 273.335 33.8087 273.967 34.1979C274.624 34.5627 275.487 34.7451 276.557 34.7451C277.141 34.7451 277.664 34.6721 278.126 34.5262C278.612 34.3803 279.026 34.1614 279.366 33.8695C279.707 33.5777 279.974 33.2128 280.169 32.7751C280.364 32.3373 280.461 31.8387 280.461 31.2793H285.422C285.422 32.4954 285.203 33.5533 284.766 34.4532C284.328 35.3531 283.72 36.1071 282.942 36.7151C282.163 37.2988 281.227 37.7488 280.132 38.0649C279.062 38.3568 277.871 38.5027 276.557 38.5027ZM272.106 26.3907H280.205C280.205 25.6611 280.108 25.0287 279.914 24.4936C279.743 23.9586 279.5 23.5208 279.184 23.1803C278.868 22.8398 278.479 22.5966 278.017 22.4507C277.579 22.2804 277.08 22.1953 276.521 22.1953C275.597 22.1953 274.818 22.3534 274.186 22.6695C273.578 22.9614 273.104 23.4235 272.763 24.0559C272.447 24.6639 272.228 25.4422 272.106 26.3907ZM289.143 38.0649V18.8754H293.338L293.74 21.5021H293.995C294.433 20.8698 294.956 20.3225 295.564 19.8604C296.196 19.3983 296.901 19.0457 297.68 18.8025C298.458 18.5592 299.309 18.4376 300.233 18.4376C301.498 18.4376 302.605 18.6687 303.553 19.1308C304.502 19.5929 305.231 20.3225 305.742 21.3197C306.277 22.3169 306.545 23.6181 306.545 25.2233V38.0649H301.474V26.0259C301.474 25.4179 301.401 24.9071 301.255 24.4936C301.109 24.0559 300.89 23.7032 300.598 23.4357C300.331 23.1438 299.99 22.9371 299.577 22.8155C299.163 22.6939 298.701 22.6331 298.19 22.6331C297.437 22.6331 296.756 22.8155 296.147 23.1803C295.539 23.5451 295.065 24.0437 294.725 24.6761C294.384 25.3084 294.214 26.038 294.214 26.865V38.0649H289.143ZM317.875 38.5027C316.294 38.5027 314.92 38.1501 313.752 37.4447C312.609 36.7151 311.721 35.6085 311.089 34.1249C310.457 32.6413 310.141 30.7442 310.141 28.4337C310.141 26.1232 310.457 24.2383 311.089 22.779C311.746 21.2954 312.634 20.2009 313.752 19.4956C314.895 18.7903 316.209 18.4376 317.692 18.4376C318.519 18.4376 319.285 18.5349 319.991 18.7295C320.72 18.8997 321.353 19.1794 321.888 19.5686C322.447 19.9577 322.921 20.432 323.311 20.9914H323.529V11.6885H328.6V38.0649H324.442L324.04 35.4747H323.785C323.153 36.4962 322.326 37.2623 321.304 37.7731C320.283 38.2595 319.139 38.5027 317.875 38.5027ZM319.48 34.3438C320.429 34.3438 321.195 34.1249 321.778 33.6871C322.386 33.2493 322.836 32.617 323.128 31.79C323.42 30.9631 323.566 29.9781 323.566 28.835V28.1783C323.566 27.3271 323.481 26.5488 323.311 25.8435C323.165 25.1382 322.921 24.5544 322.581 24.0923C322.24 23.6059 321.815 23.2411 321.304 22.9979C320.793 22.7303 320.185 22.5966 319.48 22.5966C318.458 22.5966 317.644 22.8033 317.036 23.2168C316.428 23.6059 315.99 24.2139 315.722 25.0409C315.455 25.8435 315.321 26.8528 315.321 28.0689V28.908C315.321 30.124 315.455 31.1334 315.722 31.936C315.99 32.7386 316.428 33.3466 317.036 33.7601C317.644 34.1492 318.458 34.3438 319.48 34.3438ZM342.004 38.5027C339.888 38.5027 338.113 38.1501 336.678 37.4447C335.243 36.7151 334.16 35.6085 333.431 34.1249C332.701 32.6413 332.336 30.7564 332.336 28.4702C332.336 26.1597 332.701 24.2748 333.431 22.8155C334.16 21.3319 335.23 20.2374 336.641 19.5321C338.076 18.8025 339.827 18.4376 341.894 18.4376C343.84 18.4376 345.482 18.7903 346.82 19.4956C348.157 20.1766 349.167 21.2467 349.848 22.706C350.529 24.141 350.869 26.0016 350.869 28.2878V29.6011H337.48C337.529 30.7199 337.699 31.6684 337.991 32.4467C338.307 33.225 338.781 33.8087 339.414 34.1979C340.07 34.5627 340.934 34.7451 342.004 34.7451C342.588 34.7451 343.111 34.6721 343.573 34.5262C344.059 34.3803 344.473 34.1614 344.813 33.8695C345.154 33.5777 345.421 33.2128 345.616 32.7751C345.81 32.3373 345.907 31.8387 345.907 31.2793H350.869C350.869 32.4954 350.65 33.5533 350.212 34.4532C349.775 35.3531 349.167 36.1071 348.388 36.7151C347.61 37.2988 346.674 37.7488 345.579 38.0649C344.509 38.3568 343.317 38.5027 342.004 38.5027ZM337.553 26.3907H345.652C345.652 25.6611 345.555 25.0287 345.36 24.4936C345.19 23.9586 344.947 23.5208 344.631 23.1803C344.314 22.8398 343.925 22.5966 343.463 22.4507C343.025 22.2804 342.527 22.1953 341.967 22.1953C341.043 22.1953 340.265 22.3534 339.633 22.6695C339.025 22.9614 338.55 23.4235 338.21 24.0559C337.894 24.6639 337.675 25.4422 337.553 26.3907ZM354.59 38.0649V18.8754H358.785L359.186 21.8669H359.442C359.685 21.2346 360.001 20.663 360.39 20.1523C360.779 19.6172 361.266 19.1916 361.85 18.8754C362.433 18.5592 363.114 18.4012 363.893 18.4012C364.306 18.4012 364.683 18.4498 365.023 18.5471C365.364 18.62 365.619 18.693 365.79 18.766V23.3627H364.221C363.467 23.3627 362.798 23.4721 362.214 23.691C361.655 23.8856 361.181 24.2018 360.792 24.6396C360.402 25.0774 360.111 25.6124 359.916 26.2448C359.746 26.8771 359.661 27.6189 359.661 28.4702V38.0649H354.59Z" fill="#242D7F"/>
</svg>
