<svg width="29" height="28" viewBox="0 0 29 28" fill="none" xmlns="http://www.w3.org/2000/svg">
<path d="M25.7778 0C26.6324 0 27.452 0.327777 28.0562 0.911223C28.6605 1.49467 29 2.28599 29 3.11111V24.8889C29 25.714 28.6605 26.5053 28.0562 27.0888C27.452 27.6722 26.6324 28 25.7778 28H3.22222C2.36764 28 1.54805 27.6722 0.943767 27.0888C0.339483 26.5053 0 25.714 0 24.8889V3.11111C0 2.28599 0.339483 1.49467 0.943767 0.911223C1.54805 0.327777 2.36764 0 3.22222 0H25.7778ZM24.9722 24.1111V15.8667C24.9722 14.5217 24.4189 13.2319 23.4339 12.2808C22.4489 11.3298 21.113 10.7956 19.72 10.7956C18.3506 10.7956 16.7556 11.6044 15.9822 12.8178V11.0911H11.4872V24.1111H15.9822V16.4422C15.9822 15.2444 16.9811 14.2644 18.2217 14.2644C18.8199 14.2644 19.3936 14.4939 19.8166 14.9023C20.2396 15.3107 20.4772 15.8646 20.4772 16.4422V24.1111H24.9722ZM6.25111 8.64889C6.96896 8.64889 7.65742 8.37356 8.16501 7.88346C8.67261 7.39337 8.95778 6.72865 8.95778 6.03556C8.95778 4.58889 7.74944 3.40667 6.25111 3.40667C5.52899 3.40667 4.83644 3.68364 4.32582 4.17665C3.8152 4.66966 3.52833 5.33833 3.52833 6.03556C3.52833 7.48222 4.75278 8.64889 6.25111 8.64889ZM8.49056 24.1111V11.0911H4.02778V24.1111H8.49056Z" fill="#00ADEF"/>
</svg>
