<svg width="330" height="3791" viewBox="0 0 330 3791" fill="none" xmlns="http://www.w3.org/2000/svg">
<path d="M6 6V5H5L5 6L6 6ZM0.666832 3785C0.666832 3787.95 3.05465 3790.33 6.00017 3790.33C8.94568 3790.33 11.3335 3787.95 11.3335 3785C11.3335 3782.05 8.94568 3779.67 6.00016 3779.67C3.05465 3779.67 0.666832 3782.05 0.666832 3785ZM318.667 6C318.667 8.94552 321.054 11.3333 324 11.3333C326.946 11.3333 329.333 8.94552 329.333 6C329.333 3.05448 326.946 0.666667 324 0.666667C321.054 0.666667 318.667 3.05448 318.667 6ZM5 6L5.00017 3785L7.00017 3785L7 6L5 6ZM6 7L324 7V5L6 5V7Z" fill="white"/>
</svg>
