<svg width="166" height="43" viewBox="0 0 166 43" fill="none" xmlns="http://www.w3.org/2000/svg">
<g clip-path="url(#clip0_4_58)">
<path d="M12.7014 35.1089V10.0358H20.8839V35.1089H12.7014Z" fill="white"/>
<path d="M25.0358 35.1088V15.8662H31.072L31.5537 18.7814H31.8125C32.3303 18.0301 32.9365 17.4012 33.628 16.9046C34.3194 16.408 35.0829 16.0371 35.9251 15.792C36.764 15.5502 37.6291 15.4276 38.5172 15.4276C40.0737 15.4276 41.3484 15.7146 42.3512 16.2854C43.3507 16.8562 44.0978 17.6753 44.5926 18.746C45.0874 19.8166 45.3332 21.1162 45.3332 22.6448V35.1088H37.9634V23.5187C37.9634 23.106 37.9076 22.7351 37.7962 22.4062C37.6848 22.0772 37.5308 21.7934 37.3342 21.5484C37.1376 21.3065 36.882 21.1162 36.5739 20.984C36.2659 20.8518 35.9022 20.7841 35.4827 20.7841C34.8666 20.7841 34.3292 20.9227 33.8705 21.2033C33.415 21.4839 33.0545 21.8483 32.7956 22.2965C32.5367 22.7448 32.4057 23.2511 32.4057 23.809V35.1056H25.0358V35.1088Z" fill="white"/>
<path d="M51.9952 42.7646C51.1071 42.7646 50.2846 42.5582 49.5309 42.1454C48.7772 41.7326 48.1808 41.1683 47.7352 40.4492C47.2895 39.7332 47.0699 38.9367 47.0699 38.0628C47.0699 37.0663 47.3845 36.1924 48.0137 35.4377C48.6429 34.6864 49.3638 34.1252 50.1798 33.7608C49.5866 33.3481 49.118 32.8514 48.774 32.2677C48.4266 31.684 48.2562 31.052 48.2562 30.3715C48.2562 29.4009 48.6199 28.5301 49.3474 27.7659C50.0749 27.0016 50.9597 26.4953 51.9952 26.2534C51.1071 25.6955 50.36 25.0215 49.7538 24.2314C49.1475 23.4413 48.846 22.5868 48.846 21.6612C48.846 20.0585 49.3015 18.8073 50.2158 17.9075C51.1301 17.0078 52.3524 16.3725 53.8827 15.9952C55.413 15.6179 57.0908 15.4308 58.9194 15.4308C59.66 15.4308 60.2826 15.4502 60.7905 15.4857C61.2951 15.5211 61.7474 15.576 62.1406 15.6501C63.2253 14.9955 63.979 14.3505 64.3984 13.7185C64.8179 13.0864 65.0276 12.6027 65.0276 12.2608H71.0998C71.0998 13.3057 70.9195 14.1699 70.5623 14.8472C70.2052 15.5276 69.6841 16.0758 69.0058 16.4886C68.3275 16.9014 67.5181 17.2303 66.5809 17.4722C67.2952 18.0075 67.8589 18.6331 68.2652 19.349C68.6715 20.0649 68.8747 20.826 68.8747 21.6258C68.8747 23.0608 68.4913 24.2314 67.7278 25.1408C66.961 26.0535 65.955 26.7275 64.7097 27.1628C63.4612 27.6014 62.1111 27.8175 60.6561 27.8175H57.8412C57.0024 27.8175 56.4027 27.9142 56.0455 28.1077C55.6883 28.3012 55.5081 28.5559 55.5081 28.872C55.5081 29.188 55.6621 29.4557 55.9701 29.675C56.2782 29.8943 56.9008 30.0039 57.8412 30.0039H64.5066C66.7775 30.0039 68.4454 30.5811 69.5072 31.7356C70.5689 32.8901 71.0998 34.3671 71.0998 36.1633C71.0998 37.5242 70.7164 38.6948 69.9528 39.6816C69.186 40.6652 68.18 41.4263 66.9348 41.9584C65.6862 42.4937 64.3361 42.7614 62.8812 42.7614H51.9919L51.9952 42.7646ZM55.9931 38.7174H61.7703C62.1406 38.7174 62.4748 38.6432 62.7698 38.4981C63.0647 38.353 63.3006 38.1402 63.4743 37.8596C63.648 37.579 63.7332 37.2598 63.7332 36.8954C63.7332 36.3375 63.5431 35.8989 63.1597 35.5829C62.7763 35.2668 62.3143 35.1088 61.7703 35.1088H55.9931C55.4491 35.1088 54.9936 35.2604 54.6233 35.5635C54.253 35.8667 54.0662 36.2988 54.0662 36.8567C54.0662 37.4146 54.253 37.8661 54.6233 38.2047C54.9936 38.5433 55.4491 38.7142 55.9931 38.7142V38.7174ZM58.844 24.0315C59.7091 24.0315 60.4005 23.838 60.9183 23.4478C61.4361 23.0608 61.6949 22.4513 61.6949 21.6258C61.6949 20.8002 61.4361 20.1939 60.9183 19.8037C60.4005 19.4168 59.7091 19.22 58.844 19.22C58.0772 19.22 57.4251 19.4135 56.8811 19.8037C56.3371 20.1939 56.0651 20.8002 56.0651 21.6258C56.0651 22.1611 56.1766 22.6093 56.3994 22.9737C56.6222 23.3382 56.9434 23.6058 57.3628 23.7767C57.7823 23.9476 58.2771 24.0315 58.844 24.0315Z" fill="white"/>
<path d="M82.2938 35.5474C79.9475 35.5474 77.9158 35.1894 76.2019 34.4735C74.4848 33.7576 73.1642 32.6579 72.2401 31.1745C71.3128 29.6943 70.8507 27.7981 70.8507 25.4891C70.8507 23.1801 71.3062 21.3581 72.2205 19.8779C73.1347 18.3977 74.4127 17.2851 76.0545 16.5434C77.6962 15.8017 79.6296 15.4308 81.8514 15.4308C84.1977 15.4308 86.1901 15.7888 87.8318 16.5047C89.4736 17.2206 90.7254 18.3203 91.5905 19.8037C92.4556 21.2872 92.8849 23.1801 92.8849 25.4891V26.7275H78.2205C78.2205 27.6014 78.3516 28.356 78.6105 28.9881C78.8694 29.6201 79.2888 30.1006 79.8688 30.4263C80.4489 30.7553 81.2091 30.9197 82.1463 30.9197C82.8115 30.9197 83.3752 30.8456 83.8307 30.7005C84.2862 30.5553 84.6565 30.3554 84.9415 30.1006C85.2266 29.8459 85.4298 29.5492 85.5511 29.2074C85.6756 28.8688 85.7346 28.5043 85.7346 28.1141H92.8816C92.8816 29.2557 92.6587 30.2877 92.2164 31.2132C91.7707 32.1355 91.1055 32.9191 90.2174 33.5641C89.3294 34.2091 88.2218 34.6993 86.9044 35.0411C85.5838 35.3797 84.0469 35.5506 82.2938 35.5506V35.5474ZM78.2566 23.3027H85.4397C85.4397 22.7932 85.3643 22.3385 85.2168 21.9353C85.0693 21.5355 84.8531 21.1936 84.568 20.9131C84.2829 20.6325 83.9388 20.4197 83.5292 20.2746C83.1228 20.1294 82.6575 20.0553 82.1398 20.0553C81.3238 20.0553 80.6455 20.1907 80.1015 20.4551C79.5575 20.7228 79.1381 21.0937 78.8432 21.5677C78.5482 22.0418 78.3483 22.619 78.25 23.2995L78.2566 23.3027Z" fill="white"/>
<path d="M95.7325 35.1088V15.8662H101.769L102.25 18.7814H102.509C103.027 18.0301 103.633 17.4012 104.325 16.9046C105.016 16.408 105.78 16.0371 106.622 15.792C107.461 15.5502 108.326 15.4276 109.214 15.4276C110.77 15.4276 112.045 15.7146 113.048 16.2854C114.047 16.8562 114.795 17.6753 115.289 18.746C115.784 19.8166 116.03 21.1162 116.03 22.6448V35.1088H108.66V23.5187C108.66 23.106 108.604 22.7351 108.493 22.4062C108.382 22.0772 108.228 21.7934 108.031 21.5484C107.834 21.3065 107.579 21.1162 107.271 20.984C106.963 20.8518 106.599 20.7841 106.179 20.7841C105.563 20.7841 105.026 20.9227 104.567 21.2033C104.112 21.4839 103.751 21.8483 103.492 22.2965C103.233 22.7448 103.102 23.2511 103.102 23.809V35.1056H95.7325V35.1088Z" fill="white"/>
<path d="M129.639 35.5474C127.293 35.5474 125.261 35.1894 123.547 34.4735C121.83 33.7576 120.51 32.6579 119.585 31.1745C118.658 29.6943 118.196 27.7981 118.196 25.4891C118.196 23.1801 118.651 21.3581 119.566 19.8779C120.48 18.3977 121.758 17.2851 123.4 16.5434C125.042 15.8017 126.975 15.4308 129.197 15.4308C131.543 15.4308 133.535 15.7888 135.177 16.5047C136.819 17.2206 138.071 18.3203 138.936 19.8037C139.801 21.2872 140.23 23.1801 140.23 25.4891V26.7275H125.566C125.566 27.6014 125.697 28.356 125.956 28.9881C126.215 29.6201 126.634 30.1006 127.214 30.4263C127.794 30.7553 128.554 30.9197 129.492 30.9197C130.157 30.9197 130.72 30.8456 131.176 30.7005C131.631 30.5553 132.002 30.3554 132.287 30.1006C132.572 29.8459 132.775 29.5492 132.896 29.2074C133.021 28.8688 133.08 28.5043 133.08 28.1141H140.227C140.227 29.2557 140.004 30.2877 139.562 31.2132C139.116 32.1355 138.451 32.9191 137.563 33.5641C136.675 34.2091 135.567 34.6993 134.25 35.0411C132.929 35.3797 131.392 35.5506 129.639 35.5506V35.5474ZM125.605 23.3027H132.788C132.788 22.7932 132.713 22.3385 132.565 21.9353C132.418 21.5355 132.202 21.1936 131.917 20.9131C131.631 20.6325 131.287 20.4197 130.878 20.2746C130.471 20.1294 130.006 20.0553 129.488 20.0553C128.672 20.0553 127.994 20.1907 127.45 20.4551C126.906 20.7228 126.487 21.0937 126.192 21.5677C125.897 22.0418 125.697 22.619 125.599 23.2995L125.605 23.3027Z" fill="white"/>
<path d="M152.722 35.5474C151.388 35.5474 150.208 35.3958 149.186 35.0927C148.16 34.7896 147.364 34.2607 146.797 33.5061C146.23 32.7547 145.945 31.7195 145.945 30.407V20.7841H141.184V15.863H146.243L147.836 10.0325H153.318V15.863H157.467V20.7841H153.318V28.1077C153.318 28.9333 153.453 29.5589 153.725 29.9846C153.997 30.4102 154.55 30.6231 155.393 30.6231H157.467V34.8863C157.07 35.0088 156.582 35.1217 156.005 35.2314C155.425 35.341 154.845 35.4184 154.265 35.4668C153.685 35.5152 153.174 35.5409 152.728 35.5409L152.722 35.5474Z" fill="white"/>
<path d="M42.7136 2.61475L39.9724 3.29886L40.6676 5.9965L43.4088 5.31239L42.7136 2.61475Z" fill="white"/>
<path d="M44.9791 38.7694L41.0111 39.0007L41.2462 42.9056L45.2141 42.6743L44.9791 38.7694Z" fill="white"/>
<path d="M43.607 8.65849L39.3824 9.7128L40.4537 13.8702L44.6783 12.8159L43.607 8.65849Z" fill="white"/>
<path d="M158.338 15.8404H153.315V20.7841H158.338V15.8404Z" fill="white"/>
<path d="M39.8214 39.2947C15.2935 40.275 4.2338 36.9889 3.61118 33.4609C3.33919 31.9162 4.09617 30.6521 7.57628 28.1625C7.74012 28.0464 9.27373 26.9177 9.41464 26.8145L10.4239 26.0728L9.64403 25.0441L9.15249 24.3927L8.30048 23.2704L5.98696 24.9699C1.54998 28.1109 -0.432565 31.1681 0.0786373 34.0704C1.37631 41.4005 17.9543 43 32.1664 43L40.0147 42.8259L39.8214 39.2947Z" fill="white"/>
<path d="M164.001 15.7372L161.219 13.525C161.943 12.7155 162.51 11.7868 162.399 10.9354C162.081 8.50389 155.825 5.23391 139.237 4.00847C123.927 2.87978 103.856 3.74081 82.7231 6.43032C72.5744 7.72348 62.5896 9.39717 53.365 11.3482H53.3617C52.5261 11.5256 51.6905 11.7062 50.8647 11.8835C50.8581 11.8835 50.8483 11.8803 50.8385 11.8771L49.6555 12.1318L49.3049 10.5259L52.1165 9.82285L51.6708 8.10079C51.9985 8.02662 52.3295 7.9589 52.6605 7.88795C61.9735 5.92402 72.0337 4.23743 82.2643 2.93137C103.63 0.212834 123.96 -0.654647 139.506 0.493395C156.346 1.73496 165.246 5.09524 165.954 10.4807C166.184 12.2221 165.525 13.9829 164.001 15.734V15.7372Z" fill="white"/>
<path d="M49.5585 4.30556L44.6732 5.52475L45.9121 10.3324L50.7974 9.11318L49.5585 4.30556Z" fill="white"/>
<path d="M161.432 15.1893L159.13 17.8724L161.856 20.1383L164.159 17.4551L161.432 15.1893Z" fill="white"/>
</g>
<defs>
<clipPath id="clip0_4_58">
<rect width="166" height="43" fill="white"/>
</clipPath>
</defs>
</svg>
